<ttFont>
<head>
    <!-- Most of this table will be recalculated by the compiler -->
    <tableVersion value="1.0"/>
    <fontRevision value="2.00099"/>
    <checkSumAdjustment value="0x43aaaf9e"/>
    <magicNumber value="0x5f0f3cf5"/>
    <flags value="00000000 00000011"/>
    <unitsPerEm value="1000"/>
    <created value="Wed Feb  1 10:54:31 2017"/>
    <modified value="Mon Mar 20 12:20:32 2017"/>
    <xMin value="-429"/>
    <yMin value="-275"/>
    <xMax value="558"/>
    <yMax value="963"/>
    <macStyle value="00000000 00000000"/>
    <lowestRecPPEM value="7"/>
    <fontDirectionHint value="2"/>
    <indexToLocFormat value="0"/>
    <glyphDataFormat value="0"/>
  </head>
    <TTGlyph name="A" xMin="16" yMin="0" xMax="484" yMax="634">
      <contour>
        <pt x="349" y="182" on="1"/>
        <pt x="148" y="182" on="1"/>
        <pt x="85" y="0" on="1"/>
        <pt x="16" y="0" on="1"/>
        <pt x="246" y="634" on="1"/>
        <pt x="254" y="634" on="1"/>
        <pt x="484" y="0" on="1"/>
        <pt x="412" y="0" on="1"/>
      </contour>
      <contour>
        <pt x="331" y="236" on="1"/>
        <pt x="249" y="474" on="1"/>
        <pt x="167" y="236" on="1"/>
      </contour>
    </TTGlyph>
    <TTGlyph name="AE" xMin="15" yMin="0" xMax="495" yMax="624">
      <contour>
        <pt x="211" y="624" on="1"/>
        <pt x="495" y="624" on="1"/>
        <pt x="495" y="562" on="1"/>
        <pt x="324" y="562" on="1"/>
        <pt x="324" y="357" on="1"/>
        <pt x="469" y="357" on="1"/>
        <pt x="469" y="293" on="1"/>
        <pt x="324" y="293" on="1"/>
        <pt x="324" y="62" on="1"/>
        <pt x="493" y="62" on="1"/>
        <pt x="493" y="0" on="1"/>
        <pt x="263" y="0" on="1"/>
        <pt x="263" y="169" on="1"/>
        <pt x="133" y="169" on="1"/>
        <pt x="79" y="0" on="1"/>
        <pt x="15" y="0" on="1"/>
      </contour>
      <contour>
        <pt x="263" y="227" on="1"/>
        <pt x="263" y="562" on="1"/>
        <pt x="252" y="562" on="1"/>
        <pt x="147" y="227" on="1"/>
      </contour>
    </TTGlyph>
    <TTGlyph name="AEacute" xMin="15" yMin="0" xMax="495" yMax="791">
      <component glyphName="AE" x="0" y="0" flags="0x0"/>
      <component glyphName="acutecomb.case" x="500" y="0" flags="0x0"/>
    </TTGlyph>
    <TTGlyph name="Aacute" xMin="16" yMin="0" xMax="484" yMax="791">
      <component glyphName="A" x="0" y="0" flags="0x0"/>
      <component glyphName="acutecomb.case" x="481" y="0" flags="0x0"/>
    </TTGlyph>
    <TTGlyph name="Abreve" xMin="16" yMin="0" xMax="484" yMax="787">
      <component glyphName="A" x="0" y="0" flags="0x0"/>
      <component glyphName="uni0306.case" x="500" y="0" flags="0x0"/>
    </TTGlyph>
    <TTGlyph name="Acircumflex" xMin="16" yMin="0" xMax="484" yMax="791">
      <component glyphName="A" x="0" y="0" flags="0x0"/>
      <component glyphName="uni0302.case" x="500" y="0" flags="0x0"/>
    </TTGlyph>
    <TTGlyph name="Adieresis" xMin="16" yMin="0" xMax="484" yMax="789">
      <component glyphName="A" x="0" y="0" flags="0x0"/>
      <component glyphName="uni0308.case" x="499" y="0" flags="0x0"/>
    </TTGlyph>
    <TTGlyph name="Agrave" xMin="16" yMin="0" xMax="484" yMax="791">
      <component glyphName="A" x="0" y="0" flags="0x0"/>
      <component glyphName="gravecomb.case" x="436" y="0" flags="0x0"/>
    </TTGlyph>
    <TTGlyph name="Amacron" xMin="16" yMin="0" xMax="484" yMax="787">
      <component glyphName="A" x="0" y="0" flags="0x0"/>
      <component glyphName="uni0304" x="500" y="166" flags="0x4"/>
    </TTGlyph>
    <TTGlyph name="Aogonek" xMin="16" yMin="-227" xMax="484" yMax="634">
      <contour>
        <pt x="426" y="-30" on="0"/>
        <pt x="382" y="-96" on="0"/>
        <pt x="382" y="-123" on="1"/>
        <pt x="382" y="-145" on="0"/>
        <pt x="413" y="-175" on="0"/>
        <pt x="444" y="-179" on="1"/>
        <pt x="428" y="-227" on="1"/>
        <pt x="377" y="-220" on="0"/>
        <pt x="316" y="-174" on="0"/>
        <pt x="316" y="-137" on="1"/>
        <pt x="316" y="-102" on="0"/>
        <pt x="365" y="-31" on="0"/>
        <pt x="412" y="1" on="1"/>
        <pt x="349" y="182" on="1"/>
        <pt x="148" y="182" on="1"/>
        <pt x="85" y="0" on="1"/>
        <pt x="16" y="0" on="1"/>
        <pt x="246" y="634" on="1"/>
        <pt x="254" y="634" on="1"/>
        <pt x="484" y="0" on="1"/>
        <pt x="464" y="0" on="1"/>
      </contour>
      <contour>
        <pt x="331" y="236" on="1"/>
        <pt x="249" y="474" on="1"/>
        <pt x="167" y="236" on="1"/>
      </contour>
    </TTGlyph>
    <TTGlyph name="Aring" xMin="16" yMin="0" xMax="484" yMax="795">
      <contour>
        <pt x="349" y="182" on="1"/>
        <pt x="148" y="182" on="1"/>
        <pt x="85" y="0" on="1"/>
        <pt x="16" y="0" on="1"/>
        <pt x="241" y="619" on="1"/>
        <pt x="206" y="623" on="0"/>
        <pt x="158" y="673" on="0"/>
        <pt x="158" y="707" on="1"/>
        <pt x="158" y="743" on="0"/>
        <pt x="213" y="795" on="0"/>
        <pt x="250" y="795" on="1"/>
        <pt x="287" y="795" on="0"/>
        <pt x="341" y="743" on="0"/>
        <pt x="341" y="706" on="1"/>
        <pt x="341" y="673" on="0"/>
        <pt x="294" y="623" on="0"/>
        <pt x="259" y="619" on="1"/>
        <pt x="484" y="0" on="1"/>
        <pt x="412" y="0" on="1"/>
      </contour>
      <contour>
        <pt x="209" y="688" on="0"/>
        <pt x="234" y="662" on="0"/>
        <pt x="251" y="662" on="1"/>
        <pt x="268" y="662" on="0"/>
        <pt x="292" y="688" on="0"/>
        <pt x="292" y="707" on="1"/>
        <pt x="292" y="727" on="0"/>
        <pt x="268" y="753" on="0"/>
        <pt x="251" y="753" on="1"/>
        <pt x="233" y="753" on="0"/>
        <pt x="209" y="727" on="0"/>
        <pt x="209" y="707" on="1"/>
      </contour>
      <contour>
        <pt x="331" y="236" on="1"/>
        <pt x="249" y="474" on="1"/>
        <pt x="167" y="236" on="1"/>
      </contour>
    </TTGlyph>
    <TTGlyph name="Aringacute" xMin="16" yMin="0" xMax="484" yMax="963">
      <contour>
        <pt x="177" y="832" on="1"/>
        <pt x="154" y="874" on="1"/>
        <pt x="306" y="963" on="1"/>
        <pt x="346" y="893" on="1"/>
      </contour>
      <contour>
        <pt x="349" y="182" on="1"/>
        <pt x="148" y="182" on="1"/>
        <pt x="85" y="0" on="1"/>
        <pt x="16" y="0" on="1"/>
        <pt x="241" y="619" on="1"/>
        <pt x="206" y="623" on="0"/>
        <pt x="158" y="673" on="0"/>
        <pt x="158" y="707" on="1"/>
        <pt x="158" y="743" on="0"/>
        <pt x="213" y="795" on="0"/>
        <pt x="250" y="795" on="1"/>
        <pt x="287" y="795" on="0"/>
        <pt x="341" y="743" on="0"/>
        <pt x="341" y="706" on="1"/>
        <pt x="341" y="673" on="0"/>
        <pt x="294" y="623" on="0"/>
        <pt x="259" y="619" on="1"/>
        <pt x="484" y="0" on="1"/>
        <pt x="412" y="0" on="1"/>
      </contour>
      <contour>
        <pt x="209" y="688" on="0"/>
        <pt x="234" y="662" on="0"/>
        <pt x="251" y="662" on="1"/>
        <pt x="268" y="662" on="0"/>
        <pt x="292" y="688" on="0"/>
        <pt x="292" y="707" on="1"/>
        <pt x="292" y="727" on="0"/>
        <pt x="268" y="753" on="0"/>
        <pt x="251" y="753" on="1"/>
        <pt x="233" y="753" on="0"/>
        <pt x="209" y="727" on="0"/>
        <pt x="209" y="707" on="1"/>
      </contour>
      <contour>
        <pt x="331" y="236" on="1"/>
        <pt x="249" y="474" on="1"/>
        <pt x="167" y="236" on="1"/>
      </contour>
    </TTGlyph>
    <TTGlyph name="Atilde" xMin="16" yMin="0" xMax="484" yMax="797">
      <component glyphName="A" x="0" y="0" flags="0x0"/>
      <component glyphName="tildecomb.case" x="499" y="0" flags="0x0"/>
    </TTGlyph>
    <TTGlyph name="B" xMin="48" yMin="0" xMax="457" yMax="623">
      <contour>
        <pt x="48" y="623" on="1"/>
        <pt x="225" y="623" on="1"/>
        <pt x="329" y="623" on="0"/>
        <pt x="432" y="542" on="0"/>
        <pt x="432" y="472" on="1"/>
        <pt x="432" y="426" on="0"/>
        <pt x="383" y="349" on="0"/>
        <pt x="340" y="334" on="1"/>
        <pt x="392" y="316" on="0"/>
        <pt x="457" y="227" on="0"/>
        <pt x="457" y="175" on="1"/>
        <pt x="457" y="93" on="0"/>
        <pt x="341" y="0" on="0"/>
        <pt x="224" y="0" on="1"/>
        <pt x="48" y="0" on="1"/>
      </contour>
      <contour>
        <pt x="215" y="365" on="1"/>
        <pt x="362" y="365" on="0"/>
        <pt x="362" y="464" on="1"/>
        <pt x="362" y="509" on="0"/>
        <pt x="296" y="564" on="0"/>
        <pt x="226" y="564" on="1"/>
        <pt x="117" y="564" on="1"/>
        <pt x="117" y="365" on="1"/>
      </contour>
      <contour>
        <pt x="236" y="61" on="1"/>
        <pt x="383" y="61" on="0"/>
        <pt x="383" y="179" on="1"/>
        <pt x="383" y="306" on="0"/>
        <pt x="219" y="306" on="1"/>
        <pt x="117" y="306" on="1"/>
        <pt x="117" y="61" on="1"/>
      </contour>
    </TTGlyph>
    <TTGlyph name="C" xMin="41" yMin="-10" xMax="469" yMax="628">
      <contour>
        <pt x="215" y="-10" on="0"/>
        <pt x="106" y="59" on="0"/>
        <pt x="41" y="201" on="0"/>
        <pt x="41" y="308" on="1"/>
        <pt x="41" y="423" on="0"/>
        <pt x="111" y="566" on="0"/>
        <pt x="219" y="628" on="0"/>
        <pt x="281" y="628" on="1"/>
        <pt x="347" y="628" on="0"/>
        <pt x="444" y="562" on="0"/>
        <pt x="469" y="505" on="1"/>
        <pt x="409" y="477" on="1"/>
        <pt x="400" y="473" on="1"/>
        <pt x="397" y="480" on="1"/>
        <pt x="399" y="488" on="1"/>
        <pt x="399" y="498" on="0"/>
        <pt x="385" y="516" on="1"/>
        <pt x="362" y="547" on="0"/>
        <pt x="310" y="572" on="0"/>
        <pt x="279" y="572" on="1"/>
        <pt x="200" y="572" on="0"/>
        <pt x="109" y="435" on="0"/>
        <pt x="109" y="313" on="1"/>
        <pt x="109" y="236" on="0"/>
        <pt x="155" y="116" on="0"/>
        <pt x="234" y="50" on="0"/>
        <pt x="282" y="50" on="1"/>
        <pt x="319" y="50" on="0"/>
        <pt x="387" y="91" on="0"/>
        <pt x="408" y="126" on="1"/>
        <pt x="460" y="92" on="1"/>
        <pt x="429" y="41" on="0"/>
        <pt x="345" y="-10" on="0"/>
        <pt x="285" y="-10" on="1"/>
      </contour>
    </TTGlyph>
    <TTGlyph name="Cacute" xMin="41" yMin="-10" xMax="469" yMax="791">
      <component glyphName="C" x="0" y="0" flags="0x0"/>
      <component glyphName="acutecomb.case" x="501" y="0" flags="0x0"/>
    </TTGlyph>
    <TTGlyph name="Ccaron" xMin="41" yMin="-10" xMax="469" yMax="791">
      <component glyphName="C" x="0" y="0" flags="0x0"/>
      <component glyphName="uni030C.case" x="520" y="0" flags="0x0"/>
    </TTGlyph>
    <TTGlyph name="Ccedilla" xMin="41" yMin="-197" xMax="469" yMax="628">
      <contour>
        <pt x="319" y="50" on="0"/>
        <pt x="387" y="91" on="0"/>
        <pt x="408" y="126" on="1"/>
        <pt x="460" y="92" on="1"/>
        <pt x="433" y="47" on="0"/>
        <pt x="362" y="-3" on="0"/>
        <pt x="313" y="-9" on="1"/>
        <pt x="308" y="-47" on="1"/>
        <pt x="350" y="-51" on="0"/>
        <pt x="393" y="-88" on="0"/>
        <pt x="393" y="-112" on="1"/>
        <pt x="393" y="-148" on="0"/>
        <pt x="333" y="-197" on="0"/>
        <pt x="277" y="-197" on="1"/>
        <pt x="224" y="-197" on="0"/>
        <pt x="178" y="-166" on="1"/>
        <pt x="203" y="-124" on="1"/>
        <pt x="241" y="-154" on="0"/>
        <pt x="290" y="-154" on="1"/>
        <pt x="340" y="-154" on="0"/>
        <pt x="340" y="-118" on="1"/>
        <pt x="340" y="-102" on="0"/>
        <pt x="313" y="-85" on="0"/>
        <pt x="289" y="-85" on="1"/>
        <pt x="259" y="-85" on="1"/>
        <pt x="269" y="-10" on="1"/>
        <pt x="167" y="-4" on="0"/>
        <pt x="42" y="156" on="0"/>
        <pt x="41" y="308" on="1"/>
        <pt x="41" y="423" on="0"/>
        <pt x="111" y="566" on="0"/>
        <pt x="219" y="628" on="0"/>
        <pt x="281" y="628" on="1"/>
        <pt x="347" y="628" on="0"/>
        <pt x="444" y="562" on="0"/>
        <pt x="469" y="505" on="1"/>
        <pt x="409" y="477" on="1"/>
        <pt x="400" y="473" on="1"/>
        <pt x="397" y="480" on="1"/>
        <pt x="399" y="488" on="1"/>
        <pt x="399" y="498" on="0"/>
        <pt x="385" y="516" on="1"/>
        <pt x="362" y="547" on="0"/>
        <pt x="310" y="572" on="0"/>
        <pt x="279" y="572" on="1"/>
        <pt x="200" y="572" on="0"/>
        <pt x="109" y="435" on="0"/>
        <pt x="109" y="313" on="1"/>
        <pt x="109" y="236" on="0"/>
        <pt x="155" y="116" on="0"/>
        <pt x="234" y="50" on="0"/>
        <pt x="282" y="50" on="1"/>
      </contour>
    </TTGlyph>
    <TTGlyph name="Ccircumflex" xMin="41" yMin="-10" xMax="469" yMax="791">
      <component glyphName="C" x="0" y="0" flags="0x0"/>
      <component glyphName="uni0302.case" x="520" y="0" flags="0x0"/>
    </TTGlyph>
    <TTGlyph name="Cdotaccent" xMin="41" yMin="-10" xMax="469" yMax="791">
      <component glyphName="C" x="0" y="0" flags="0x0"/>
      <component glyphName="uni0307.case" x="469" y="0" flags="0x0"/>
    </TTGlyph>
    <TTGlyph name="D" xMin="54" yMin="-2" xMax="460" yMax="623">
      <contour>
        <pt x="54" y="623" on="1"/>
        <pt x="199" y="623" on="1"/>
        <pt x="276" y="623" on="0"/>
        <pt x="366" y="582" on="0"/>
        <pt x="399" y="538" on="1"/>
        <pt x="460" y="456" on="0"/>
        <pt x="460" y="308" on="1"/>
        <pt x="454" y="157" on="0"/>
        <pt x="326" y="-2" on="0"/>
        <pt x="187" y="-1" on="1"/>
        <pt x="54" y="-1" on="1"/>
      </contour>
      <contour>
        <pt x="184" y="54" on="1"/>
        <pt x="390" y="54" on="0"/>
        <pt x="390" y="304" on="1"/>
        <pt x="389" y="431" on="0"/>
        <pt x="297" y="564" on="0"/>
        <pt x="195" y="564" on="1"/>
        <pt x="120" y="564" on="1"/>
        <pt x="120" y="54" on="1"/>
      </contour>
    </TTGlyph>
    <TTGlyph name="Dcaron" xMin="54" yMin="-1" xMax="460" yMax="791">
      <component glyphName="D" x="0" y="0" flags="0x0"/>
      <component glyphName="uni030C.case" x="470" y="0" flags="0x0"/>
    </TTGlyph>
    <TTGlyph name="Dcroat" xMin="30" yMin="-1" xMax="466" yMax="623">
      <component glyphName="Eth" x="0" y="0" flags="0x0"/>
    </TTGlyph>
    <TTGlyph name="E" xMin="59" yMin="0" xMax="441" yMax="624">
      <contour>
        <pt x="59" y="624" on="1"/>
        <pt x="441" y="624" on="1"/>
        <pt x="441" y="562" on="1"/>
        <pt x="125" y="562" on="1"/>
        <pt x="125" y="357" on="1"/>
        <pt x="386" y="357" on="1"/>
        <pt x="386" y="293" on="1"/>
        <pt x="125" y="293" on="1"/>
        <pt x="125" y="62" on="1"/>
        <pt x="438" y="62" on="1"/>
        <pt x="438" y="0" on="1"/>
        <pt x="59" y="0" on="1"/>
      </contour>
    </TTGlyph>
    <TTGlyph name="Eacute" xMin="59" yMin="0" xMax="441" yMax="791">
      <component glyphName="E" x="0" y="0" flags="0x0"/>
      <component glyphName="acutecomb.case" x="501" y="0" flags="0x0"/>
    </TTGlyph>
    <TTGlyph name="Ebreve" xMin="59" yMin="0" xMax="441" yMax="787">
      <component glyphName="E" x="0" y="0" flags="0x0"/>
      <component glyphName="uni0306.case" x="520" y="0" flags="0x0"/>
    </TTGlyph>
    <TTGlyph name="Ecaron" xMin="59" yMin="0" xMax="441" yMax="791">
      <component glyphName="E" x="0" y="0" flags="0x0"/>
      <component glyphName="uni030C.case" x="520" y="0" flags="0x0"/>
    </TTGlyph>
    <TTGlyph name="Ecircumflex" xMin="59" yMin="0" xMax="441" yMax="791">
      <component glyphName="E" x="0" y="0" flags="0x0"/>
      <component glyphName="uni0302.case" x="520" y="0" flags="0x0"/>
    </TTGlyph>
    <TTGlyph name="Edieresis" xMin="59" yMin="0" xMax="441" yMax="789">
      <component glyphName="E" x="0" y="0" flags="0x0"/>
      <component glyphName="uni0308.case" x="519" y="0" flags="0x0"/>
    </TTGlyph>
    <TTGlyph name="Edotaccent" xMin="59" yMin="0" xMax="441" yMax="791">
      <component glyphName="E" x="0" y="0" flags="0x0"/>
      <component glyphName="uni0307.case" x="469" y="0" flags="0x0"/>
    </TTGlyph>
    <TTGlyph name="Egrave" xMin="59" yMin="0" xMax="441" yMax="791">
      <component glyphName="E" x="0" y="0" flags="0x0"/>
      <component glyphName="gravecomb.case" x="456" y="0" flags="0x0"/>
    </TTGlyph>
    <TTGlyph name="Emacron" xMin="59" yMin="0" xMax="441" yMax="787">
      <component glyphName="E" x="0" y="0" flags="0x0"/>
      <component glyphName="uni0304" x="520" y="166" flags="0x4"/>
    </TTGlyph>
    <TTGlyph name="Eng" xMin="50" yMin="-185" xMax="454" yMax="623">
      <contour>
        <pt x="454" y="623" on="1"/>
        <pt x="454" y="620" on="0"/>
        <pt x="447" y="604" on="0"/>
        <pt x="447" y="596" on="1"/>
        <pt x="447" y="0" on="1"/>
        <pt x="447" y="-91" on="0"/>
        <pt x="366" y="-185" on="0"/>
        <pt x="295" y="-185" on="1"/>
        <pt x="248" y="-185" on="0"/>
        <pt x="208" y="-160" on="1"/>
        <pt x="243" y="-98" on="1"/>
        <pt x="249" y="-100" on="0"/>
        <pt x="263" y="-114" on="0"/>
        <pt x="279" y="-122" on="0"/>
        <pt x="298" y="-122" on="1"/>
        <pt x="343" y="-122" on="0"/>
        <pt x="378" y="-55" on="0"/>
        <pt x="380" y="22" on="1"/>
        <pt x="117" y="490" on="1"/>
        <pt x="117" y="0" on="1"/>
        <pt x="50" y="0" on="1"/>
        <pt x="50" y="623" on="1"/>
        <pt x="118" y="623" on="1"/>
        <pt x="380" y="161" on="1"/>
        <pt x="380" y="623" on="1"/>
      </contour>
    </TTGlyph>
    <TTGlyph name="Eogonek" xMin="59" yMin="-176" xMax="441" yMax="624">
      <component glyphName="E" x="0" y="0" flags="0x0"/>
      <component glyphName="ogonek" x="0" y="0" flags="0x0"/>
    </TTGlyph>
    <TTGlyph name="Eth" xMin="30" yMin="-1" xMax="466" yMax="623">
      <contour>
        <pt x="79" y="301" on="1"/>
        <pt x="30" y="301" on="1"/>
        <pt x="30" y="359" on="1"/>
        <pt x="79" y="359" on="1"/>
        <pt x="79" y="623" on="1"/>
        <pt x="218" y="623" on="1"/>
        <pt x="346" y="623" on="0"/>
        <pt x="466" y="455" on="0"/>
        <pt x="466" y="306" on="1"/>
        <pt x="466" y="213" on="0"/>
        <pt x="387" y="49" on="0"/>
        <pt x="319" y="18" on="1"/>
        <pt x="281" y="-1" on="0"/>
        <pt x="206" y="-1" on="1"/>
        <pt x="79" y="-1" on="1"/>
      </contour>
      <contour>
        <pt x="203" y="57" on="1"/>
        <pt x="298" y="57" on="0"/>
        <pt x="399" y="187" on="0"/>
        <pt x="399" y="306" on="1"/>
        <pt x="399" y="430" on="0"/>
        <pt x="308" y="564" on="0"/>
        <pt x="214" y="564" on="1"/>
        <pt x="143" y="564" on="1"/>
        <pt x="143" y="359" on="1"/>
        <pt x="248" y="359" on="1"/>
        <pt x="248" y="301" on="1"/>
        <pt x="143" y="301" on="1"/>
        <pt x="143" y="57" on="1"/>
      </contour>
    </TTGlyph>
    <TTGlyph name="Euro" xMin="33" yMin="-11" xMax="464" yMax="628">
      <contour>
        <pt x="233" y="-11" on="0"/>
        <pt x="105" y="108" on="0"/>
        <pt x="91" y="218" on="1"/>
        <pt x="33" y="218" on="1"/>
        <pt x="46" y="276" on="1"/>
        <pt x="86" y="276" on="1"/>
        <pt x="84" y="312" on="0"/>
        <pt x="88" y="356" on="1"/>
        <pt x="33" y="356" on="1"/>
        <pt x="46" y="414" on="1"/>
        <pt x="97" y="414" on="1"/>
        <pt x="119" y="523" on="0"/>
        <pt x="249" y="628" on="0"/>
        <pt x="329" y="628" on="1"/>
        <pt x="411" y="628" on="0"/>
        <pt x="464" y="574" on="1"/>
        <pt x="439" y="506" on="1"/>
        <pt x="429" y="511" on="0"/>
        <pt x="420" y="528" on="1"/>
        <pt x="407" y="549" on="0"/>
        <pt x="369" y="571" on="0"/>
        <pt x="325" y="571" on="1"/>
        <pt x="266" y="571" on="0"/>
        <pt x="176" y="492" on="0"/>
        <pt x="159" y="414" on="1"/>
        <pt x="406" y="414" on="1"/>
        <pt x="384" y="356" on="1"/>
        <pt x="150" y="356" on="1"/>
        <pt x="148" y="343" on="0"/>
        <pt x="148" y="315" on="1"/>
        <pt x="148" y="276" on="1"/>
        <pt x="354" y="276" on="1"/>
        <pt x="331" y="218" on="1"/>
        <pt x="154" y="218" on="1"/>
        <pt x="168" y="136" on="0"/>
        <pt x="260" y="49" on="0"/>
        <pt x="327" y="49" on="1"/>
        <pt x="387" y="49" on="0"/>
        <pt x="434" y="90" on="1"/>
        <pt x="463" y="40" on="1"/>
        <pt x="405" y="-11" on="0"/>
        <pt x="323" y="-11" on="1"/>
      </contour>
    </TTGlyph>
    <TTGlyph name="F" xMin="78" yMin="0" xMax="437" yMax="624">
      <contour>
        <pt x="78" y="624" on="1"/>
        <pt x="437" y="624" on="1"/>
        <pt x="437" y="563" on="1"/>
        <pt x="148" y="563" on="1"/>
        <pt x="148" y="367" on="1"/>
        <pt x="381" y="367" on="1"/>
        <pt x="381" y="306" on="1"/>
        <pt x="148" y="306" on="1"/>
        <pt x="148" y="0" on="1"/>
        <pt x="78" y="0" on="1"/>
      </contour>
    </TTGlyph>
    <TTGlyph name="G" xMin="35" yMin="-10" xMax="460" yMax="630">
      <contour>
        <pt x="203" y="-10" on="0"/>
        <pt x="94" y="68" on="0"/>
        <pt x="36" y="210" on="0"/>
        <pt x="36" y="304" on="1"/>
        <pt x="35" y="428" on="0"/>
        <pt x="109" y="573" on="0"/>
        <pt x="217" y="630" on="0"/>
        <pt x="272" y="630" on="1"/>
        <pt x="328" y="630" on="0"/>
        <pt x="432" y="572" on="0"/>
        <pt x="458" y="525" on="1"/>
        <pt x="409" y="486" on="1"/>
        <pt x="401" y="479" on="1"/>
        <pt x="397" y="485" on="1"/>
        <pt x="398" y="493" on="0"/>
        <pt x="391" y="507" on="0"/>
        <pt x="380" y="519" on="1"/>
        <pt x="356" y="545" on="0"/>
        <pt x="307" y="568" on="0"/>
        <pt x="273" y="568" on="1"/>
        <pt x="198" y="568" on="0"/>
        <pt x="105" y="452" on="0"/>
        <pt x="105" y="319" on="1"/>
        <pt x="105" y="191" on="0"/>
        <pt x="196" y="52" on="0"/>
        <pt x="277" y="52" on="1"/>
        <pt x="307" y="52" on="0"/>
        <pt x="373" y="71" on="0"/>
        <pt x="395" y="90" on="1"/>
        <pt x="395" y="238" on="1"/>
        <pt x="282" y="238" on="1"/>
        <pt x="282" y="299" on="1"/>
        <pt x="460" y="299" on="1"/>
        <pt x="460" y="55" on="1"/>
        <pt x="371" y="-10" on="0"/>
        <pt x="277" y="-10" on="1"/>
      </contour>
    </TTGlyph>
    <TTGlyph name="Gbreve" xMin="36" yMin="-10" xMax="460" yMax="787">
      <component glyphName="G" x="0" y="0" flags="0x0"/>
      <component glyphName="uni0306.case" x="524" y="0" flags="0x0"/>
    </TTGlyph>
    <TTGlyph name="Gcaron" xMin="36" yMin="-10" xMax="460" yMax="791">
      <component glyphName="G" x="0" y="0" flags="0x0"/>
      <component glyphName="uni030C.case" x="524" y="0" flags="0x0"/>
    </TTGlyph>
    <TTGlyph name="Gcircumflex" xMin="36" yMin="-10" xMax="460" yMax="791">
      <component glyphName="G" x="0" y="0" flags="0x0"/>
      <component glyphName="uni0302.case" x="524" y="0" flags="0x0"/>
    </TTGlyph>
    <TTGlyph name="Gcommaaccent" xMin="36" yMin="-275" xMax="460" yMax="630">
      <component glyphName="G" x="0" y="0" flags="0x0"/>
      <component glyphName="uni0326" x="530" y="0" flags="0x0"/>
    </TTGlyph>
    <TTGlyph name="Gdotaccent" xMin="36" yMin="-10" xMax="460" yMax="791">
      <component glyphName="G" x="0" y="0" flags="0x0"/>
      <component glyphName="uni0307.case" x="473" y="0" flags="0x0"/>
    </TTGlyph>
    <TTGlyph name="H" xMin="50" yMin="0" xMax="449" yMax="623">
      <contour>
        <pt x="50" y="623" on="1"/>
        <pt x="132" y="623" on="1"/>
        <pt x="132" y="616" on="1"/>
        <pt x="126" y="610" on="0"/>
        <pt x="123" y="596" on="0"/>
        <pt x="123" y="579" on="1"/>
        <pt x="123" y="357" on="1"/>
        <pt x="367" y="357" on="1"/>
        <pt x="367" y="623" on="1"/>
        <pt x="449" y="623" on="1"/>
        <pt x="449" y="616" on="1"/>
        <pt x="443" y="610" on="0"/>
        <pt x="440" y="596" on="0"/>
        <pt x="440" y="579" on="1"/>
        <pt x="440" y="0" on="1"/>
        <pt x="366" y="0" on="1"/>
        <pt x="366" y="297" on="1"/>
        <pt x="123" y="297" on="1"/>
        <pt x="123" y="0" on="1"/>
        <pt x="50" y="0" on="1"/>
      </contour>
    </TTGlyph>
    <TTGlyph name="Hbar" xMin="50" yMin="0" xMax="449" yMax="623">
      <contour>
        <pt x="449" y="616" on="1"/>
        <pt x="443" y="610" on="0"/>
        <pt x="440" y="596" on="0"/>
        <pt x="440" y="579" on="1"/>
        <pt x="440" y="0" on="1"/>
        <pt x="366" y="0" on="1"/>
        <pt x="366" y="278" on="1"/>
        <pt x="123" y="278" on="1"/>
        <pt x="123" y="0" on="1"/>
        <pt x="50" y="0" on="1"/>
        <pt x="50" y="623" on="1"/>
        <pt x="132" y="623" on="1"/>
        <pt x="132" y="616" on="1"/>
        <pt x="126" y="610" on="0"/>
        <pt x="123" y="596" on="0"/>
        <pt x="123" y="579" on="1"/>
        <pt x="123" y="357" on="1"/>
        <pt x="367" y="357" on="1"/>
        <pt x="367" y="623" on="1"/>
        <pt x="449" y="623" on="1"/>
      </contour>
    </TTGlyph>
    <TTGlyph name="Hcircumflex" xMin="50" yMin="0" xMax="449" yMax="791">
      <component glyphName="H" x="0" y="0" flags="0x0"/>
      <component glyphName="uni0302.case" x="500" y="0" flags="0x0"/>
    </TTGlyph>
    <TTGlyph name="I" xMin="81" yMin="0" xMax="403" yMax="623">
      <contour>
        <pt x="81" y="59" on="1"/>
        <pt x="204" y="59" on="1"/>
        <pt x="204" y="564" on="1"/>
        <pt x="88" y="564" on="1"/>
        <pt x="88" y="623" on="1"/>
        <pt x="397" y="623" on="1"/>
        <pt x="397" y="564" on="1"/>
        <pt x="274" y="564" on="1"/>
        <pt x="274" y="58" on="1"/>
        <pt x="403" y="58" on="1"/>
        <pt x="403" y="0" on="1"/>
        <pt x="81" y="0" on="1"/>
      </contour>
    </TTGlyph>
    <TTGlyph name="Iacute" xMin="81" yMin="0" xMax="403" yMax="791">
      <component glyphName="I" x="0" y="0" flags="0x0"/>
      <component glyphName="acutecomb.case" x="470" y="0" flags="0x0"/>
    </TTGlyph>
    <TTGlyph name="Ibreve" xMin="81" yMin="0" xMax="403" yMax="787">
      <component glyphName="I" x="0" y="0" flags="0x0"/>
      <component glyphName="uni0306.case" x="489" y="0" flags="0x0"/>
    </TTGlyph>
    <TTGlyph name="Icircumflex" xMin="81" yMin="0" xMax="403" yMax="791">
      <component glyphName="I" x="0" y="0" flags="0x0"/>
      <component glyphName="uni0302.case" x="489" y="0" flags="0x0"/>
    </TTGlyph>
    <TTGlyph name="Idieresis" xMin="81" yMin="0" xMax="403" yMax="789">
      <component glyphName="I" x="0" y="0" flags="0x0"/>
      <component glyphName="uni0308.case" x="488" y="0" flags="0x0"/>
    </TTGlyph>
    <TTGlyph name="Idotaccent" xMin="81" yMin="0" xMax="403" yMax="791">
      <component glyphName="I" x="0" y="0" flags="0x0"/>
      <component glyphName="uni0307.case" x="438" y="0" flags="0x0"/>
    </TTGlyph>
    <TTGlyph name="Igrave" xMin="81" yMin="0" xMax="403" yMax="791">
      <component glyphName="I" x="0" y="0" flags="0x0"/>
      <component glyphName="gravecomb.case" x="425" y="0" flags="0x0"/>
    </TTGlyph>
    <TTGlyph name="Imacron" xMin="81" yMin="0" xMax="403" yMax="787">
      <component glyphName="I" x="0" y="0" flags="0x0"/>
      <component glyphName="uni0304" x="489" y="166" flags="0x4"/>
    </TTGlyph>
    <TTGlyph name="Iogonek" xMin="81" yMin="-227" xMax="403" yMax="623">
      <contour>
        <pt x="365" y="-30" on="0"/>
        <pt x="321" y="-96" on="0"/>
        <pt x="321" y="-123" on="1"/>
        <pt x="321" y="-145" on="0"/>
        <pt x="352" y="-175" on="0"/>
        <pt x="383" y="-179" on="1"/>
        <pt x="367" y="-227" on="1"/>
        <pt x="316" y="-220" on="0"/>
        <pt x="255" y="-174" on="0"/>
        <pt x="255" y="-137" on="1"/>
        <pt x="255" y="-102" on="0"/>
        <pt x="303" y="-32" on="0"/>
        <pt x="349" y="0" on="1"/>
        <pt x="81" y="0" on="1"/>
        <pt x="81" y="59" on="1"/>
        <pt x="204" y="59" on="1"/>
        <pt x="204" y="564" on="1"/>
        <pt x="88" y="564" on="1"/>
        <pt x="88" y="623" on="1"/>
        <pt x="397" y="623" on="1"/>
        <pt x="397" y="564" on="1"/>
        <pt x="274" y="564" on="1"/>
        <pt x="274" y="58" on="1"/>
        <pt x="403" y="58" on="1"/>
        <pt x="403" y="0" on="1"/>
      </contour>
    </TTGlyph>
    <TTGlyph name="Itilde" xMin="80" yMin="0" xMax="410" yMax="849">
      <component glyphName="I" x="0" y="0" flags="0x0"/>
      <component glyphName="tilde.case" x="-21" y="36" flags="0x4"/>
    </TTGlyph>
    <TTGlyph name="J" xMin="49" yMin="-11" xMax="457" yMax="623">
      <contour>
        <pt x="106" y="-11" on="0"/>
        <pt x="49" y="58" on="1"/>
        <pt x="89" y="108" on="1"/>
        <pt x="96" y="116" on="1"/>
        <pt x="101" y="112" on="1"/>
        <pt x="102" y="102" on="0"/>
        <pt x="110" y="88" on="0"/>
        <pt x="122" y="78" on="1"/>
        <pt x="157" y="51" on="0"/>
        <pt x="196" y="51" on="1"/>
        <pt x="247" y="51" on="0"/>
        <pt x="292" y="122" on="0"/>
        <pt x="292" y="208" on="1"/>
        <pt x="292" y="564" on="1"/>
        <pt x="172" y="564" on="1"/>
        <pt x="172" y="623" on="1"/>
        <pt x="457" y="623" on="1"/>
        <pt x="457" y="564" on="1"/>
        <pt x="361" y="564" on="1"/>
        <pt x="361" y="209" on="1"/>
        <pt x="363" y="133" on="0"/>
        <pt x="319" y="35" on="0"/>
        <pt x="244" y="-11" on="0"/>
        <pt x="198" y="-11" on="1"/>
      </contour>
    </TTGlyph>
    <TTGlyph name="Jcircumflex" xMin="49" yMin="-11" xMax="488" yMax="791">
      <component glyphName="J" x="0" y="0" flags="0x0"/>
      <component glyphName="uni0302.case" x="580" y="0" flags="0x0"/>
    </TTGlyph>
    <TTGlyph name="K" xMin="42" yMin="-4" xMax="471" yMax="628">
      <contour>
        <pt x="166" y="312" on="1"/>
        <pt x="117" y="258" on="1"/>
        <pt x="117" y="0" on="1"/>
        <pt x="42" y="0" on="1"/>
        <pt x="42" y="623" on="1"/>
        <pt x="126" y="623" on="1"/>
        <pt x="126" y="616" on="1"/>
        <pt x="120" y="610" on="0"/>
        <pt x="117" y="596" on="0"/>
        <pt x="117" y="579" on="1"/>
        <pt x="117" y="336" on="1"/>
        <pt x="377" y="628" on="1"/>
        <pt x="402" y="623" on="0"/>
        <pt x="429" y="623" on="1"/>
        <pt x="455" y="623" on="1"/>
        <pt x="219" y="354" on="1"/>
        <pt x="471" y="0" on="1"/>
        <pt x="381" y="-4" on="1"/>
      </contour>
    </TTGlyph>
    <TTGlyph name="Kcommaaccent" xMin="42" yMin="-275" xMax="471" yMax="628">
      <component glyphName="K" x="0" y="0" flags="0x0"/>
      <component glyphName="uni0326" x="500" y="0" flags="0x0"/>
    </TTGlyph>
    <TTGlyph name="L" xMin="66" yMin="0" xMax="439" yMax="623">
      <contour>
        <pt x="66" y="623" on="1"/>
        <pt x="148" y="623" on="1"/>
        <pt x="148" y="616" on="1"/>
        <pt x="142" y="610" on="0"/>
        <pt x="139" y="596" on="0"/>
        <pt x="139" y="579" on="1"/>
        <pt x="139" y="60" on="1"/>
        <pt x="439" y="60" on="1"/>
        <pt x="439" y="0" on="1"/>
        <pt x="66" y="0" on="1"/>
      </contour>
    </TTGlyph>
    <TTGlyph name="Lacute" xMin="66" yMin="0" xMax="439" yMax="791">
      <component glyphName="L" x="0" y="0" flags="0x0"/>
      <component glyphName="acutecomb.case" x="431" y="0" flags="0x0"/>
    </TTGlyph>
    <TTGlyph name="Lcaron" xMin="66" yMin="0" xMax="439" yMax="628">
      <contour>
        <pt x="311" y="435" on="1"/>
        <pt x="334" y="455" on="0"/>
        <pt x="363" y="504" on="0"/>
        <pt x="363" y="519" on="1"/>
        <pt x="363" y="530" on="0"/>
        <pt x="344" y="547" on="1"/>
        <pt x="322" y="565" on="0"/>
        <pt x="322" y="581" on="1"/>
        <pt x="322" y="601" on="0"/>
        <pt x="349" y="628" on="0"/>
        <pt x="370" y="628" on="1"/>
        <pt x="392" y="628" on="0"/>
        <pt x="424" y="590" on="0"/>
        <pt x="424" y="562" on="1"/>
        <pt x="424" y="496" on="0"/>
        <pt x="339" y="411" on="1"/>
      </contour>
      <contour>
        <pt x="66" y="623" on="1"/>
        <pt x="148" y="623" on="1"/>
        <pt x="148" y="616" on="1"/>
        <pt x="142" y="610" on="0"/>
        <pt x="139" y="596" on="0"/>
        <pt x="139" y="579" on="1"/>
        <pt x="139" y="60" on="1"/>
        <pt x="439" y="60" on="1"/>
        <pt x="439" y="0" on="1"/>
        <pt x="66" y="0" on="1"/>
      </contour>
    </TTGlyph>
    <TTGlyph name="Lcommaaccent" xMin="66" yMin="-275" xMax="439" yMax="623">
      <component glyphName="L" x="0" y="0" flags="0x0"/>
      <component glyphName="uni0326" x="514" y="0" flags="0x0"/>
    </TTGlyph>
    <TTGlyph name="Ldot" xMin="66" yMin="0" xMax="439" yMax="623">
      <component glyphName="L" x="0" y="0" flags="0x0"/>
      <component glyphName="periodcentered" x="60" y="0" flags="0x0"/>
    </TTGlyph>
    <TTGlyph name="Lslash" xMin="20" yMin="-1" xMax="446" yMax="623">
      <contour>
        <pt x="73" y="243" on="1"/>
        <pt x="20" y="226" on="1"/>
        <pt x="20" y="287" on="1"/>
        <pt x="73" y="305" on="1"/>
        <pt x="73" y="623" on="1"/>
        <pt x="154" y="623" on="1"/>
        <pt x="156" y="623" on="0"/>
        <pt x="156" y="621" on="1"/>
        <pt x="156" y="619" on="0"/>
        <pt x="148" y="597" on="0"/>
        <pt x="146" y="589" on="1"/>
        <pt x="146" y="328" on="1"/>
        <pt x="312" y="382" on="1"/>
        <pt x="333" y="390" on="0"/>
        <pt x="337" y="392" on="1"/>
        <pt x="337" y="328" on="1"/>
        <pt x="146" y="267" on="1"/>
        <pt x="146" y="60" on="1"/>
        <pt x="446" y="60" on="1"/>
        <pt x="446" y="-1" on="1"/>
        <pt x="73" y="-1" on="1"/>
      </contour>
    </TTGlyph>
    <TTGlyph name="M" xMin="41" yMin="0" xMax="460" yMax="624">
      <contour>
        <pt x="41" y="623" on="1"/>
        <pt x="96" y="623" on="1"/>
        <pt x="250" y="318" on="1"/>
        <pt x="407" y="624" on="1"/>
        <pt x="460" y="624" on="1"/>
        <pt x="460" y="0" on="1"/>
        <pt x="394" y="0" on="1"/>
        <pt x="394" y="470" on="1"/>
        <pt x="259" y="219" on="1"/>
        <pt x="232" y="219" on="1"/>
        <pt x="106" y="467" on="1"/>
        <pt x="106" y="0" on="1"/>
        <pt x="41" y="0" on="1"/>
      </contour>
    </TTGlyph>
    <TTGlyph name="N" xMin="50" yMin="0" xMax="456" yMax="623">
      <contour>
        <pt x="50" y="623" on="1"/>
        <pt x="118" y="623" on="1"/>
        <pt x="380" y="161" on="1"/>
        <pt x="380" y="623" on="1"/>
        <pt x="456" y="623" on="1"/>
        <pt x="456" y="616" on="1"/>
        <pt x="450" y="610" on="0"/>
        <pt x="447" y="596" on="0"/>
        <pt x="447" y="579" on="1"/>
        <pt x="447" y="0" on="1"/>
        <pt x="392" y="0" on="1"/>
        <pt x="117" y="490" on="1"/>
        <pt x="117" y="0" on="1"/>
        <pt x="50" y="0" on="1"/>
      </contour>
    </TTGlyph>
    <TTGlyph name="Nacute" xMin="50" yMin="0" xMax="456" yMax="791">
      <component glyphName="N" x="0" y="0" flags="0x0"/>
      <component glyphName="acutecomb.case" x="481" y="0" flags="0x0"/>
    </TTGlyph>
    <TTGlyph name="Ncaron" xMin="50" yMin="0" xMax="456" yMax="791">
      <component glyphName="N" x="0" y="0" flags="0x0"/>
      <component glyphName="uni030C.case" x="500" y="0" flags="0x0"/>
    </TTGlyph>
    <TTGlyph name="Ncommaaccent" xMin="50" yMin="-275" xMax="456" yMax="623">
      <component glyphName="N" x="0" y="0" flags="0x0"/>
      <component glyphName="uni0326" x="514" y="0" flags="0x0"/>
    </TTGlyph>
    <TTGlyph name="Ntilde" xMin="50" yMin="0" xMax="456" yMax="797">
      <component glyphName="N" x="0" y="0" flags="0x0"/>
      <component glyphName="tildecomb.case" x="499" y="0" flags="0x0"/>
    </TTGlyph>
    <TTGlyph name="O" xMin="27" yMin="-11" xMax="473" yMax="627">
      <contour>
        <pt x="143" y="-11" on="0"/>
        <pt x="27" y="155" on="0"/>
        <pt x="27" y="308" on="1"/>
        <pt x="27" y="457" on="0"/>
        <pt x="144" y="627" on="0"/>
        <pt x="250" y="627" on="1"/>
        <pt x="356" y="627" on="0"/>
        <pt x="473" y="457" on="0"/>
        <pt x="473" y="308" on="1"/>
        <pt x="473" y="155" on="0"/>
        <pt x="357" y="-11" on="0"/>
        <pt x="250" y="-11" on="1"/>
      </contour>
      <contour>
        <pt x="322" y="50" on="0"/>
        <pt x="401" y="184" on="0"/>
        <pt x="401" y="308" on="1"/>
        <pt x="401" y="427" on="0"/>
        <pt x="321" y="566" on="0"/>
        <pt x="250" y="566" on="1"/>
        <pt x="179" y="566" on="0"/>
        <pt x="99" y="427" on="0"/>
        <pt x="99" y="308" on="1"/>
        <pt x="99" y="184" on="0"/>
        <pt x="178" y="50" on="0"/>
        <pt x="250" y="50" on="1"/>
      </contour>
    </TTGlyph>
    <TTGlyph name="OE" xMin="9" yMin="-7" xMax="484" yMax="632">
      <contour>
        <pt x="95" y="-7" on="0"/>
        <pt x="9" y="152" on="0"/>
        <pt x="9" y="312" on="1"/>
        <pt x="9" y="469" on="0"/>
        <pt x="94" y="632" on="0"/>
        <pt x="173" y="632" on="1"/>
        <pt x="220" y="632" on="0"/>
        <pt x="253" y="595" on="1"/>
        <pt x="253" y="624" on="1"/>
        <pt x="484" y="624" on="1"/>
        <pt x="484" y="562" on="1"/>
        <pt x="315" y="562" on="1"/>
        <pt x="315" y="357" on="1"/>
        <pt x="458" y="357" on="1"/>
        <pt x="458" y="293" on="1"/>
        <pt x="315" y="293" on="1"/>
        <pt x="315" y="62" on="1"/>
        <pt x="482" y="62" on="1"/>
        <pt x="482" y="0" on="1"/>
        <pt x="252" y="0" on="1"/>
        <pt x="252" y="31" on="1"/>
        <pt x="220" y="-7" on="0"/>
        <pt x="172" y="-7" on="1"/>
      </contour>
      <contour>
        <pt x="205" y="54" on="0"/>
        <pt x="245" y="96" on="0"/>
        <pt x="252" y="129" on="1"/>
        <pt x="252" y="485" on="1"/>
        <pt x="220" y="574" on="0"/>
        <pt x="171" y="574" on="1"/>
        <pt x="127" y="574" on="0"/>
        <pt x="73" y="454" on="0"/>
        <pt x="73" y="313" on="1"/>
        <pt x="73" y="190" on="0"/>
        <pt x="128" y="54" on="0"/>
        <pt x="179" y="54" on="1"/>
      </contour>
    </TTGlyph>
    <TTGlyph name="Oacute" xMin="27" yMin="-11" xMax="473" yMax="791">
      <component glyphName="O" x="0" y="0" flags="0x0"/>
      <component glyphName="acutecomb.case" x="481" y="0" flags="0x0"/>
    </TTGlyph>
    <TTGlyph name="Obreve" xMin="27" yMin="-11" xMax="473" yMax="787">
      <component glyphName="O" x="0" y="0" flags="0x0"/>
      <component glyphName="uni0306.case" x="500" y="0" flags="0x0"/>
    </TTGlyph>
    <TTGlyph name="Ocircumflex" xMin="27" yMin="-11" xMax="473" yMax="791">
      <component glyphName="O" x="0" y="0" flags="0x0"/>
      <component glyphName="uni0302.case" x="500" y="0" flags="0x0"/>
    </TTGlyph>
    <TTGlyph name="Odieresis" xMin="27" yMin="-11" xMax="473" yMax="789">
      <component glyphName="O" x="0" y="0" flags="0x0"/>
      <component glyphName="uni0308.case" x="499" y="0" flags="0x0"/>
    </TTGlyph>
    <TTGlyph name="Ograve" xMin="27" yMin="-11" xMax="473" yMax="791">
      <component glyphName="O" x="0" y="0" flags="0x0"/>
      <component glyphName="gravecomb.case" x="436" y="0" flags="0x0"/>
    </TTGlyph>
    <TTGlyph name="Ohorn" xMin="27" yMin="-11" xMax="473" yMax="678">
      <contour>
        <pt x="473" y="456" on="0"/>
        <pt x="473" y="308" on="1"/>
        <pt x="473" y="155" on="0"/>
        <pt x="357" y="-11" on="0"/>
        <pt x="250" y="-11" on="1"/>
        <pt x="143" y="-11" on="0"/>
        <pt x="27" y="155" on="0"/>
        <pt x="27" y="308" on="1"/>
        <pt x="27" y="457" on="0"/>
        <pt x="144" y="627" on="0"/>
        <pt x="250" y="627" on="1"/>
        <pt x="324" y="627" on="0"/>
        <pt x="376" y="584" on="1"/>
        <pt x="392" y="586" on="0"/>
        <pt x="406" y="602" on="0"/>
        <pt x="410" y="638" on="0"/>
        <pt x="410" y="678" on="1"/>
        <pt x="468" y="678" on="1"/>
        <pt x="468" y="609" on="0"/>
        <pt x="448" y="548" on="0"/>
        <pt x="417" y="539" on="1"/>
      </contour>
      <contour>
        <pt x="322" y="50" on="0"/>
        <pt x="401" y="184" on="0"/>
        <pt x="401" y="308" on="1"/>
        <pt x="401" y="427" on="0"/>
        <pt x="321" y="566" on="0"/>
        <pt x="250" y="566" on="1"/>
        <pt x="179" y="566" on="0"/>
        <pt x="99" y="427" on="0"/>
        <pt x="99" y="308" on="1"/>
        <pt x="99" y="184" on="0"/>
        <pt x="178" y="50" on="0"/>
        <pt x="250" y="50" on="1"/>
      </contour>
    </TTGlyph>
    <TTGlyph name="Ohungarumlaut" xMin="27" yMin="-11" xMax="473" yMax="810">
      <component glyphName="O" x="0" y="0" flags="0x0"/>
      <component glyphName="uni030B.case" x="460" y="0" flags="0x0"/>
    </TTGlyph>
    <TTGlyph name="Omacron" xMin="27" yMin="-11" xMax="473" yMax="787">
      <component glyphName="O" x="0" y="0" flags="0x0"/>
      <component glyphName="uni0304" x="500" y="166" flags="0x4"/>
    </TTGlyph>
    <TTGlyph name="Oslash" xMin="27" yMin="-42" xMax="473" yMax="682">
      <contour>
        <pt x="437" y="516" on="0"/>
        <pt x="473" y="389" on="0"/>
        <pt x="473" y="308" on="1"/>
        <pt x="473" y="155" on="0"/>
        <pt x="357" y="-11" on="0"/>
        <pt x="250" y="-11" on="1"/>
        <pt x="175" y="-11" on="0"/>
        <pt x="123" y="30" on="1"/>
        <pt x="85" y="-42" on="1"/>
        <pt x="41" y="-22" on="1"/>
        <pt x="88" y="67" on="1"/>
        <pt x="27" y="149" on="0"/>
        <pt x="27" y="308" on="1"/>
        <pt x="27" y="457" on="0"/>
        <pt x="144" y="627" on="0"/>
        <pt x="250" y="627" on="1"/>
        <pt x="316" y="627" on="0"/>
        <pt x="368" y="591" on="1"/>
        <pt x="416" y="682" on="1"/>
        <pt x="458" y="660" on="1"/>
        <pt x="403" y="557" on="1"/>
      </contour>
      <contour>
        <pt x="99" y="205" on="0"/>
        <pt x="127" y="140" on="1"/>
        <pt x="335" y="530" on="1"/>
        <pt x="299" y="566" on="0"/>
        <pt x="250" y="566" on="1"/>
        <pt x="179" y="566" on="0"/>
        <pt x="99" y="427" on="0"/>
        <pt x="99" y="308" on="1"/>
      </contour>
      <contour>
        <pt x="322" y="50" on="0"/>
        <pt x="401" y="184" on="0"/>
        <pt x="401" y="308" on="1"/>
        <pt x="401" y="420" on="0"/>
        <pt x="366" y="487" on="1"/>
        <pt x="156" y="92" on="1"/>
        <pt x="194" y="50" on="0"/>
        <pt x="250" y="50" on="1"/>
      </contour>
    </TTGlyph>
    <TTGlyph name="Oslashacute" xMin="27" yMin="-42" xMax="473" yMax="791">
      <component glyphName="Oslash" x="0" y="0" flags="0x0"/>
      <component glyphName="acutecomb.case" x="481" y="0" flags="0x0"/>
    </TTGlyph>
    <TTGlyph name="Otilde" xMin="27" yMin="-11" xMax="473" yMax="797">
      <component glyphName="O" x="0" y="0" flags="0x0"/>
      <component glyphName="tildecomb.case" x="499" y="0" flags="0x0"/>
    </TTGlyph>
    <TTGlyph name="P" xMin="59" yMin="0" xMax="456" yMax="623">
      <contour>
        <pt x="59" y="623" on="1"/>
        <pt x="259" y="623" on="1"/>
        <pt x="358" y="623" on="0"/>
        <pt x="456" y="525" on="0"/>
        <pt x="456" y="447" on="1"/>
        <pt x="456" y="370" on="0"/>
        <pt x="360" y="275" on="0"/>
        <pt x="264" y="275" on="1"/>
        <pt x="131" y="275" on="1"/>
        <pt x="131" y="0" on="1"/>
        <pt x="59" y="0" on="1"/>
      </contour>
      <contour>
        <pt x="256" y="337" on="1"/>
        <pt x="322" y="337" on="0"/>
        <pt x="384" y="394" on="0"/>
        <pt x="384" y="445" on="1"/>
        <pt x="384" y="494" on="0"/>
        <pt x="320" y="557" on="0"/>
        <pt x="257" y="557" on="1"/>
        <pt x="131" y="557" on="1"/>
        <pt x="131" y="337" on="1"/>
      </contour>
    </TTGlyph>
    <TTGlyph name="Q" xMin="29" yMin="-149" xMax="473" yMax="630">
      <contour>
        <pt x="304" y="-149" on="0"/>
        <pt x="226" y="-86" on="0"/>
        <pt x="226" y="-7" on="1"/>
        <pt x="174" y="0" on="0"/>
        <pt x="84" y="75" on="0"/>
        <pt x="29" y="212" on="0"/>
        <pt x="29" y="308" on="1"/>
        <pt x="29" y="424" on="0"/>
        <pt x="97" y="568" on="0"/>
        <pt x="198" y="630" on="0"/>
        <pt x="251" y="630" on="1"/>
        <pt x="311" y="630" on="0"/>
        <pt x="413" y="562" on="0"/>
        <pt x="473" y="418" on="0"/>
        <pt x="471" y="311" on="1"/>
        <pt x="471" y="173" on="0"/>
        <pt x="378" y="13" on="0"/>
        <pt x="287" y="-7" on="1"/>
        <pt x="289" y="-44" on="0"/>
        <pt x="322" y="-82" on="0"/>
        <pt x="361" y="-82" on="1"/>
        <pt x="442" y="-77" on="1"/>
        <pt x="440" y="-145" on="1"/>
        <pt x="401" y="-145" on="1"/>
      </contour>
      <contour>
        <pt x="293" y="55" on="0"/>
        <pt x="360" y="104" on="0"/>
        <pt x="404" y="211" on="0"/>
        <pt x="404" y="294" on="1"/>
        <pt x="404" y="398" on="0"/>
        <pt x="357" y="520" on="0"/>
        <pt x="288" y="569" on="0"/>
        <pt x="251" y="569" on="1"/>
        <pt x="177" y="569" on="0"/>
        <pt x="97" y="426" on="0"/>
        <pt x="97" y="323" on="1"/>
        <pt x="97" y="203" on="0"/>
        <pt x="182" y="55" on="0"/>
        <pt x="256" y="55" on="1"/>
      </contour>
    </TTGlyph>
    <TTGlyph name="R" xMin="56" yMin="0" xMax="464" yMax="623">
      <contour>
        <pt x="56" y="623" on="1"/>
        <pt x="240" y="623" on="1"/>
        <pt x="346" y="623" on="0"/>
        <pt x="447" y="529" on="0"/>
        <pt x="447" y="445" on="1"/>
        <pt x="447" y="390" on="0"/>
        <pt x="376" y="292" on="0"/>
        <pt x="320" y="278" on="1"/>
        <pt x="464" y="0" on="1"/>
        <pt x="386" y="0" on="1"/>
        <pt x="248" y="275" on="1"/>
        <pt x="127" y="275" on="1"/>
        <pt x="127" y="0" on="1"/>
        <pt x="56" y="0" on="1"/>
      </contour>
      <contour>
        <pt x="248" y="337" on="1"/>
        <pt x="313" y="337" on="0"/>
        <pt x="375" y="394" on="0"/>
        <pt x="375" y="445" on="1"/>
        <pt x="375" y="495" on="0"/>
        <pt x="312" y="557" on="0"/>
        <pt x="248" y="557" on="1"/>
        <pt x="127" y="557" on="1"/>
        <pt x="127" y="337" on="1"/>
      </contour>
    </TTGlyph>
    <TTGlyph name="Racute" xMin="56" yMin="0" xMax="464" yMax="791">
      <component glyphName="R" x="0" y="0" flags="0x0"/>
      <component glyphName="acutecomb.case" x="481" y="0" flags="0x0"/>
    </TTGlyph>
    <TTGlyph name="Rcaron" xMin="56" yMin="0" xMax="464" yMax="791">
      <component glyphName="R" x="0" y="0" flags="0x0"/>
      <component glyphName="uni030C.case" x="500" y="0" flags="0x0"/>
    </TTGlyph>
    <TTGlyph name="Rcommaaccent" xMin="56" yMin="-275" xMax="464" yMax="623">
      <component glyphName="R" x="0" y="0" flags="0x0"/>
      <component glyphName="uni0326" x="514" y="0" flags="0x0"/>
    </TTGlyph>
    <TTGlyph name="S" xMin="52" yMin="-10" xMax="455" yMax="631">
      <contour>
        <pt x="126" y="-10" on="0"/>
        <pt x="52" y="69" on="1"/>
        <pt x="88" y="132" on="1"/>
        <pt x="92" y="141" on="1"/>
        <pt x="99" y="137" on="1"/>
        <pt x="100" y="134" on="0"/>
        <pt x="103" y="120" on="0"/>
        <pt x="110" y="107" on="0"/>
        <pt x="118" y="101" on="1"/>
        <pt x="174" y="53" on="0"/>
        <pt x="257" y="53" on="1"/>
        <pt x="312" y="53" on="0"/>
        <pt x="386" y="115" on="0"/>
        <pt x="386" y="160" on="1"/>
        <pt x="386" y="189" on="0"/>
        <pt x="363" y="228" on="0"/>
        <pt x="303" y="266" on="0"/>
        <pt x="243" y="292" on="1"/>
        <pt x="151" y="328" on="0"/>
        <pt x="72" y="420" on="0"/>
        <pt x="72" y="477" on="1"/>
        <pt x="72" y="547" on="0"/>
        <pt x="174" y="631" on="0"/>
        <pt x="262" y="631" on="1"/>
        <pt x="313" y="631" on="0"/>
        <pt x="402" y="590" on="0"/>
        <pt x="435" y="553" on="1"/>
        <pt x="390" y="493" on="1"/>
        <pt x="384" y="497" on="1"/>
        <pt x="384" y="499" on="0"/>
        <pt x="381" y="513" on="0"/>
        <pt x="373" y="526" on="0"/>
        <pt x="366" y="533" on="1"/>
        <pt x="343" y="555" on="0"/>
        <pt x="289" y="573" on="0"/>
        <pt x="251" y="573" on="1"/>
        <pt x="203" y="573" on="0"/>
        <pt x="144" y="520" on="0"/>
        <pt x="144" y="482" on="1"/>
        <pt x="144" y="453" on="0"/>
        <pt x="169" y="410" on="0"/>
        <pt x="235" y="369" on="0"/>
        <pt x="298" y="344" on="1"/>
        <pt x="387" y="307" on="0"/>
        <pt x="455" y="229" on="0"/>
        <pt x="455" y="170" on="1"/>
        <pt x="455" y="124" on="0"/>
        <pt x="410" y="42" on="0"/>
        <pt x="316" y="-10" on="0"/>
        <pt x="247" y="-10" on="1"/>
      </contour>
    </TTGlyph>
    <TTGlyph name="Sacute" xMin="52" yMin="-10" xMax="455" yMax="791">
      <component glyphName="S" x="0" y="0" flags="0x0"/>
      <component glyphName="acutecomb.case" x="492" y="0" flags="0x0"/>
    </TTGlyph>
    <TTGlyph name="Scaron" xMin="52" yMin="-10" xMax="455" yMax="791">
      <component glyphName="S" x="0" y="0" flags="0x0"/>
      <component glyphName="uni030C.case" x="511" y="0" flags="0x0"/>
    </TTGlyph>
    <TTGlyph name="Scedilla" xMin="52" yMin="-197" xMax="455" yMax="631">
      <contour>
        <pt x="455" y="128" on="0"/>
        <pt x="417" y="52" on="0"/>
        <pt x="338" y="-2" on="0"/>
        <pt x="280" y="-8" on="1"/>
        <pt x="275" y="-47" on="1"/>
        <pt x="317" y="-51" on="0"/>
        <pt x="360" y="-88" on="0"/>
        <pt x="360" y="-112" on="1"/>
        <pt x="360" y="-148" on="0"/>
        <pt x="300" y="-197" on="0"/>
        <pt x="244" y="-197" on="1"/>
        <pt x="191" y="-197" on="0"/>
        <pt x="145" y="-166" on="1"/>
        <pt x="170" y="-124" on="1"/>
        <pt x="208" y="-154" on="0"/>
        <pt x="257" y="-154" on="1"/>
        <pt x="307" y="-154" on="0"/>
        <pt x="307" y="-118" on="1"/>
        <pt x="307" y="-102" on="0"/>
        <pt x="280" y="-85" on="0"/>
        <pt x="256" y="-85" on="1"/>
        <pt x="226" y="-85" on="1"/>
        <pt x="236" y="-10" on="1"/>
        <pt x="122" y="-6" on="0"/>
        <pt x="52" y="69" on="1"/>
        <pt x="88" y="132" on="1"/>
        <pt x="92" y="141" on="1"/>
        <pt x="99" y="137" on="1"/>
        <pt x="100" y="134" on="0"/>
        <pt x="103" y="120" on="0"/>
        <pt x="110" y="107" on="0"/>
        <pt x="118" y="101" on="1"/>
        <pt x="174" y="53" on="0"/>
        <pt x="257" y="53" on="1"/>
        <pt x="312" y="53" on="0"/>
        <pt x="386" y="115" on="0"/>
        <pt x="386" y="160" on="1"/>
        <pt x="386" y="189" on="0"/>
        <pt x="363" y="228" on="0"/>
        <pt x="303" y="266" on="0"/>
        <pt x="243" y="292" on="1"/>
        <pt x="151" y="328" on="0"/>
        <pt x="72" y="420" on="0"/>
        <pt x="72" y="477" on="1"/>
        <pt x="72" y="547" on="0"/>
        <pt x="174" y="631" on="0"/>
        <pt x="262" y="631" on="1"/>
        <pt x="313" y="631" on="0"/>
        <pt x="402" y="590" on="0"/>
        <pt x="435" y="553" on="1"/>
        <pt x="390" y="493" on="1"/>
        <pt x="384" y="497" on="1"/>
        <pt x="384" y="499" on="0"/>
        <pt x="381" y="513" on="0"/>
        <pt x="373" y="526" on="0"/>
        <pt x="366" y="533" on="1"/>
        <pt x="343" y="555" on="0"/>
        <pt x="289" y="573" on="0"/>
        <pt x="251" y="573" on="1"/>
        <pt x="203" y="573" on="0"/>
        <pt x="144" y="520" on="0"/>
        <pt x="144" y="482" on="1"/>
        <pt x="144" y="453" on="0"/>
        <pt x="169" y="410" on="0"/>
        <pt x="235" y="369" on="0"/>
        <pt x="298" y="344" on="1"/>
        <pt x="387" y="307" on="0"/>
        <pt x="455" y="229" on="0"/>
        <pt x="455" y="170" on="1"/>
      </contour>
    </TTGlyph>
    <TTGlyph name="Scircumflex" xMin="52" yMin="-10" xMax="455" yMax="791">
      <component glyphName="S" x="0" y="0" flags="0x0"/>
      <component glyphName="uni0302.case" x="511" y="0" flags="0x0"/>
    </TTGlyph>
    <TTGlyph name="Scommaaccent" xMin="52" yMin="-275" xMax="455" yMax="631">
      <component glyphName="S" x="0" y="0" flags="0x0"/>
      <component glyphName="uni0326" x="511" y="0" flags="0x0"/>
    </TTGlyph>
    <TTGlyph name="T" xMin="31" yMin="0" xMax="463" yMax="624">
      <contour>
        <pt x="208" y="561" on="1"/>
        <pt x="31" y="561" on="1"/>
        <pt x="31" y="624" on="1"/>
        <pt x="463" y="624" on="1"/>
        <pt x="463" y="561" on="1"/>
        <pt x="279" y="561" on="1"/>
        <pt x="279" y="0" on="1"/>
        <pt x="208" y="0" on="1"/>
      </contour>
    </TTGlyph>
    <TTGlyph name="Tbar" xMin="31" yMin="0" xMax="463" yMax="624">
      <contour>
        <pt x="279" y="561" on="1"/>
        <pt x="279" y="340" on="1"/>
        <pt x="412" y="340" on="1"/>
        <pt x="412" y="283" on="1"/>
        <pt x="279" y="283" on="1"/>
        <pt x="279" y="0" on="1"/>
        <pt x="208" y="0" on="1"/>
        <pt x="208" y="283" on="1"/>
        <pt x="88" y="283" on="1"/>
        <pt x="88" y="340" on="1"/>
        <pt x="208" y="340" on="1"/>
        <pt x="208" y="561" on="1"/>
        <pt x="31" y="561" on="1"/>
        <pt x="31" y="624" on="1"/>
        <pt x="463" y="624" on="1"/>
        <pt x="463" y="561" on="1"/>
      </contour>
    </TTGlyph>
    <TTGlyph name="Tcaron" xMin="31" yMin="0" xMax="463" yMax="791">
      <component glyphName="T" x="0" y="0" flags="0x0"/>
      <component glyphName="uni030C.case" x="500" y="0" flags="0x0"/>
    </TTGlyph>
    <TTGlyph name="Thorn" xMin="59" yMin="0" xMax="456" yMax="623">
      <contour>
        <pt x="59" y="623" on="1"/>
        <pt x="137" y="623" on="1"/>
        <pt x="139" y="621" on="0"/>
        <pt x="139" y="620" on="1"/>
        <pt x="139" y="618" on="0"/>
        <pt x="131" y="602" on="0"/>
        <pt x="129" y="595" on="1"/>
        <pt x="129" y="506" on="1"/>
        <pt x="259" y="506" on="1"/>
        <pt x="357" y="506" on="0"/>
        <pt x="452" y="409" on="0"/>
        <pt x="456" y="330" on="1"/>
        <pt x="452" y="252" on="0"/>
        <pt x="360" y="158" on="0"/>
        <pt x="264" y="158" on="1"/>
        <pt x="129" y="158" on="1"/>
        <pt x="129" y="0" on="1"/>
        <pt x="59" y="0" on="1"/>
      </contour>
      <contour>
        <pt x="264" y="219" on="1"/>
        <pt x="375" y="219" on="0"/>
        <pt x="384" y="328" on="1"/>
        <pt x="380" y="378" on="0"/>
        <pt x="319" y="440" on="0"/>
        <pt x="257" y="440" on="1"/>
        <pt x="129" y="440" on="1"/>
        <pt x="129" y="219" on="1"/>
      </contour>
    </TTGlyph>
    <TTGlyph name="U" xMin="50" yMin="-11" xMax="454" yMax="623">
      <contour>
        <pt x="152" y="-11" on="0"/>
        <pt x="50" y="107" on="0"/>
        <pt x="50" y="215" on="1"/>
        <pt x="50" y="623" on="1"/>
        <pt x="128" y="623" on="1"/>
        <pt x="128" y="616" on="1"/>
        <pt x="122" y="610" on="0"/>
        <pt x="119" y="596" on="0"/>
        <pt x="119" y="579" on="1"/>
        <pt x="119" y="214" on="1"/>
        <pt x="119" y="134" on="0"/>
        <pt x="181" y="48" on="0"/>
        <pt x="252" y="48" on="1"/>
        <pt x="324" y="48" on="0"/>
        <pt x="387" y="134" on="0"/>
        <pt x="387" y="217" on="1"/>
        <pt x="387" y="623" on="1"/>
        <pt x="454" y="623" on="1"/>
        <pt x="454" y="218" on="1"/>
        <pt x="454" y="103" on="0"/>
        <pt x="347" y="-11" on="0"/>
        <pt x="251" y="-11" on="1"/>
      </contour>
    </TTGlyph>
    <TTGlyph name="U.i" xMin="45" yMin="-11" xMax="409" yMax="623">
      <contour>
        <pt x="137" y="-11" on="0"/>
        <pt x="45" y="106" on="0"/>
        <pt x="45" y="215" on="1"/>
        <pt x="45" y="623" on="1"/>
        <pt x="115" y="623" on="1"/>
        <pt x="115" y="616" on="1"/>
        <pt x="110" y="610" on="0"/>
        <pt x="107" y="596" on="0"/>
        <pt x="107" y="579" on="1"/>
        <pt x="107" y="214" on="1"/>
        <pt x="107" y="134" on="0"/>
        <pt x="163" y="48" on="0"/>
        <pt x="227" y="48" on="1"/>
        <pt x="292" y="48" on="0"/>
        <pt x="348" y="134" on="0"/>
        <pt x="348" y="217" on="1"/>
        <pt x="348" y="623" on="1"/>
        <pt x="409" y="623" on="1"/>
        <pt x="409" y="218" on="1"/>
        <pt x="409" y="103" on="0"/>
        <pt x="312" y="-11" on="0"/>
        <pt x="226" y="-11" on="1"/>
      </contour>
    </TTGlyph>
    <TTGlyph name="Uacute" xMin="50" yMin="-11" xMax="454" yMax="791">
      <component glyphName="U" x="0" y="0" flags="0x0"/>
      <component glyphName="acutecomb.case" x="481" y="0" flags="0x0"/>
    </TTGlyph>
    <TTGlyph name="Ubreve" xMin="50" yMin="-11" xMax="454" yMax="787">
      <component glyphName="U" x="0" y="0" flags="0x0"/>
      <component glyphName="uni0306.case" x="500" y="0" flags="0x0"/>
    </TTGlyph>
    <TTGlyph name="Ucircumflex" xMin="50" yMin="-11" xMax="454" yMax="791">
      <component glyphName="U" x="0" y="0" flags="0x0"/>
      <component glyphName="uni0302.case" x="500" y="0" flags="0x0"/>
    </TTGlyph>
    <TTGlyph name="Udieresis" xMin="50" yMin="-11" xMax="454" yMax="789">
      <component glyphName="U" x="0" y="0" flags="0x0"/>
      <component glyphName="uni0308.case" x="499" y="0" flags="0x0"/>
    </TTGlyph>
    <TTGlyph name="Ugrave" xMin="50" yMin="-11" xMax="454" yMax="791">
      <component glyphName="U" x="0" y="0" flags="0x0"/>
      <component glyphName="gravecomb.case" x="436" y="0" flags="0x0"/>
    </TTGlyph>
    <TTGlyph name="Uhorn" xMin="45" yMin="-11" xMax="497" yMax="717">
      <contour>
        <pt x="497" y="660" on="0"/>
        <pt x="485" y="601" on="0"/>
        <pt x="448" y="574" on="0"/>
        <pt x="409" y="574" on="1"/>
        <pt x="409" y="218" on="1"/>
        <pt x="409" y="103" on="0"/>
        <pt x="312" y="-11" on="0"/>
        <pt x="226" y="-11" on="1"/>
        <pt x="137" y="-11" on="0"/>
        <pt x="45" y="106" on="0"/>
        <pt x="45" y="215" on="1"/>
        <pt x="45" y="623" on="1"/>
        <pt x="115" y="623" on="1"/>
        <pt x="115" y="616" on="1"/>
        <pt x="110" y="610" on="0"/>
        <pt x="107" y="596" on="0"/>
        <pt x="107" y="579" on="1"/>
        <pt x="107" y="214" on="1"/>
        <pt x="107" y="134" on="0"/>
        <pt x="163" y="48" on="0"/>
        <pt x="227" y="48" on="1"/>
        <pt x="292" y="48" on="0"/>
        <pt x="348" y="134" on="0"/>
        <pt x="348" y="217" on="1"/>
        <pt x="348" y="623" on="1"/>
        <pt x="398" y="623" on="1"/>
        <pt x="417" y="623" on="0"/>
        <pt x="434" y="638" on="0"/>
        <pt x="439" y="675" on="0"/>
        <pt x="439" y="717" on="1"/>
        <pt x="497" y="717" on="1"/>
      </contour>
    </TTGlyph>
    <TTGlyph name="Uhungarumlaut" xMin="50" yMin="-11" xMax="454" yMax="810">
      <component glyphName="U" x="0" y="0" flags="0x0"/>
      <component glyphName="uni030B.case" x="460" y="0" flags="0x0"/>
    </TTGlyph>
    <TTGlyph name="Umacron" xMin="50" yMin="-11" xMax="454" yMax="787">
      <component glyphName="U" x="0" y="0" flags="0x0"/>
      <component glyphName="uni0304" x="500" y="166" flags="0x4"/>
    </TTGlyph>
    <TTGlyph name="Uogonek" xMin="50" yMin="-217" xMax="454" yMax="623">
      <contour>
        <pt x="454" y="623" on="1"/>
        <pt x="454" y="218" on="1"/>
        <pt x="454" y="138" on="0"/>
        <pt x="401" y="34" on="0"/>
        <pt x="352" y="10" on="1"/>
        <pt x="314" y="-20" on="0"/>
        <pt x="270" y="-86" on="0"/>
        <pt x="270" y="-113" on="1"/>
        <pt x="270" y="-135" on="0"/>
        <pt x="301" y="-165" on="0"/>
        <pt x="332" y="-169" on="1"/>
        <pt x="316" y="-217" on="1"/>
        <pt x="265" y="-210" on="0"/>
        <pt x="204" y="-164" on="0"/>
        <pt x="204" y="-127" on="1"/>
        <pt x="204" y="-98" on="0"/>
        <pt x="239" y="-38" on="0"/>
        <pt x="272" y="-10" on="1"/>
        <pt x="265" y="-11" on="0"/>
        <pt x="251" y="-11" on="1"/>
        <pt x="152" y="-11" on="0"/>
        <pt x="50" y="107" on="0"/>
        <pt x="50" y="215" on="1"/>
        <pt x="50" y="623" on="1"/>
        <pt x="128" y="623" on="1"/>
        <pt x="128" y="616" on="1"/>
        <pt x="122" y="610" on="0"/>
        <pt x="119" y="596" on="0"/>
        <pt x="119" y="579" on="1"/>
        <pt x="119" y="214" on="1"/>
        <pt x="119" y="134" on="0"/>
        <pt x="181" y="48" on="0"/>
        <pt x="252" y="48" on="1"/>
        <pt x="324" y="48" on="0"/>
        <pt x="387" y="134" on="0"/>
        <pt x="387" y="217" on="1"/>
        <pt x="387" y="623" on="1"/>
      </contour>
    </TTGlyph>
    <TTGlyph name="Uring" xMin="50" yMin="-11" xMax="454" yMax="795">
      <component glyphName="U" x="0" y="0" flags="0x0"/>
      <component glyphName="uni030A.case" x="499" y="0" flags="0x0"/>
    </TTGlyph>
    <TTGlyph name="Utilde" xMin="50" yMin="-11" xMax="454" yMax="797">
      <component glyphName="U" x="0" y="0" flags="0x0"/>
      <component glyphName="tildecomb.case" x="499" y="0" flags="0x0"/>
    </TTGlyph>
    <TTGlyph name="V" xMin="25" yMin="-4" xMax="478" yMax="624">
      <contour>
        <pt x="25" y="624" on="1"/>
        <pt x="98" y="624" on="1"/>
        <pt x="258" y="145" on="1"/>
        <pt x="409" y="623" on="1"/>
        <pt x="478" y="623" on="1"/>
        <pt x="269" y="-4" on="1"/>
        <pt x="237" y="-4" on="1"/>
      </contour>
    </TTGlyph>
    <TTGlyph name="W" xMin="17" yMin="0" xMax="488" yMax="623">
      <contour>
        <pt x="17" y="623" on="1"/>
        <pt x="82" y="623" on="1"/>
        <pt x="149" y="202" on="1"/>
        <pt x="249" y="577" on="1"/>
        <pt x="271" y="577" on="1"/>
        <pt x="372" y="200" on="1"/>
        <pt x="429" y="623" on="1"/>
        <pt x="488" y="623" on="1"/>
        <pt x="389" y="0" on="1"/>
        <pt x="362" y="0" on="1"/>
        <pt x="255" y="407" on="1"/>
        <pt x="146" y="0" on="1"/>
        <pt x="117" y="0" on="1"/>
      </contour>
    </TTGlyph>
    <TTGlyph name="Wacute" xMin="17" yMin="0" xMax="488" yMax="791">
      <component glyphName="W" x="0" y="0" flags="0x0"/>
      <component glyphName="acutecomb.case" x="491" y="0" flags="0x0"/>
    </TTGlyph>
    <TTGlyph name="Wcircumflex" xMin="17" yMin="0" xMax="488" yMax="791">
      <component glyphName="W" x="0" y="0" flags="0x0"/>
      <component glyphName="uni0302.case" x="510" y="0" flags="0x0"/>
    </TTGlyph>
    <TTGlyph name="Wdieresis" xMin="17" yMin="0" xMax="488" yMax="789">
      <component glyphName="W" x="0" y="0" flags="0x0"/>
      <component glyphName="uni0308.case" x="509" y="0" flags="0x0"/>
    </TTGlyph>
    <TTGlyph name="Wgrave" xMin="17" yMin="0" xMax="488" yMax="791">
      <component glyphName="W" x="0" y="0" flags="0x0"/>
      <component glyphName="gravecomb.case" x="446" y="0" flags="0x0"/>
    </TTGlyph>
    <TTGlyph name="X" xMin="41" yMin="0" xMax="468" yMax="624">
      <contour>
        <pt x="211" y="318" on="1"/>
        <pt x="44" y="624" on="1"/>
        <pt x="119" y="624" on="1"/>
        <pt x="250" y="387" on="1"/>
        <pt x="379" y="624" on="1"/>
        <pt x="449" y="624" on="1"/>
        <pt x="291" y="319" on="1"/>
        <pt x="468" y="0" on="1"/>
        <pt x="389" y="0" on="1"/>
        <pt x="251" y="247" on="1"/>
        <pt x="117" y="0" on="1"/>
        <pt x="41" y="0" on="1"/>
      </contour>
    </TTGlyph>
    <TTGlyph name="Y" xMin="28" yMin="0" xMax="473" yMax="623">
      <contour>
        <pt x="220" y="246" on="1"/>
        <pt x="28" y="623" on="1"/>
        <pt x="108" y="623" on="1"/>
        <pt x="261" y="321" on="1"/>
        <pt x="399" y="623" on="1"/>
        <pt x="473" y="623" on="1"/>
        <pt x="296" y="246" on="1"/>
        <pt x="296" y="0" on="1"/>
        <pt x="220" y="0" on="1"/>
      </contour>
    </TTGlyph>
    <TTGlyph name="Yacute" xMin="28" yMin="0" xMax="473" yMax="791">
      <component glyphName="Y" x="0" y="0" flags="0x0"/>
      <component glyphName="acutecomb.case" x="481" y="0" flags="0x0"/>
    </TTGlyph>
    <TTGlyph name="Ycircumflex" xMin="28" yMin="0" xMax="473" yMax="791">
      <component glyphName="Y" x="0" y="0" flags="0x0"/>
      <component glyphName="uni0302.case" x="500" y="0" flags="0x0"/>
    </TTGlyph>
    <TTGlyph name="Ydieresis" xMin="28" yMin="0" xMax="473" yMax="789">
      <component glyphName="Y" x="0" y="0" flags="0x0"/>
      <component glyphName="uni0308.case" x="499" y="0" flags="0x0"/>
    </TTGlyph>
    <TTGlyph name="Ygrave" xMin="28" yMin="0" xMax="473" yMax="791">
      <component glyphName="Y" x="0" y="0" flags="0x0"/>
      <component glyphName="gravecomb.case" x="436" y="0" flags="0x0"/>
    </TTGlyph>
    <TTGlyph name="Z" xMin="50" yMin="0" xMax="463" yMax="623">
      <contour>
        <pt x="50" y="49" on="1"/>
        <pt x="364" y="560" on="1"/>
        <pt x="62" y="560" on="1"/>
        <pt x="62" y="623" on="1"/>
        <pt x="447" y="623" on="1"/>
        <pt x="447" y="574" on="1"/>
        <pt x="138" y="62" on="1"/>
        <pt x="419" y="62" on="1"/>
        <pt x="435" y="62" on="0"/>
        <pt x="450" y="66" on="0"/>
        <pt x="456" y="72" on="1"/>
        <pt x="463" y="72" on="1"/>
        <pt x="463" y="0" on="1"/>
        <pt x="50" y="0" on="1"/>
      </contour>
    </TTGlyph>
    <TTGlyph name="Zacute" xMin="50" yMin="0" xMax="463" yMax="791">
      <component glyphName="Z" x="0" y="0" flags="0x0"/>
      <component glyphName="acutecomb.case" x="491" y="0" flags="0x0"/>
    </TTGlyph>
    <TTGlyph name="Zcaron" xMin="50" yMin="0" xMax="463" yMax="791">
      <component glyphName="Z" x="0" y="0" flags="0x0"/>
      <component glyphName="uni030C.case" x="510" y="0" flags="0x0"/>
    </TTGlyph>
    <TTGlyph name="Zdotaccent" xMin="50" yMin="0" xMax="463" yMax="791">
      <component glyphName="Z" x="0" y="0" flags="0x0"/>
      <component glyphName="uni0307.case" x="459" y="0" flags="0x0"/>
    </TTGlyph>
    <TTGlyph name="a" xMin="49" yMin="-11" xMax="445" yMax="467">
      <contour>
        <pt x="342" y="467" on="0"/>
        <pt x="445" y="365" on="0"/>
        <pt x="445" y="243" on="1"/>
        <pt x="445" y="0" on="1"/>
        <pt x="367" y="0" on="1"/>
        <pt x="367" y="70" on="1"/>
        <pt x="325" y="-11" on="0"/>
        <pt x="211" y="-11" on="1"/>
        <pt x="135" y="-11" on="0"/>
        <pt x="49" y="58" on="0"/>
        <pt x="49" y="115" on="1"/>
        <pt x="49" y="163" on="0"/>
        <pt x="111" y="235" on="0"/>
        <pt x="216" y="274" on="0"/>
        <pt x="279" y="274" on="1"/>
        <pt x="336" y="274" on="0"/>
        <pt x="382" y="268" on="1"/>
        <pt x="376" y="345" on="0"/>
        <pt x="307" y="408" on="0"/>
        <pt x="239" y="408" on="1"/>
        <pt x="205" y="408" on="0"/>
        <pt x="142" y="382" on="0"/>
        <pt x="116" y="357" on="1"/>
        <pt x="81" y="403" on="1"/>
        <pt x="145" y="467" on="0"/>
        <pt x="244" y="467" on="1"/>
      </contour>
      <contour>
        <pt x="292" y="44" on="0"/>
        <pt x="378" y="131" on="0"/>
        <pt x="382" y="213" on="1"/>
        <pt x="337" y="220" on="0"/>
        <pt x="285" y="220" on="1"/>
        <pt x="209" y="220" on="0"/>
        <pt x="121" y="170" on="0"/>
        <pt x="121" y="119" on="1"/>
        <pt x="121" y="44" on="0"/>
        <pt x="218" y="44" on="1"/>
      </contour>
    </TTGlyph>
    <TTGlyph name="aacute" xMin="49" yMin="-11" xMax="445" yMax="682">
      <component glyphName="a" x="0" y="0" flags="0x0"/>
      <component glyphName="acutecomb" x="489" y="0" flags="0x0"/>
    </TTGlyph>
    <TTGlyph name="abreve" xMin="49" yMin="-11" xMax="445" yMax="654">
      <component glyphName="a" x="0" y="0" flags="0x0"/>
      <component glyphName="uni0306" x="492" y="0" flags="0x0"/>
    </TTGlyph>
    <TTGlyph name="acircumflex" xMin="49" yMin="-11" xMax="445" yMax="685">
      <component glyphName="a" x="0" y="0" flags="0x0"/>
      <component glyphName="uni0302" x="500" y="0" flags="0x0"/>
    </TTGlyph>
    <TTGlyph name="acute" xMin="216" yMin="522" xMax="355" yMax="697">
      <contour>
        <pt x="216" y="548" on="1"/>
        <pt x="300" y="697" on="1"/>
        <pt x="355" y="657" on="1"/>
        <pt x="254" y="522" on="1"/>
      </contour>
    </TTGlyph>
    <TTGlyph name="acute.case" xMin="173" yMin="660" xMax="365" yMax="791">
      <contour>
        <pt x="173" y="702" on="1"/>
        <pt x="325" y="791" on="1"/>
        <pt x="365" y="721" on="1"/>
        <pt x="196" y="660" on="1"/>
      </contour>
    </TTGlyph>
    <TTGlyph name="acutecomb" xMin="-284" yMin="507" xMax="-145" yMax="682">
      <contour>
        <pt x="-284" y="533" on="1"/>
        <pt x="-200" y="682" on="1"/>
        <pt x="-145" y="642" on="1"/>
        <pt x="-246" y="507" on="1"/>
      </contour>
    </TTGlyph>
    <TTGlyph name="acutecomb.case" xMin="-327" yMin="660" xMax="-135" yMax="791">
      <contour>
        <pt x="-327" y="702" on="1"/>
        <pt x="-175" y="791" on="1"/>
        <pt x="-135" y="721" on="1"/>
        <pt x="-304" y="660" on="1"/>
      </contour>
    </TTGlyph>
    <TTGlyph name="adieresis" xMin="49" yMin="-11" xMax="445" yMax="665">
      <component glyphName="a" x="0" y="0" flags="0x0"/>
      <component glyphName="uni0308" x="499" y="0" flags="0x0"/>
    </TTGlyph>
    <TTGlyph name="ae" xMin="10" yMin="-11" xMax="494" yMax="467">
      <contour>
        <pt x="75" y="-11" on="0"/>
        <pt x="10" y="63" on="0"/>
        <pt x="10" y="123" on="1"/>
        <pt x="10" y="196" on="0"/>
        <pt x="116" y="275" on="0"/>
        <pt x="221" y="279" on="1"/>
        <pt x="221" y="346" on="0"/>
        <pt x="183" y="411" on="0"/>
        <pt x="142" y="411" on="1"/>
        <pt x="97" y="411" on="0"/>
        <pt x="66" y="368" on="1"/>
        <pt x="31" y="412" on="1"/>
        <pt x="74" y="467" on="0"/>
        <pt x="147" y="467" on="1"/>
        <pt x="183" y="467" on="0"/>
        <pt x="242" y="434" on="0"/>
        <pt x="258" y="405" on="1"/>
        <pt x="275" y="434" on="0"/>
        <pt x="332" y="467" on="0"/>
        <pt x="362" y="467" on="1"/>
        <pt x="490" y="467" on="0"/>
        <pt x="490" y="268" on="1"/>
        <pt x="490" y="230" on="1"/>
        <pt x="282" y="223" on="1"/>
        <pt x="282" y="175" on="1"/>
        <pt x="282" y="117" on="0"/>
        <pt x="338" y="47" on="0"/>
        <pt x="386" y="47" on="1"/>
        <pt x="432" y="47" on="0"/>
        <pt x="459" y="84" on="1"/>
        <pt x="494" y="42" on="1"/>
        <pt x="450" y="-11" on="0"/>
        <pt x="380" y="-11" on="1"/>
        <pt x="342" y="-11" on="0"/>
        <pt x="275" y="26" on="0"/>
        <pt x="255" y="58" on="1"/>
        <pt x="238" y="26" on="0"/>
        <pt x="178" y="-11" on="0"/>
        <pt x="142" y="-11" on="1"/>
      </contour>
      <contour>
        <pt x="432" y="284" on="1"/>
        <pt x="432" y="348" on="0"/>
        <pt x="399" y="411" on="0"/>
        <pt x="362" y="411" on="1"/>
        <pt x="324" y="411" on="0"/>
        <pt x="282" y="342" on="0"/>
        <pt x="282" y="279" on="1"/>
      </contour>
      <contour>
        <pt x="192" y="50" on="0"/>
        <pt x="221" y="135" on="0"/>
        <pt x="221" y="219" on="1"/>
        <pt x="139" y="215" on="0"/>
        <pt x="74" y="174" on="0"/>
        <pt x="74" y="122" on="1"/>
        <pt x="74" y="82" on="0"/>
        <pt x="108" y="50" on="0"/>
        <pt x="144" y="50" on="1"/>
      </contour>
    </TTGlyph>
    <TTGlyph name="aeacute" xMin="10" yMin="-11" xMax="494" yMax="682">
      <component glyphName="ae" x="0" y="0" flags="0x0"/>
      <component glyphName="acutecomb" x="500" y="0" flags="0x0"/>
    </TTGlyph>
    <TTGlyph name="agrave" xMin="49" yMin="-11" xMax="445" yMax="682">
      <component glyphName="a" x="0" y="0" flags="0x0"/>
      <component glyphName="gravecomb" x="489" y="0" flags="0x0"/>
    </TTGlyph>
    <TTGlyph name="amacron" xMin="49" yMin="-11" xMax="445" yMax="621">
      <component glyphName="a" x="0" y="0" flags="0x0"/>
      <component glyphName="uni0304" x="500" y="0" flags="0x0"/>
    </TTGlyph>
    <TTGlyph name="ampersand" xMin="36" yMin="-12" xMax="481" yMax="629">
      <contour>
        <pt x="361" y="76" on="1"/>
        <pt x="330" y="36" on="0"/>
        <pt x="240" y="-10" on="0"/>
        <pt x="192" y="-10" on="1"/>
        <pt x="148" y="-10" on="0"/>
        <pt x="76" y="31" on="0"/>
        <pt x="36" y="100" on="0"/>
        <pt x="36" y="141" on="1"/>
        <pt x="36" y="203" on="0"/>
        <pt x="104" y="310" on="0"/>
        <pt x="162" y="343" on="1"/>
        <pt x="91" y="429" on="0"/>
        <pt x="91" y="498" on="1"/>
        <pt x="91" y="535" on="0"/>
        <pt x="128" y="595" on="0"/>
        <pt x="191" y="629" on="0"/>
        <pt x="228" y="629" on="1"/>
        <pt x="267" y="629" on="0"/>
        <pt x="329" y="592" on="0"/>
        <pt x="363" y="532" on="0"/>
        <pt x="363" y="498" on="1"/>
        <pt x="363" y="449" on="0"/>
        <pt x="302" y="351" on="0"/>
        <pt x="255" y="330" on="1"/>
        <pt x="367" y="173" on="1"/>
        <pt x="391" y="202" on="0"/>
        <pt x="410" y="245" on="0"/>
        <pt x="412" y="274" on="1"/>
        <pt x="412" y="280" on="0"/>
        <pt x="416" y="284" on="1"/>
        <pt x="481" y="239" on="1"/>
        <pt x="444" y="174" on="0"/>
        <pt x="405" y="123" on="1"/>
        <pt x="475" y="32" on="1"/>
        <pt x="416" y="-12" on="1"/>
      </contour>
      <contour>
        <pt x="256" y="390" on="0"/>
        <pt x="297" y="458" on="0"/>
        <pt x="297" y="492" on="1"/>
        <pt x="297" y="525" on="0"/>
        <pt x="256" y="570" on="0"/>
        <pt x="229" y="570" on="1"/>
        <pt x="200" y="570" on="0"/>
        <pt x="160" y="529" on="0"/>
        <pt x="160" y="497" on="1"/>
        <pt x="160" y="449" on="0"/>
        <pt x="221" y="373" on="1"/>
      </contour>
      <contour>
        <pt x="263" y="54" on="0"/>
        <pt x="324" y="123" on="1"/>
        <pt x="197" y="296" on="1"/>
        <pt x="158" y="272" on="0"/>
        <pt x="112" y="192" on="0"/>
        <pt x="112" y="152" on="1"/>
        <pt x="112" y="111" on="0"/>
        <pt x="163" y="54" on="0"/>
        <pt x="199" y="54" on="1"/>
      </contour>
    </TTGlyph>
    <TTGlyph name="aogonek" xMin="49" yMin="-176" xMax="445" yMax="467">
      <contour>
        <pt x="338" y="-75" on="0"/>
        <pt x="338" y="-102" on="1"/>
        <pt x="338" y="-114" on="0"/>
        <pt x="354" y="-130" on="0"/>
        <pt x="366" y="-130" on="1"/>
        <pt x="395" y="-130" on="0"/>
        <pt x="424" y="-107" on="1"/>
        <pt x="424" y="-153" on="1"/>
        <pt x="395" y="-176" on="0"/>
        <pt x="357" y="-176" on="1"/>
        <pt x="318" y="-176" on="0"/>
        <pt x="276" y="-142" on="0"/>
        <pt x="276" y="-115" on="1"/>
        <pt x="276" y="-65" on="0"/>
        <pt x="356" y="0" on="1"/>
        <pt x="367" y="0" on="1"/>
        <pt x="367" y="70" on="1"/>
        <pt x="325" y="-11" on="0"/>
        <pt x="211" y="-11" on="1"/>
        <pt x="135" y="-11" on="0"/>
        <pt x="49" y="58" on="0"/>
        <pt x="49" y="115" on="1"/>
        <pt x="49" y="163" on="0"/>
        <pt x="111" y="235" on="0"/>
        <pt x="216" y="274" on="0"/>
        <pt x="279" y="274" on="1"/>
        <pt x="336" y="274" on="0"/>
        <pt x="382" y="268" on="1"/>
        <pt x="376" y="345" on="0"/>
        <pt x="307" y="408" on="0"/>
        <pt x="239" y="408" on="1"/>
        <pt x="205" y="408" on="0"/>
        <pt x="142" y="382" on="0"/>
        <pt x="116" y="357" on="1"/>
        <pt x="81" y="403" on="1"/>
        <pt x="145" y="467" on="0"/>
        <pt x="244" y="467" on="1"/>
        <pt x="342" y="467" on="0"/>
        <pt x="445" y="365" on="0"/>
        <pt x="445" y="243" on="1"/>
        <pt x="445" y="0" on="1"/>
        <pt x="422" y="0" on="1"/>
      </contour>
      <contour>
        <pt x="292" y="44" on="0"/>
        <pt x="378" y="131" on="0"/>
        <pt x="382" y="213" on="1"/>
        <pt x="337" y="220" on="0"/>
        <pt x="285" y="220" on="1"/>
        <pt x="209" y="220" on="0"/>
        <pt x="121" y="170" on="0"/>
        <pt x="121" y="119" on="1"/>
        <pt x="121" y="44" on="0"/>
        <pt x="218" y="44" on="1"/>
      </contour>
    </TTGlyph>
    <TTGlyph name="approxequal" xMin="71" yMin="186" xMax="461" yMax="465">
      <component glyphName="asciitilde" x="0" y="90" flags="0x4"/>
      <component glyphName="asciitilde" x="0" y="-80" flags="0x4"/>
    </TTGlyph>
    <TTGlyph name="aring" xMin="49" yMin="-11" xMax="445" yMax="693">
      <component glyphName="a" x="0" y="0" flags="0x0"/>
      <component glyphName="uni030A" x="493" y="0" flags="0x0"/>
    </TTGlyph>
    <TTGlyph name="aringacute" xMin="49" yMin="-11" xMax="445" yMax="918">
      <component glyphName="a" x="0" y="0" flags="0x0"/>
      <component glyphName="uni030A" x="493" y="0" flags="0x0"/>
      <component glyphName="acutecomb" x="489" y="236" flags="0x4"/>
    </TTGlyph>
    <TTGlyph name="arrowboth" xMin="10" yMin="106" xMax="490" yMax="488">
      <contour>
        <pt x="490" y="301" on="1"/>
        <pt x="490" y="279" on="1"/>
        <pt x="312" y="106" on="1"/>
        <pt x="279" y="156" on="1"/>
        <pt x="372" y="262" on="1"/>
        <pt x="128" y="262" on="1"/>
        <pt x="221" y="156" on="1"/>
        <pt x="188" y="106" on="1"/>
        <pt x="10" y="279" on="1"/>
        <pt x="10" y="301" on="1"/>
        <pt x="186" y="488" on="1"/>
        <pt x="221" y="445" on="1"/>
        <pt x="127" y="329" on="1"/>
        <pt x="373" y="329" on="1"/>
        <pt x="279" y="445" on="1"/>
        <pt x="314" y="488" on="1"/>
      </contour>
    </TTGlyph>
    <TTGlyph name="arrowdown" xMin="59" yMin="29" xMax="441" yMax="603">
      <contour>
        <pt x="285" y="603" on="1"/>
        <pt x="285" y="157" on="1"/>
        <pt x="391" y="300" on="1"/>
        <pt x="441" y="267" on="1"/>
        <pt x="268" y="29" on="1"/>
        <pt x="246" y="29" on="1"/>
        <pt x="59" y="265" on="1"/>
        <pt x="102" y="300" on="1"/>
        <pt x="218" y="156" on="1"/>
        <pt x="218" y="603" on="1"/>
      </contour>
    </TTGlyph>
    <TTGlyph name="arrowleft" xMin="23" yMin="105" xMax="480" yMax="487">
      <contour>
        <pt x="480" y="261" on="1"/>
        <pt x="151" y="261" on="1"/>
        <pt x="294" y="155" on="1"/>
        <pt x="261" y="105" on="1"/>
        <pt x="23" y="278" on="1"/>
        <pt x="23" y="300" on="1"/>
        <pt x="259" y="487" on="1"/>
        <pt x="294" y="444" on="1"/>
        <pt x="150" y="328" on="1"/>
        <pt x="480" y="328" on="1"/>
      </contour>
    </TTGlyph>
    <TTGlyph name="arrowright" xMin="16" yMin="105" xMax="473" yMax="487">
      <contour>
        <pt x="346" y="328" on="1"/>
        <pt x="202" y="444" on="1"/>
        <pt x="237" y="487" on="1"/>
        <pt x="473" y="300" on="1"/>
        <pt x="473" y="278" on="1"/>
        <pt x="235" y="105" on="1"/>
        <pt x="202" y="155" on="1"/>
        <pt x="345" y="261" on="1"/>
        <pt x="16" y="261" on="1"/>
        <pt x="16" y="328" on="1"/>
      </contour>
    </TTGlyph>
    <TTGlyph name="arrowup" xMin="59" yMin="7" xMax="441" yMax="581">
      <contour>
        <pt x="218" y="454" on="1"/>
        <pt x="102" y="310" on="1"/>
        <pt x="59" y="345" on="1"/>
        <pt x="246" y="581" on="1"/>
        <pt x="268" y="581" on="1"/>
        <pt x="441" y="343" on="1"/>
        <pt x="391" y="310" on="1"/>
        <pt x="285" y="453" on="1"/>
        <pt x="285" y="7" on="1"/>
        <pt x="218" y="7" on="1"/>
      </contour>
    </TTGlyph>
    <TTGlyph name="arrowupdn" xMin="59" yMin="56" xMax="441" yMax="536">
      <contour>
        <pt x="254" y="56" on="1"/>
        <pt x="232" y="56" on="1"/>
        <pt x="59" y="234" on="1"/>
        <pt x="109" y="267" on="1"/>
        <pt x="215" y="174" on="1"/>
        <pt x="215" y="418" on="1"/>
        <pt x="109" y="325" on="1"/>
        <pt x="59" y="358" on="1"/>
        <pt x="232" y="536" on="1"/>
        <pt x="254" y="536" on="1"/>
        <pt x="441" y="360" on="1"/>
        <pt x="398" y="325" on="1"/>
        <pt x="282" y="419" on="1"/>
        <pt x="282" y="173" on="1"/>
        <pt x="398" y="267" on="1"/>
        <pt x="441" y="232" on="1"/>
      </contour>
    </TTGlyph>
    <TTGlyph name="asciicircum" xMin="93" yMin="343" xMax="403" yMax="623">
      <contour>
        <pt x="93" y="367" on="1"/>
        <pt x="246" y="623" on="1"/>
        <pt x="268" y="623" on="1"/>
        <pt x="403" y="368" on="1"/>
        <pt x="350" y="343" on="1"/>
        <pt x="253" y="518" on="1"/>
        <pt x="143" y="343" on="1"/>
      </contour>
    </TTGlyph>
    <TTGlyph name="asciicircum.ss01" xMin="95" yMin="373" xMax="405" yMax="653">
      <component glyphName="asciicircum" x="2" y="30" flags="0x4"/>
    </TTGlyph>
    <TTGlyph name="asciitilde" xMin="71" yMin="266" xMax="461" yMax="375">
      <contour>
        <pt x="323" y="266" on="0"/>
        <pt x="284" y="282" on="0"/>
        <pt x="261" y="296" on="1"/>
        <pt x="239" y="308" on="0"/>
        <pt x="212" y="320" on="0"/>
        <pt x="196" y="320" on="1"/>
        <pt x="172" y="320" on="0"/>
        <pt x="136" y="299" on="0"/>
        <pt x="120" y="273" on="1"/>
        <pt x="71" y="295" on="1"/>
        <pt x="88" y="331" on="0"/>
        <pt x="150" y="375" on="0"/>
        <pt x="194" y="375" on="1"/>
        <pt x="218" y="375" on="0"/>
        <pt x="253" y="360" on="0"/>
        <pt x="277" y="346" on="1"/>
        <pt x="297" y="333" on="0"/>
        <pt x="327" y="321" on="0"/>
        <pt x="344" y="321" on="1"/>
        <pt x="366" y="321" on="0"/>
        <pt x="395" y="341" on="0"/>
        <pt x="415" y="369" on="1"/>
        <pt x="461" y="341" on="1"/>
        <pt x="435" y="299" on="0"/>
        <pt x="385" y="266" on="0"/>
        <pt x="348" y="266" on="1"/>
      </contour>
    </TTGlyph>
    <TTGlyph name="asciitilde.ss01" xMin="71" yMin="466" xMax="461" yMax="575">
      <component glyphName="asciitilde" x="0" y="200" flags="0x4"/>
    </TTGlyph>
    <TTGlyph name="asterisk" xMin="41" yMin="123" xMax="458" yMax="536">
      <contour>
        <pt x="84" y="167" on="1"/>
        <pt x="214" y="317" on="1"/>
        <pt x="41" y="370" on="1"/>
        <pt x="67" y="435" on="1"/>
        <pt x="229" y="359" on="1"/>
        <pt x="213" y="536" on="1"/>
        <pt x="291" y="536" on="1"/>
        <pt x="273" y="359" on="1"/>
        <pt x="432" y="431" on="1"/>
        <pt x="458" y="370" on="1"/>
        <pt x="287" y="318" on="1"/>
        <pt x="413" y="167" on="1"/>
        <pt x="358" y="124" on="1"/>
        <pt x="250" y="290" on="1"/>
        <pt x="138" y="123" on="1"/>
      </contour>
    </TTGlyph>
    <TTGlyph name="asterisk.ss01" xMin="41" yMin="183" xMax="458" yMax="596">
      <contour>
        <pt x="84" y="227" on="1"/>
        <pt x="214" y="377" on="1"/>
        <pt x="41" y="430" on="1"/>
        <pt x="67" y="495" on="1"/>
        <pt x="229" y="419" on="1"/>
        <pt x="213" y="596" on="1"/>
        <pt x="291" y="596" on="1"/>
        <pt x="273" y="419" on="1"/>
        <pt x="432" y="491" on="1"/>
        <pt x="458" y="430" on="1"/>
        <pt x="287" y="378" on="1"/>
        <pt x="413" y="227" on="1"/>
        <pt x="358" y="184" on="1"/>
        <pt x="250" y="350" on="1"/>
        <pt x="138" y="183" on="1"/>
      </contour>
    </TTGlyph>
    <TTGlyph name="asteriskmath" xMin="41" yMin="136" xMax="458" yMax="549">
      <contour>
        <pt x="84" y="180" on="1"/>
        <pt x="214" y="330" on="1"/>
        <pt x="41" y="383" on="1"/>
        <pt x="67" y="448" on="1"/>
        <pt x="229" y="372" on="1"/>
        <pt x="213" y="549" on="1"/>
        <pt x="291" y="549" on="1"/>
        <pt x="273" y="372" on="1"/>
        <pt x="432" y="444" on="1"/>
        <pt x="458" y="383" on="1"/>
        <pt x="287" y="331" on="1"/>
        <pt x="413" y="180" on="1"/>
        <pt x="358" y="137" on="1"/>
        <pt x="250" y="303" on="1"/>
        <pt x="138" y="136" on="1"/>
      </contour>
    </TTGlyph>
    <TTGlyph name="at" xMin="31" yMin="-11" xMax="465" yMax="633">
      <contour>
        <pt x="226" y="-11" on="0"/>
        <pt x="105" y="61" on="0"/>
        <pt x="31" y="207" on="0"/>
        <pt x="31" y="313" on="1"/>
        <pt x="31" y="418" on="0"/>
        <pt x="101" y="562" on="0"/>
        <pt x="211" y="633" on="0"/>
        <pt x="271" y="633" on="1"/>
        <pt x="322" y="633" on="0"/>
        <pt x="411" y="582" on="0"/>
        <pt x="465" y="480" on="0"/>
        <pt x="465" y="408" on="1"/>
        <pt x="465" y="175" on="1"/>
        <pt x="405" y="175" on="1"/>
        <pt x="405" y="213" on="1"/>
        <pt x="366" y="167" on="0"/>
        <pt x="308" y="167" on="1"/>
        <pt x="251" y="167" on="0"/>
        <pt x="175" y="242" on="0"/>
        <pt x="175" y="299" on="1"/>
        <pt x="175" y="364" on="0"/>
        <pt x="277" y="445" on="0"/>
        <pt x="372" y="445" on="1"/>
        <pt x="392" y="445" on="0"/>
        <pt x="402" y="444" on="1"/>
        <pt x="402" y="502" on="0"/>
        <pt x="329" y="579" on="0"/>
        <pt x="268" y="579" on="1"/>
        <pt x="219" y="579" on="0"/>
        <pt x="137" y="523" on="0"/>
        <pt x="89" y="408" on="0"/>
        <pt x="89" y="324" on="1"/>
        <pt x="89" y="233" on="0"/>
        <pt x="149" y="108" on="0"/>
        <pt x="246" y="46" on="0"/>
        <pt x="301" y="46" on="1"/>
        <pt x="359" y="46" on="0"/>
        <pt x="408" y="79" on="1"/>
        <pt x="435" y="30" on="1"/>
        <pt x="370" y="-11" on="0"/>
        <pt x="295" y="-11" on="1"/>
      </contour>
      <contour>
        <pt x="364" y="222" on="0"/>
        <pt x="405" y="300" on="0"/>
        <pt x="405" y="394" on="1"/>
        <pt x="381" y="396" on="0"/>
        <pt x="371" y="396" on="1"/>
        <pt x="306" y="396" on="0"/>
        <pt x="237" y="347" on="0"/>
        <pt x="237" y="303" on="1"/>
        <pt x="237" y="265" on="0"/>
        <pt x="278" y="222" on="0"/>
        <pt x="317" y="222" on="1"/>
      </contour>
    </TTGlyph>
    <TTGlyph name="atilde" xMin="49" yMin="-11" xMax="445" yMax="683">
      <component glyphName="a" x="0" y="0" flags="0x0"/>
      <component glyphName="tildecomb" x="490" y="0" flags="0x0"/>
    </TTGlyph>
    <TTGlyph name="b" xMin="60" yMin="-11" xMax="457" yMax="665">
      <contour>
        <pt x="225" y="-11" on="0"/>
        <pt x="155" y="26" on="0"/>
        <pt x="131" y="60" on="1"/>
        <pt x="106" y="0" on="1"/>
        <pt x="60" y="0" on="1"/>
        <pt x="60" y="665" on="1"/>
        <pt x="142" y="665" on="1"/>
        <pt x="142" y="658" on="1"/>
        <pt x="136" y="652" on="0"/>
        <pt x="133" y="638" on="0"/>
        <pt x="133" y="621" on="1"/>
        <pt x="133" y="387" on="1"/>
        <pt x="155" y="424" on="0"/>
        <pt x="230" y="468" on="0"/>
        <pt x="269" y="468" on="1"/>
        <pt x="355" y="468" on="0"/>
        <pt x="457" y="348" on="0"/>
        <pt x="457" y="233" on="1"/>
        <pt x="457" y="155" on="0"/>
        <pt x="403" y="44" on="0"/>
        <pt x="315" y="-11" on="0"/>
        <pt x="266" y="-11" on="1"/>
      </contour>
      <contour>
        <pt x="311" y="53" on="0"/>
        <pt x="383" y="138" on="0"/>
        <pt x="383" y="229" on="1"/>
        <pt x="383" y="317" on="0"/>
        <pt x="316" y="406" on="0"/>
        <pt x="259" y="406" on="1"/>
        <pt x="203" y="406" on="0"/>
        <pt x="133" y="306" on="0"/>
        <pt x="133" y="227" on="1"/>
        <pt x="133" y="53" on="0"/>
        <pt x="257" y="53" on="1"/>
      </contour>
    </TTGlyph>
    <TTGlyph name="backslash" xMin="64" yMin="-42" xMax="437" yMax="665">
      <contour>
        <pt x="64" y="634" on="1"/>
        <pt x="123" y="665" on="1"/>
        <pt x="437" y="-13" on="1"/>
        <pt x="378" y="-42" on="1"/>
      </contour>
    </TTGlyph>
    <TTGlyph name="bar" xMin="217" yMin="-151" xMax="284" yMax="652">
      <contour>
        <pt x="217" y="652" on="1"/>
        <pt x="284" y="652" on="1"/>
        <pt x="284" y="-151" on="1"/>
        <pt x="217" y="-151" on="1"/>
      </contour>
    </TTGlyph>
    <TTGlyph name="braceleft" xMin="53" yMin="-159" xMax="408" yMax="637">
      <contour>
        <pt x="295" y="-159" on="0"/>
        <pt x="201" y="-129" on="0"/>
        <pt x="156" y="-53" on="0"/>
        <pt x="159" y="16" on="1"/>
        <pt x="163" y="116" on="1"/>
        <pt x="163" y="179" on="0"/>
        <pt x="119" y="228" on="0"/>
        <pt x="73" y="228" on="1"/>
        <pt x="53" y="228" on="1"/>
        <pt x="53" y="284" on="1"/>
        <pt x="72" y="284" on="1"/>
        <pt x="119" y="284" on="0"/>
        <pt x="165" y="335" on="0"/>
        <pt x="165" y="391" on="1"/>
        <pt x="163" y="463" on="1"/>
        <pt x="163" y="637" on="0"/>
        <pt x="345" y="637" on="1"/>
        <pt x="408" y="637" on="1"/>
        <pt x="408" y="580" on="1"/>
        <pt x="326" y="580" on="1"/>
        <pt x="233" y="580" on="0"/>
        <pt x="233" y="474" on="1"/>
        <pt x="235" y="404" on="1"/>
        <pt x="235" y="294" on="0"/>
        <pt x="148" y="256" on="1"/>
        <pt x="233" y="228" on="0"/>
        <pt x="233" y="101" on="1"/>
        <pt x="230" y="17" on="1"/>
        <pt x="230" y="-50" on="0"/>
        <pt x="288" y="-103" on="0"/>
        <pt x="356" y="-103" on="1"/>
        <pt x="407" y="-103" on="1"/>
        <pt x="407" y="-159" on="1"/>
        <pt x="371" y="-159" on="1"/>
      </contour>
    </TTGlyph>
    <TTGlyph name="braceright" xMin="54" yMin="-159" xMax="409" yMax="637">
      <contour>
        <pt x="55" y="-159" on="1"/>
        <pt x="55" y="-103" on="1"/>
        <pt x="106" y="-103" on="1"/>
        <pt x="174" y="-103" on="0"/>
        <pt x="232" y="-50" on="0"/>
        <pt x="232" y="17" on="1"/>
        <pt x="229" y="101" on="1"/>
        <pt x="229" y="228" on="0"/>
        <pt x="314" y="256" on="1"/>
        <pt x="227" y="294" on="0"/>
        <pt x="227" y="404" on="1"/>
        <pt x="229" y="474" on="1"/>
        <pt x="229" y="580" on="0"/>
        <pt x="136" y="580" on="1"/>
        <pt x="54" y="580" on="1"/>
        <pt x="54" y="637" on="1"/>
        <pt x="117" y="637" on="1"/>
        <pt x="299" y="637" on="0"/>
        <pt x="299" y="463" on="1"/>
        <pt x="297" y="391" on="1"/>
        <pt x="297" y="335" on="0"/>
        <pt x="343" y="284" on="0"/>
        <pt x="390" y="284" on="1"/>
        <pt x="409" y="284" on="1"/>
        <pt x="409" y="228" on="1"/>
        <pt x="389" y="228" on="1"/>
        <pt x="343" y="228" on="0"/>
        <pt x="299" y="179" on="0"/>
        <pt x="299" y="116" on="1"/>
        <pt x="303" y="16" on="1"/>
        <pt x="306" y="-53" on="0"/>
        <pt x="261" y="-129" on="0"/>
        <pt x="167" y="-159" on="0"/>
        <pt x="91" y="-159" on="1"/>
      </contour>
    </TTGlyph>
    <TTGlyph name="bracketleft" xMin="131" yMin="-89" xMax="418" yMax="670">
      <contour>
        <pt x="131" y="670" on="1"/>
        <pt x="417" y="670" on="1"/>
        <pt x="417" y="610" on="1"/>
        <pt x="195" y="610" on="1"/>
        <pt x="195" y="-32" on="1"/>
        <pt x="418" y="-32" on="1"/>
        <pt x="418" y="-89" on="1"/>
        <pt x="131" y="-89" on="1"/>
      </contour>
    </TTGlyph>
    <TTGlyph name="bracketright" xMin="131" yMin="-89" xMax="418" yMax="670">
      <contour>
        <pt x="131" y="-89" on="1"/>
        <pt x="131" y="-32" on="1"/>
        <pt x="354" y="-32" on="1"/>
        <pt x="354" y="610" on="1"/>
        <pt x="132" y="610" on="1"/>
        <pt x="132" y="670" on="1"/>
        <pt x="418" y="670" on="1"/>
        <pt x="418" y="-89" on="1"/>
      </contour>
    </TTGlyph>
    <TTGlyph name="breve" xMin="101" yMin="524" xMax="397" yMax="646">
      <contour>
        <pt x="166" y="524" on="0"/>
        <pt x="101" y="601" on="1"/>
        <pt x="137" y="646" on="1"/>
        <pt x="157" y="615" on="0"/>
        <pt x="216" y="576" on="0"/>
        <pt x="250" y="576" on="1"/>
        <pt x="314" y="576" on="0"/>
        <pt x="369" y="646" on="1"/>
        <pt x="397" y="604" on="1"/>
        <pt x="369" y="567" on="0"/>
        <pt x="292" y="524" on="0"/>
        <pt x="251" y="524" on="1"/>
      </contour>
    </TTGlyph>
    <TTGlyph name="breve.case" xMin="112" yMin="661" xMax="396" yMax="777">
      <component glyphName="uni0306" x="496" y="123" flags="0x4"/>
    </TTGlyph>
    <TTGlyph name="brokenbar" xMin="217" yMin="-151" xMax="284" yMax="652">
      <contour>
        <pt x="217" y="652" on="1"/>
        <pt x="284" y="652" on="1"/>
        <pt x="284" y="295" on="1"/>
        <pt x="217" y="295" on="1"/>
      </contour>
      <contour>
        <pt x="217" y="196" on="1"/>
        <pt x="284" y="196" on="1"/>
        <pt x="284" y="-151" on="1"/>
        <pt x="217" y="-151" on="1"/>
      </contour>
    </TTGlyph>
    <TTGlyph name="bullet" xMin="171" yMin="213" xMax="341" yMax="380">
      <contour>
        <pt x="221" y="213" on="0"/>
        <pt x="171" y="262" on="0"/>
        <pt x="171" y="296" on="1"/>
        <pt x="171" y="331" on="0"/>
        <pt x="222" y="380" on="0"/>
        <pt x="256" y="380" on="1"/>
        <pt x="291" y="380" on="0"/>
        <pt x="341" y="330" on="0"/>
        <pt x="341" y="296" on="1"/>
        <pt x="341" y="262" on="0"/>
        <pt x="291" y="213" on="0"/>
        <pt x="256" y="213" on="1"/>
      </contour>
    </TTGlyph>
    <TTGlyph name="c" xMin="56" yMin="-11" xMax="457" yMax="466">
      <contour>
        <pt x="219" y="-11" on="0"/>
        <pt x="115" y="51" on="0"/>
        <pt x="56" y="160" on="0"/>
        <pt x="56" y="228" on="1"/>
        <pt x="56" y="296" on="0"/>
        <pt x="115" y="404" on="0"/>
        <pt x="219" y="466" on="0"/>
        <pt x="284" y="466" on="1"/>
        <pt x="339" y="466" on="0"/>
        <pt x="429" y="421" on="0"/>
        <pt x="457" y="381" on="1"/>
        <pt x="412" y="337" on="1"/>
        <pt x="405" y="330" on="1"/>
        <pt x="400" y="335" on="1"/>
        <pt x="400" y="344" on="0"/>
        <pt x="393" y="359" on="0"/>
        <pt x="381" y="369" on="1"/>
        <pt x="360" y="388" on="0"/>
        <pt x="310" y="405" on="0"/>
        <pt x="276" y="405" on="1"/>
        <pt x="237" y="405" on="0"/>
        <pt x="170" y="362" on="0"/>
        <pt x="130" y="284" on="0"/>
        <pt x="130" y="233" on="1"/>
        <pt x="130" y="182" on="0"/>
        <pt x="171" y="100" on="0"/>
        <pt x="244" y="54" on="0"/>
        <pt x="289" y="54" on="1"/>
        <pt x="358" y="54" on="0"/>
        <pt x="408" y="110" on="1"/>
        <pt x="450" y="61" on="1"/>
        <pt x="383" y="-11" on="0"/>
        <pt x="285" y="-11" on="1"/>
      </contour>
    </TTGlyph>
    <TTGlyph name="cacute" xMin="56" yMin="-11" xMax="457" yMax="682">
      <component glyphName="c" x="0" y="0" flags="0x0"/>
      <component glyphName="acutecomb" x="525" y="0" flags="0x0"/>
    </TTGlyph>
    <TTGlyph name="caron" xMin="134" yMin="518" xMax="377" yMax="694">
      <contour>
        <pt x="134" y="659" on="1"/>
        <pt x="180" y="694" on="1"/>
        <pt x="258" y="591" on="1"/>
        <pt x="339" y="693" on="1"/>
        <pt x="377" y="658" on="1"/>
        <pt x="266" y="518" on="1"/>
        <pt x="244" y="518" on="1"/>
      </contour>
    </TTGlyph>
    <TTGlyph name="caron.case" xMin="102" yMin="655" xMax="378" yMax="791">
      <contour>
        <pt x="102" y="753" on="1"/>
        <pt x="135" y="791" on="1"/>
        <pt x="238" y="720" on="1"/>
        <pt x="350" y="788" on="1"/>
        <pt x="378" y="755" on="1"/>
        <pt x="247" y="655" on="1"/>
        <pt x="225" y="655" on="1"/>
      </contour>
    </TTGlyph>
    <TTGlyph name="caroncomb.alt" xMin="-295" yMin="479" xMax="-197" yMax="661">
      <contour>
        <pt x="-218" y="661" on="0"/>
        <pt x="-197" y="641" on="0"/>
        <pt x="-197" y="625" on="1"/>
        <pt x="-197" y="616" on="0"/>
        <pt x="-202" y="603" on="1"/>
        <pt x="-253" y="479" on="1"/>
        <pt x="-295" y="495" on="1"/>
        <pt x="-281" y="539" on="1"/>
        <pt x="-275" y="559" on="0"/>
        <pt x="-275" y="589" on="1"/>
        <pt x="-275" y="621" on="1"/>
        <pt x="-275" y="640" on="0"/>
        <pt x="-252" y="661" on="0"/>
        <pt x="-234" y="661" on="1"/>
      </contour>
    </TTGlyph>
    <TTGlyph name="ccaron" xMin="56" yMin="-11" xMax="457" yMax="688">
      <component glyphName="c" x="0" y="0" flags="0x0"/>
      <component glyphName="uni030C" x="530" y="0" flags="0x0"/>
    </TTGlyph>
    <TTGlyph name="ccedilla" xMin="56" yMin="-197" xMax="457" yMax="466">
      <contour>
        <pt x="358" y="54" on="0"/>
        <pt x="408" y="110" on="1"/>
        <pt x="450" y="61" on="1"/>
        <pt x="393" y="1" on="0"/>
        <pt x="319" y="-9" on="1"/>
        <pt x="314" y="-47" on="1"/>
        <pt x="356" y="-51" on="0"/>
        <pt x="399" y="-88" on="0"/>
        <pt x="399" y="-112" on="1"/>
        <pt x="399" y="-148" on="0"/>
        <pt x="339" y="-197" on="0"/>
        <pt x="283" y="-197" on="1"/>
        <pt x="230" y="-197" on="0"/>
        <pt x="184" y="-166" on="1"/>
        <pt x="209" y="-124" on="1"/>
        <pt x="247" y="-154" on="0"/>
        <pt x="296" y="-154" on="1"/>
        <pt x="346" y="-154" on="0"/>
        <pt x="346" y="-118" on="1"/>
        <pt x="346" y="-102" on="0"/>
        <pt x="319" y="-85" on="0"/>
        <pt x="295" y="-85" on="1"/>
        <pt x="265" y="-85" on="1"/>
        <pt x="275" y="-11" on="1"/>
        <pt x="212" y="-9" on="0"/>
        <pt x="112" y="55" on="0"/>
        <pt x="56" y="162" on="0"/>
        <pt x="56" y="228" on="1"/>
        <pt x="56" y="296" on="0"/>
        <pt x="115" y="404" on="0"/>
        <pt x="219" y="466" on="0"/>
        <pt x="284" y="466" on="1"/>
        <pt x="339" y="466" on="0"/>
        <pt x="429" y="421" on="0"/>
        <pt x="457" y="381" on="1"/>
        <pt x="412" y="337" on="1"/>
        <pt x="405" y="330" on="1"/>
        <pt x="400" y="335" on="1"/>
        <pt x="400" y="344" on="0"/>
        <pt x="393" y="359" on="0"/>
        <pt x="381" y="369" on="1"/>
        <pt x="360" y="388" on="0"/>
        <pt x="310" y="405" on="0"/>
        <pt x="276" y="405" on="1"/>
        <pt x="237" y="405" on="0"/>
        <pt x="170" y="362" on="0"/>
        <pt x="130" y="284" on="0"/>
        <pt x="130" y="233" on="1"/>
        <pt x="130" y="182" on="0"/>
        <pt x="171" y="100" on="0"/>
        <pt x="244" y="54" on="0"/>
        <pt x="289" y="54" on="1"/>
      </contour>
    </TTGlyph>
    <TTGlyph name="ccircumflex" xMin="56" yMin="-11" xMax="457" yMax="685">
      <component glyphName="c" x="0" y="0" flags="0x0"/>
      <component glyphName="uni0302" x="536" y="0" flags="0x0"/>
    </TTGlyph>
    <TTGlyph name="cdotaccent" xMin="56" yMin="-11" xMax="457" yMax="656">
      <component glyphName="c" x="0" y="0" flags="0x0"/>
      <component glyphName="uni0307" x="531" y="0" flags="0x0"/>
    </TTGlyph>
    <TTGlyph name="cedilla" xMin="169" yMin="-197" xMax="384" yMax="0">
      <contour>
        <pt x="215" y="-197" on="0"/>
        <pt x="169" y="-166" on="1"/>
        <pt x="194" y="-124" on="1"/>
        <pt x="232" y="-154" on="0"/>
        <pt x="281" y="-154" on="1"/>
        <pt x="331" y="-154" on="0"/>
        <pt x="331" y="-118" on="1"/>
        <pt x="331" y="-102" on="0"/>
        <pt x="304" y="-85" on="0"/>
        <pt x="280" y="-85" on="1"/>
        <pt x="250" y="-85" on="1"/>
        <pt x="261" y="0" on="1"/>
        <pt x="305" y="0" on="1"/>
        <pt x="299" y="-47" on="1"/>
        <pt x="341" y="-51" on="0"/>
        <pt x="384" y="-88" on="0"/>
        <pt x="384" y="-112" on="1"/>
        <pt x="384" y="-148" on="0"/>
        <pt x="324" y="-197" on="0"/>
        <pt x="268" y="-197" on="1"/>
      </contour>
    </TTGlyph>
    <TTGlyph name="cent" xMin="56" yMin="-73" xMax="457" yMax="623">
      <contour>
        <pt x="358" y="97" on="0"/>
        <pt x="408" y="153" on="1"/>
        <pt x="450" y="104" on="1"/>
        <pt x="383" y="32" on="0"/>
        <pt x="285" y="32" on="1"/>
        <pt x="268" y="32" on="0"/>
        <pt x="260" y="33" on="1"/>
        <pt x="246" y="-73" on="1"/>
        <pt x="194" y="-73" on="1"/>
        <pt x="210" y="44" on="1"/>
        <pt x="140" y="67" on="0"/>
        <pt x="56" y="189" on="0"/>
        <pt x="56" y="271" on="1"/>
        <pt x="56" y="337" on="0"/>
        <pt x="112" y="443" on="0"/>
        <pt x="211" y="507" on="0"/>
        <pt x="273" y="509" on="1"/>
        <pt x="289" y="623" on="1"/>
        <pt x="338" y="623" on="1"/>
        <pt x="323" y="506" on="1"/>
        <pt x="365" y="499" on="0"/>
        <pt x="435" y="457" on="0"/>
        <pt x="457" y="424" on="1"/>
        <pt x="412" y="380" on="1"/>
        <pt x="405" y="373" on="1"/>
        <pt x="400" y="378" on="1"/>
        <pt x="400" y="387" on="0"/>
        <pt x="393" y="402" on="0"/>
        <pt x="381" y="412" on="1"/>
        <pt x="353" y="438" on="0"/>
        <pt x="314" y="445" on="1"/>
        <pt x="269" y="98" on="1"/>
        <pt x="275" y="97" on="0"/>
        <pt x="289" y="97" on="1"/>
      </contour>
      <contour>
        <pt x="130" y="220" on="0"/>
        <pt x="178" y="134" on="0"/>
        <pt x="219" y="113" on="1"/>
        <pt x="265" y="448" on="1"/>
        <pt x="229" y="445" on="0"/>
        <pt x="167" y="401" on="0"/>
        <pt x="130" y="324" on="0"/>
        <pt x="130" y="276" on="1"/>
      </contour>
    </TTGlyph>
    <TTGlyph name="circle" xMin="41" yMin="99" xMax="458" yMax="517">
      <contour>
        <pt x="192" y="99" on="0"/>
        <pt x="97" y="155" on="0"/>
        <pt x="41" y="251" on="0"/>
        <pt x="41" y="308" on="1"/>
        <pt x="41" y="365" on="0"/>
        <pt x="97" y="461" on="0"/>
        <pt x="192" y="517" on="0"/>
        <pt x="249" y="517" on="1"/>
        <pt x="306" y="517" on="0"/>
        <pt x="402" y="461" on="0"/>
        <pt x="458" y="365" on="0"/>
        <pt x="458" y="308" on="1"/>
        <pt x="458" y="251" on="0"/>
        <pt x="402" y="155" on="0"/>
        <pt x="306" y="99" on="0"/>
        <pt x="249" y="99" on="1"/>
      </contour>
      <contour>
        <pt x="295" y="139" on="0"/>
        <pt x="372" y="185" on="0"/>
        <pt x="418" y="263" on="0"/>
        <pt x="418" y="308" on="1"/>
        <pt x="418" y="353" on="0"/>
        <pt x="372" y="430" on="0"/>
        <pt x="295" y="476" on="0"/>
        <pt x="249" y="476" on="1"/>
        <pt x="204" y="476" on="0"/>
        <pt x="127" y="430" on="0"/>
        <pt x="81" y="353" on="0"/>
        <pt x="81" y="308" on="1"/>
        <pt x="81" y="263" on="0"/>
        <pt x="127" y="185" on="0"/>
        <pt x="204" y="139" on="0"/>
        <pt x="249" y="139" on="1"/>
      </contour>
    </TTGlyph>
    <TTGlyph name="circleplus" xMin="41" yMin="99" xMax="458" yMax="517">
      <contour>
        <pt x="192" y="99" on="0"/>
        <pt x="97" y="155" on="0"/>
        <pt x="41" y="251" on="0"/>
        <pt x="41" y="308" on="1"/>
        <pt x="41" y="365" on="0"/>
        <pt x="97" y="461" on="0"/>
        <pt x="192" y="517" on="0"/>
        <pt x="249" y="517" on="1"/>
        <pt x="306" y="517" on="0"/>
        <pt x="402" y="461" on="0"/>
        <pt x="458" y="365" on="0"/>
        <pt x="458" y="308" on="1"/>
        <pt x="458" y="251" on="0"/>
        <pt x="402" y="155" on="0"/>
        <pt x="306" y="99" on="0"/>
        <pt x="249" y="99" on="1"/>
      </contour>
      <contour>
        <pt x="295" y="139" on="0"/>
        <pt x="372" y="185" on="0"/>
        <pt x="418" y="263" on="0"/>
        <pt x="418" y="308" on="1"/>
        <pt x="418" y="353" on="0"/>
        <pt x="372" y="430" on="0"/>
        <pt x="295" y="476" on="0"/>
        <pt x="249" y="476" on="1"/>
        <pt x="204" y="476" on="0"/>
        <pt x="127" y="430" on="0"/>
        <pt x="81" y="353" on="0"/>
        <pt x="81" y="308" on="1"/>
        <pt x="81" y="263" on="0"/>
        <pt x="127" y="185" on="0"/>
        <pt x="204" y="139" on="0"/>
        <pt x="249" y="139" on="1"/>
      </contour>
      <contour>
        <pt x="231" y="291" on="1"/>
        <pt x="116" y="291" on="1"/>
        <pt x="116" y="331" on="1"/>
        <pt x="231" y="331" on="1"/>
        <pt x="231" y="442" on="1"/>
        <pt x="272" y="442" on="1"/>
        <pt x="272" y="331" on="1"/>
        <pt x="384" y="331" on="1"/>
        <pt x="384" y="291" on="1"/>
        <pt x="272" y="291" on="1"/>
        <pt x="272" y="170" on="1"/>
        <pt x="231" y="170" on="1"/>
      </contour>
    </TTGlyph>
    <TTGlyph name="circumflex" xMin="124" yMin="515" xMax="387" yMax="685">
      <contour>
        <pt x="255" y="621" on="1"/>
        <pt x="160" y="515" on="1"/>
        <pt x="124" y="545" on="1"/>
        <pt x="245" y="685" on="1"/>
        <pt x="267" y="685" on="1"/>
        <pt x="387" y="544" on="1"/>
        <pt x="343" y="518" on="1"/>
      </contour>
    </TTGlyph>
    <TTGlyph name="club" xMin="5" yMin="0" xMax="495" yMax="585">
      <contour>
        <pt x="402" y="395" on="0"/>
        <pt x="461" y="361" on="0"/>
        <pt x="495" y="302" on="0"/>
        <pt x="495" y="268" on="1"/>
        <pt x="495" y="233" on="0"/>
        <pt x="461" y="174" on="0"/>
        <pt x="402" y="140" on="0"/>
        <pt x="368" y="140" on="1"/>
        <pt x="321" y="140" on="0"/>
        <pt x="286" y="170" on="1"/>
        <pt x="289" y="93" on="0"/>
        <pt x="315" y="21" on="0"/>
        <pt x="341" y="18" on="1"/>
        <pt x="344" y="0" on="1"/>
        <pt x="156" y="0" on="1"/>
        <pt x="159" y="18" on="1"/>
        <pt x="185" y="21" on="0"/>
        <pt x="211" y="93" on="0"/>
        <pt x="214" y="169" on="1"/>
        <pt x="179" y="140" on="0"/>
        <pt x="133" y="140" on="1"/>
        <pt x="80" y="140" on="0"/>
        <pt x="5" y="215" on="0"/>
        <pt x="5" y="268" on="1"/>
        <pt x="5" y="302" on="0"/>
        <pt x="39" y="361" on="0"/>
        <pt x="98" y="395" on="0"/>
        <pt x="133" y="395" on="1"/>
        <pt x="138" y="395" on="1"/>
        <pt x="122" y="424" on="0"/>
        <pt x="122" y="458" on="1"/>
        <pt x="122" y="492" on="0"/>
        <pt x="156" y="551" on="0"/>
        <pt x="215" y="585" on="0"/>
        <pt x="250" y="585" on="1"/>
        <pt x="284" y="585" on="0"/>
        <pt x="343" y="551" on="0"/>
        <pt x="377" y="492" on="0"/>
        <pt x="377" y="458" on="1"/>
        <pt x="377" y="424" on="0"/>
        <pt x="361" y="395" on="1"/>
        <pt x="368" y="395" on="1"/>
      </contour>
    </TTGlyph>
    <TTGlyph name="colon" xMin="179" yMin="-11" xMax="298" yMax="423">
      <contour>
        <pt x="215" y="308" on="0"/>
        <pt x="179" y="342" on="0"/>
        <pt x="179" y="365" on="1"/>
        <pt x="179" y="389" on="0"/>
        <pt x="214" y="423" on="0"/>
        <pt x="238" y="423" on="1"/>
        <pt x="262" y="423" on="0"/>
        <pt x="298" y="389" on="0"/>
        <pt x="298" y="365" on="1"/>
        <pt x="298" y="342" on="0"/>
        <pt x="262" y="308" on="0"/>
        <pt x="238" y="308" on="1"/>
      </contour>
      <contour>
        <pt x="213" y="-11" on="0"/>
        <pt x="179" y="22" on="0"/>
        <pt x="179" y="46" on="1"/>
        <pt x="179" y="70" on="0"/>
        <pt x="214" y="104" on="0"/>
        <pt x="238" y="104" on="1"/>
        <pt x="262" y="104" on="0"/>
        <pt x="298" y="70" on="0"/>
        <pt x="298" y="46" on="1"/>
        <pt x="298" y="23" on="0"/>
        <pt x="263" y="-11" on="0"/>
        <pt x="238" y="-11" on="1"/>
      </contour>
    </TTGlyph>
    <TTGlyph name="colonmonetary" xMin="41" yMin="-71" xMax="469" yMax="675">
      <contour>
        <pt x="319" y="50" on="0"/>
        <pt x="387" y="91" on="0"/>
        <pt x="408" y="126" on="1"/>
        <pt x="460" y="92" on="1"/>
        <pt x="429" y="41" on="0"/>
        <pt x="345" y="-10" on="0"/>
        <pt x="285" y="-10" on="1"/>
        <pt x="255" y="-10" on="0"/>
        <pt x="227" y="-4" on="1"/>
        <pt x="209" y="-71" on="1"/>
        <pt x="172" y="-71" on="1"/>
        <pt x="193" y="7" on="1"/>
        <pt x="179" y="12" on="0"/>
        <pt x="165" y="22" on="1"/>
        <pt x="140" y="-71" on="1"/>
        <pt x="103" y="-71" on="1"/>
        <pt x="134" y="44" on="1"/>
        <pt x="90" y="84" on="0"/>
        <pt x="42" y="216" on="0"/>
        <pt x="41" y="308" on="1"/>
        <pt x="41" y="423" on="0"/>
        <pt x="111" y="566" on="0"/>
        <pt x="219" y="628" on="0"/>
        <pt x="281" y="628" on="1"/>
        <pt x="290" y="628" on="1"/>
        <pt x="303" y="675" on="1"/>
        <pt x="340" y="675" on="1"/>
        <pt x="326" y="624" on="1"/>
        <pt x="350" y="618" on="0"/>
        <pt x="356" y="615" on="1"/>
        <pt x="372" y="675" on="1"/>
        <pt x="409" y="675" on="1"/>
        <pt x="389" y="599" on="1"/>
        <pt x="443" y="567" on="0"/>
        <pt x="469" y="505" on="1"/>
        <pt x="409" y="477" on="1"/>
        <pt x="400" y="473" on="1"/>
        <pt x="397" y="480" on="1"/>
        <pt x="399" y="488" on="1"/>
        <pt x="399" y="498" on="0"/>
        <pt x="385" y="516" on="1"/>
        <pt x="370" y="534" on="0"/>
        <pt x="371" y="533" on="1"/>
        <pt x="243" y="56" on="1"/>
        <pt x="263" y="50" on="0"/>
        <pt x="282" y="50" on="1"/>
      </contour>
      <contour>
        <pt x="109" y="257" on="0"/>
        <pt x="134" y="163" on="0"/>
        <pt x="156" y="128" on="1"/>
        <pt x="275" y="572" on="1"/>
        <pt x="198" y="570" on="0"/>
        <pt x="109" y="433" on="0"/>
        <pt x="109" y="313" on="1"/>
      </contour>
      <contour>
        <pt x="195" y="82" on="0"/>
        <pt x="210" y="72" on="1"/>
        <pt x="340" y="557" on="1"/>
        <pt x="329" y="564" on="0"/>
        <pt x="311" y="568" on="1"/>
        <pt x="184" y="93" on="1"/>
      </contour>
    </TTGlyph>
    <TTGlyph name="comma" xMin="165" yMin="-168" xMax="306" yMax="103">
      <contour>
        <pt x="165" y="-138" on="1"/>
        <pt x="193" y="-112" on="0"/>
        <pt x="230" y="-52" on="0"/>
        <pt x="230" y="-33" on="1"/>
        <pt x="230" y="-24" on="0"/>
        <pt x="220" y="-12" on="0"/>
        <pt x="207" y="0" on="1"/>
        <pt x="193" y="13" on="0"/>
        <pt x="179" y="31" on="0"/>
        <pt x="179" y="44" on="1"/>
        <pt x="179" y="69" on="0"/>
        <pt x="212" y="103" on="0"/>
        <pt x="238" y="103" on="1"/>
        <pt x="265" y="103" on="0"/>
        <pt x="306" y="56" on="0"/>
        <pt x="306" y="20" on="1"/>
        <pt x="306" y="-58" on="0"/>
        <pt x="199" y="-168" on="1"/>
      </contour>
    </TTGlyph>
    <TTGlyph name="copyright" xMin="14" yMin="19" xMax="498" yMax="530">
      <contour>
        <pt x="190" y="19" on="0"/>
        <pt x="79" y="88" on="0"/>
        <pt x="14" y="205" on="0"/>
        <pt x="14" y="274" on="1"/>
        <pt x="14" y="343" on="0"/>
        <pt x="79" y="461" on="0"/>
        <pt x="191" y="530" on="0"/>
        <pt x="256" y="530" on="1"/>
        <pt x="321" y="530" on="0"/>
        <pt x="432" y="461" on="0"/>
        <pt x="498" y="343" on="0"/>
        <pt x="498" y="274" on="1"/>
        <pt x="498" y="168" on="0"/>
        <pt x="426" y="93" on="1"/>
        <pt x="355" y="19" on="0"/>
        <pt x="255" y="19" on="1"/>
      </contour>
      <contour>
        <pt x="310" y="62" on="0"/>
        <pt x="401" y="120" on="0"/>
        <pt x="455" y="218" on="0"/>
        <pt x="455" y="275" on="1"/>
        <pt x="455" y="332" on="0"/>
        <pt x="402" y="430" on="0"/>
        <pt x="311" y="488" on="0"/>
        <pt x="257" y="488" on="1"/>
        <pt x="203" y="488" on="0"/>
        <pt x="112" y="431" on="0"/>
        <pt x="59" y="333" on="0"/>
        <pt x="59" y="274" on="1"/>
        <pt x="59" y="216" on="0"/>
        <pt x="112" y="119" on="0"/>
        <pt x="203" y="62" on="0"/>
        <pt x="257" y="62" on="1"/>
      </contour>
      <contour>
        <pt x="221" y="122" on="0"/>
        <pt x="154" y="164" on="0"/>
        <pt x="115" y="235" on="0"/>
        <pt x="115" y="276" on="1"/>
        <pt x="115" y="317" on="0"/>
        <pt x="155" y="385" on="0"/>
        <pt x="220" y="424" on="0"/>
        <pt x="254" y="424" on="1"/>
        <pt x="307" y="424" on="0"/>
        <pt x="377" y="374" on="0"/>
        <pt x="387" y="331" on="1"/>
        <pt x="335" y="312" on="1"/>
        <pt x="331" y="318" on="0"/>
        <pt x="330" y="336" on="0"/>
        <pt x="321" y="351" on="0"/>
        <pt x="302" y="364" on="1"/>
        <pt x="286" y="374" on="0"/>
        <pt x="262" y="374" on="1"/>
        <pt x="229" y="374" on="0"/>
        <pt x="171" y="327" on="0"/>
        <pt x="171" y="281" on="1"/>
        <pt x="171" y="237" on="0"/>
        <pt x="226" y="174" on="0"/>
        <pt x="265" y="174" on="1"/>
        <pt x="289" y="174" on="0"/>
        <pt x="329" y="198" on="0"/>
        <pt x="340" y="219" on="1"/>
        <pt x="384" y="190" on="1"/>
        <pt x="363" y="158" on="0"/>
        <pt x="297" y="122" on="0"/>
        <pt x="261" y="122" on="1"/>
      </contour>
    </TTGlyph>
    <TTGlyph name="currency" xMin="68" yMin="164" xMax="432" yMax="527">
      <contour>
        <pt x="68" y="199" on="1"/>
        <pt x="124" y="256" on="1"/>
        <pt x="96" y="296" on="0"/>
        <pt x="96" y="345" on="1"/>
        <pt x="96" y="396" on="0"/>
        <pt x="125" y="435" on="1"/>
        <pt x="68" y="492" on="1"/>
        <pt x="104" y="527" on="1"/>
        <pt x="160" y="471" on="1"/>
        <pt x="201" y="500" on="0"/>
        <pt x="251" y="500" on="1"/>
        <pt x="299" y="500" on="0"/>
        <pt x="340" y="472" on="1"/>
        <pt x="396" y="527" on="1"/>
        <pt x="432" y="492" on="1"/>
        <pt x="376" y="437" on="1"/>
        <pt x="406" y="395" on="0"/>
        <pt x="406" y="345" on="1"/>
        <pt x="406" y="295" on="0"/>
        <pt x="377" y="254" on="1"/>
        <pt x="432" y="199" on="1"/>
        <pt x="396" y="164" on="1"/>
        <pt x="341" y="219" on="1"/>
        <pt x="302" y="190" on="0"/>
        <pt x="251" y="190" on="1"/>
        <pt x="201" y="190" on="0"/>
        <pt x="159" y="220" on="1"/>
        <pt x="104" y="164" on="1"/>
      </contour>
      <contour>
        <pt x="297" y="245" on="0"/>
        <pt x="351" y="303" on="0"/>
        <pt x="351" y="345" on="1"/>
        <pt x="351" y="388" on="0"/>
        <pt x="297" y="446" on="0"/>
        <pt x="250" y="446" on="1"/>
        <pt x="204" y="446" on="0"/>
        <pt x="150" y="388" on="0"/>
        <pt x="150" y="345" on="1"/>
        <pt x="150" y="303" on="0"/>
        <pt x="204" y="245" on="0"/>
        <pt x="250" y="245" on="1"/>
      </contour>
    </TTGlyph>
    <TTGlyph name="d" xMin="45" yMin="-10" xMax="449" yMax="665">
      <contour>
        <pt x="185" y="-10" on="0"/>
        <pt x="99" y="45" on="0"/>
        <pt x="45" y="155" on="0"/>
        <pt x="45" y="233" on="1"/>
        <pt x="45" y="312" on="0"/>
        <pt x="101" y="418" on="0"/>
        <pt x="189" y="469" on="0"/>
        <pt x="238" y="469" on="1"/>
        <pt x="284" y="469" on="0"/>
        <pt x="353" y="427" on="0"/>
        <pt x="371" y="390" on="1"/>
        <pt x="371" y="665" on="1"/>
        <pt x="447" y="665" on="1"/>
        <pt x="447" y="658" on="1"/>
        <pt x="441" y="652" on="0"/>
        <pt x="438" y="638" on="0"/>
        <pt x="438" y="621" on="1"/>
        <pt x="439" y="71" on="1"/>
        <pt x="439" y="47" on="0"/>
        <pt x="442" y="16" on="0"/>
        <pt x="449" y="0" on="1"/>
        <pt x="378" y="0" on="1"/>
        <pt x="371" y="16" on="0"/>
        <pt x="368" y="47" on="0"/>
        <pt x="368" y="71" on="1"/>
        <pt x="346" y="33" on="0"/>
        <pt x="277" y="-10" on="0"/>
        <pt x="234" y="-10" on="1"/>
      </contour>
      <contour>
        <pt x="307" y="53" on="0"/>
        <pt x="365" y="151" on="0"/>
        <pt x="365" y="231" on="1"/>
        <pt x="365" y="312" on="0"/>
        <pt x="302" y="410" on="0"/>
        <pt x="239" y="410" on="1"/>
        <pt x="179" y="410" on="0"/>
        <pt x="115" y="321" on="0"/>
        <pt x="115" y="244" on="1"/>
        <pt x="115" y="156" on="0"/>
        <pt x="182" y="53" on="0"/>
        <pt x="245" y="53" on="1"/>
      </contour>
    </TTGlyph>
    <TTGlyph name="dagger" xMin="49" yMin="-151" xMax="450" yMax="652">
      <contour>
        <pt x="217" y="397" on="1"/>
        <pt x="49" y="397" on="1"/>
        <pt x="49" y="457" on="1"/>
        <pt x="217" y="457" on="1"/>
        <pt x="217" y="652" on="1"/>
        <pt x="284" y="652" on="1"/>
        <pt x="284" y="457" on="1"/>
        <pt x="450" y="457" on="1"/>
        <pt x="450" y="397" on="1"/>
        <pt x="284" y="397" on="1"/>
        <pt x="284" y="-151" on="1"/>
        <pt x="217" y="-151" on="1"/>
      </contour>
    </TTGlyph>
    <TTGlyph name="daggerdbl" xMin="49" yMin="-151" xMax="450" yMax="652">
      <contour>
        <pt x="217" y="61" on="1"/>
        <pt x="49" y="61" on="1"/>
        <pt x="49" y="121" on="1"/>
        <pt x="217" y="121" on="1"/>
        <pt x="217" y="397" on="1"/>
        <pt x="49" y="397" on="1"/>
        <pt x="49" y="457" on="1"/>
        <pt x="217" y="457" on="1"/>
        <pt x="217" y="652" on="1"/>
        <pt x="284" y="652" on="1"/>
        <pt x="284" y="457" on="1"/>
        <pt x="450" y="457" on="1"/>
        <pt x="450" y="397" on="1"/>
        <pt x="284" y="397" on="1"/>
        <pt x="284" y="121" on="1"/>
        <pt x="450" y="121" on="1"/>
        <pt x="450" y="61" on="1"/>
        <pt x="284" y="61" on="1"/>
        <pt x="284" y="-151" on="1"/>
        <pt x="217" y="-151" on="1"/>
      </contour>
    </TTGlyph>
    <TTGlyph name="dcaron" xMin="25" yMin="-10" xMax="478" yMax="665">
      <contour>
        <pt x="138" y="-10" on="0"/>
        <pt x="67" y="44" on="0"/>
        <pt x="25" y="154" on="0"/>
        <pt x="25" y="233" on="1"/>
        <pt x="25" y="312" on="0"/>
        <pt x="72" y="418" on="0"/>
        <pt x="146" y="469" on="0"/>
        <pt x="187" y="469" on="1"/>
        <pt x="223" y="469" on="0"/>
        <pt x="277" y="427" on="0"/>
        <pt x="291" y="390" on="1"/>
        <pt x="291" y="665" on="1"/>
        <pt x="368" y="665" on="1"/>
        <pt x="368" y="659" on="0"/>
        <pt x="358" y="639" on="0"/>
        <pt x="358" y="632" on="1"/>
        <pt x="359" y="43" on="1"/>
        <pt x="359" y="20" on="0"/>
        <pt x="364" y="0" on="1"/>
        <pt x="292" y="0" on="1"/>
        <pt x="288" y="11" on="0"/>
        <pt x="288" y="34" on="1"/>
        <pt x="288" y="73" on="1"/>
        <pt x="271" y="35" on="0"/>
        <pt x="211" y="-10" on="0"/>
        <pt x="181" y="-10" on="1"/>
      </contour>
      <contour>
        <pt x="457" y="665" on="0"/>
        <pt x="478" y="645" on="0"/>
        <pt x="478" y="629" on="1"/>
        <pt x="478" y="620" on="0"/>
        <pt x="473" y="607" on="1"/>
        <pt x="422" y="483" on="1"/>
        <pt x="380" y="499" on="1"/>
        <pt x="394" y="543" on="1"/>
        <pt x="400" y="563" on="0"/>
        <pt x="400" y="593" on="1"/>
        <pt x="400" y="625" on="1"/>
        <pt x="400" y="644" on="0"/>
        <pt x="423" y="665" on="0"/>
        <pt x="441" y="665" on="1"/>
      </contour>
      <contour>
        <pt x="236" y="53" on="0"/>
        <pt x="285" y="155" on="0"/>
        <pt x="285" y="231" on="1"/>
        <pt x="285" y="312" on="0"/>
        <pt x="239" y="410" on="0"/>
        <pt x="198" y="410" on="1"/>
        <pt x="147" y="410" on="0"/>
        <pt x="95" y="322" on="0"/>
        <pt x="95" y="244" on="1"/>
        <pt x="95" y="156" on="0"/>
        <pt x="147" y="53" on="0"/>
        <pt x="195" y="53" on="1"/>
      </contour>
    </TTGlyph>
    <TTGlyph name="dcroat" xMin="45" yMin="-10" xMax="500" yMax="665">
      <contour>
        <pt x="500" y="520" on="1"/>
        <pt x="438" y="520" on="1"/>
        <pt x="439" y="71" on="1"/>
        <pt x="439" y="47" on="0"/>
        <pt x="442" y="16" on="0"/>
        <pt x="449" y="0" on="1"/>
        <pt x="378" y="0" on="1"/>
        <pt x="371" y="16" on="0"/>
        <pt x="368" y="47" on="0"/>
        <pt x="368" y="71" on="1"/>
        <pt x="346" y="33" on="0"/>
        <pt x="277" y="-10" on="0"/>
        <pt x="234" y="-10" on="1"/>
        <pt x="185" y="-10" on="0"/>
        <pt x="99" y="45" on="0"/>
        <pt x="45" y="155" on="0"/>
        <pt x="45" y="233" on="1"/>
        <pt x="45" y="312" on="0"/>
        <pt x="101" y="418" on="0"/>
        <pt x="189" y="469" on="0"/>
        <pt x="238" y="469" on="1"/>
        <pt x="284" y="469" on="0"/>
        <pt x="353" y="427" on="0"/>
        <pt x="371" y="390" on="1"/>
        <pt x="371" y="520" on="1"/>
        <pt x="230" y="520" on="1"/>
        <pt x="230" y="577" on="1"/>
        <pt x="371" y="577" on="1"/>
        <pt x="371" y="665" on="1"/>
        <pt x="447" y="665" on="1"/>
        <pt x="447" y="658" on="1"/>
        <pt x="441" y="652" on="0"/>
        <pt x="438" y="638" on="0"/>
        <pt x="438" y="621" on="1"/>
        <pt x="438" y="577" on="1"/>
        <pt x="500" y="577" on="1"/>
      </contour>
      <contour>
        <pt x="307" y="53" on="0"/>
        <pt x="365" y="151" on="0"/>
        <pt x="365" y="231" on="1"/>
        <pt x="365" y="312" on="0"/>
        <pt x="302" y="410" on="0"/>
        <pt x="239" y="410" on="1"/>
        <pt x="179" y="410" on="0"/>
        <pt x="115" y="321" on="0"/>
        <pt x="115" y="244" on="1"/>
        <pt x="115" y="156" on="0"/>
        <pt x="182" y="53" on="0"/>
        <pt x="245" y="53" on="1"/>
      </contour>
    </TTGlyph>
    <TTGlyph name="degree" xMin="121" yMin="370" xMax="391" yMax="639">
      <contour>
        <pt x="219" y="370" on="0"/>
        <pt x="157" y="406" on="0"/>
        <pt x="121" y="467" on="0"/>
        <pt x="121" y="504" on="1"/>
        <pt x="121" y="541" on="0"/>
        <pt x="158" y="603" on="0"/>
        <pt x="220" y="639" on="0"/>
        <pt x="256" y="639" on="1"/>
        <pt x="292" y="639" on="0"/>
        <pt x="354" y="602" on="0"/>
        <pt x="391" y="540" on="0"/>
        <pt x="391" y="504" on="1"/>
        <pt x="391" y="468" on="0"/>
        <pt x="355" y="407" on="0"/>
        <pt x="293" y="370" on="0"/>
        <pt x="256" y="370" on="1"/>
      </contour>
      <contour>
        <pt x="288" y="425" on="0"/>
        <pt x="331" y="472" on="0"/>
        <pt x="331" y="505" on="1"/>
        <pt x="331" y="537" on="0"/>
        <pt x="288" y="586" on="0"/>
        <pt x="257" y="586" on="1"/>
        <pt x="226" y="586" on="0"/>
        <pt x="182" y="537" on="0"/>
        <pt x="182" y="505" on="1"/>
        <pt x="182" y="473" on="0"/>
        <pt x="225" y="425" on="0"/>
        <pt x="256" y="425" on="1"/>
      </contour>
    </TTGlyph>
    <TTGlyph name="diamond" xMin="15" yMin="2" xMax="485" yMax="601">
      <contour>
        <pt x="270" y="601" on="1"/>
        <pt x="485" y="321" on="1"/>
        <pt x="485" y="291" on="1"/>
        <pt x="270" y="2" on="1"/>
        <pt x="240" y="2" on="1"/>
        <pt x="15" y="291" on="1"/>
        <pt x="15" y="321" on="1"/>
        <pt x="240" y="601" on="1"/>
      </contour>
    </TTGlyph>
    <TTGlyph name="dieresis" xMin="112" yMin="564" xMax="391" yMax="665">
      <contour>
        <pt x="142" y="564" on="0"/>
        <pt x="112" y="594" on="0"/>
        <pt x="112" y="614" on="1"/>
        <pt x="112" y="634" on="0"/>
        <pt x="142" y="665" on="0"/>
        <pt x="163" y="665" on="1"/>
        <pt x="183" y="665" on="0"/>
        <pt x="213" y="635" on="0"/>
        <pt x="213" y="614" on="1"/>
        <pt x="213" y="594" on="0"/>
        <pt x="183" y="564" on="0"/>
        <pt x="163" y="564" on="1"/>
      </contour>
      <contour>
        <pt x="320" y="564" on="0"/>
        <pt x="291" y="593" on="0"/>
        <pt x="291" y="614" on="1"/>
        <pt x="291" y="635" on="0"/>
        <pt x="320" y="665" on="0"/>
        <pt x="341" y="665" on="1"/>
        <pt x="361" y="665" on="0"/>
        <pt x="391" y="635" on="0"/>
        <pt x="391" y="614" on="1"/>
        <pt x="391" y="594" on="0"/>
        <pt x="361" y="564" on="0"/>
        <pt x="341" y="564" on="1"/>
      </contour>
    </TTGlyph>
    <TTGlyph name="dieresis.case" xMin="161" yMin="688" xMax="440" yMax="789">
      <contour>
        <pt x="191" y="688" on="0"/>
        <pt x="161" y="718" on="0"/>
        <pt x="161" y="738" on="1"/>
        <pt x="161" y="758" on="0"/>
        <pt x="191" y="789" on="0"/>
        <pt x="211" y="789" on="1"/>
        <pt x="232" y="789" on="0"/>
        <pt x="262" y="759" on="0"/>
        <pt x="262" y="738" on="1"/>
        <pt x="262" y="718" on="0"/>
        <pt x="232" y="688" on="0"/>
        <pt x="211" y="688" on="1"/>
      </contour>
      <contour>
        <pt x="369" y="688" on="0"/>
        <pt x="340" y="717" on="0"/>
        <pt x="340" y="738" on="1"/>
        <pt x="340" y="759" on="0"/>
        <pt x="369" y="789" on="0"/>
        <pt x="389" y="789" on="1"/>
        <pt x="410" y="789" on="0"/>
        <pt x="440" y="759" on="0"/>
        <pt x="440" y="738" on="1"/>
        <pt x="440" y="718" on="0"/>
        <pt x="410" y="688" on="0"/>
        <pt x="389" y="688" on="1"/>
      </contour>
    </TTGlyph>
    <TTGlyph name="divide" xMin="71" yMin="114" xMax="431" yMax="512">
      <contour>
        <pt x="237" y="422" on="0"/>
        <pt x="211" y="448" on="0"/>
        <pt x="211" y="466" on="1"/>
        <pt x="211" y="485" on="0"/>
        <pt x="238" y="512" on="0"/>
        <pt x="255" y="512" on="1"/>
        <pt x="273" y="512" on="0"/>
        <pt x="300" y="484" on="0"/>
        <pt x="300" y="466" on="1"/>
        <pt x="300" y="448" on="0"/>
        <pt x="274" y="422" on="0"/>
        <pt x="255" y="422" on="1"/>
      </contour>
      <contour>
        <pt x="71" y="348" on="1"/>
        <pt x="431" y="348" on="1"/>
        <pt x="431" y="281" on="1"/>
        <pt x="71" y="281" on="1"/>
      </contour>
      <contour>
        <pt x="238" y="114" on="0"/>
        <pt x="210" y="140" on="0"/>
        <pt x="210" y="158" on="1"/>
        <pt x="210" y="178" on="0"/>
        <pt x="238" y="204" on="0"/>
        <pt x="256" y="204" on="1"/>
        <pt x="273" y="204" on="0"/>
        <pt x="300" y="176" on="0"/>
        <pt x="300" y="158" on="1"/>
        <pt x="300" y="140" on="0"/>
        <pt x="274" y="114" on="0"/>
        <pt x="256" y="114" on="1"/>
      </contour>
    </TTGlyph>
    <TTGlyph name="dollar" xMin="60" yMin="-47" xMax="460" yMax="651">
      <contour>
        <pt x="235" y="14" on="1"/>
        <pt x="128" y="21" on="0"/>
        <pt x="60" y="94" on="1"/>
        <pt x="103" y="154" on="1"/>
        <pt x="106" y="152" on="0"/>
        <pt x="108" y="135" on="0"/>
        <pt x="110" y="133" on="1"/>
        <pt x="159" y="80" on="0"/>
        <pt x="235" y="72" on="1"/>
        <pt x="235" y="292" on="1"/>
        <pt x="155" y="319" on="0"/>
        <pt x="79" y="392" on="0"/>
        <pt x="79" y="446" on="1"/>
        <pt x="79" y="501" on="0"/>
        <pt x="166" y="581" on="0"/>
        <pt x="235" y="591" on="1"/>
        <pt x="235" y="651" on="1"/>
        <pt x="299" y="651" on="1"/>
        <pt x="300" y="650" on="0"/>
        <pt x="300" y="648" on="1"/>
        <pt x="300" y="646" on="0"/>
        <pt x="294" y="635" on="0"/>
        <pt x="293" y="630" on="1"/>
        <pt x="293" y="592" on="1"/>
        <pt x="386" y="582" on="0"/>
        <pt x="442" y="515" on="1"/>
        <pt x="399" y="461" on="1"/>
        <pt x="395" y="463" on="0"/>
        <pt x="391" y="479" on="0"/>
        <pt x="388" y="482" on="1"/>
        <pt x="354" y="522" on="0"/>
        <pt x="293" y="533" on="1"/>
        <pt x="293" y="340" on="1"/>
        <pt x="383" y="311" on="0"/>
        <pt x="460" y="241" on="0"/>
        <pt x="460" y="181" on="1"/>
        <pt x="460" y="143" on="0"/>
        <pt x="419" y="72" on="0"/>
        <pt x="343" y="22" on="0"/>
        <pt x="293" y="16" on="1"/>
        <pt x="293" y="-47" on="1"/>
        <pt x="235" y="-47" on="1"/>
      </contour>
      <contour>
        <pt x="235" y="534" on="1"/>
        <pt x="192" y="529" on="0"/>
        <pt x="145" y="485" on="0"/>
        <pt x="145" y="454" on="1"/>
        <pt x="145" y="397" on="0"/>
        <pt x="235" y="361" on="1"/>
      </contour>
      <contour>
        <pt x="340" y="83" on="0"/>
        <pt x="395" y="141" on="0"/>
        <pt x="395" y="177" on="1"/>
        <pt x="395" y="212" on="0"/>
        <pt x="348" y="255" on="0"/>
        <pt x="293" y="273" on="1"/>
        <pt x="293" y="74" on="1"/>
      </contour>
    </TTGlyph>
    <TTGlyph name="dong" xMin="65" yMin="0" xMax="441" yMax="639">
      <contour>
        <pt x="441" y="569" on="1"/>
        <pt x="441" y="515" on="1"/>
        <pt x="379" y="515" on="1"/>
        <pt x="380" y="164" on="1"/>
        <pt x="380" y="145" on="0"/>
        <pt x="383" y="120" on="0"/>
        <pt x="388" y="107" on="1"/>
        <pt x="331" y="107" on="1"/>
        <pt x="326" y="120" on="0"/>
        <pt x="323" y="145" on="0"/>
        <pt x="323" y="164" on="1"/>
        <pt x="305" y="134" on="0"/>
        <pt x="250" y="99" on="0"/>
        <pt x="216" y="99" on="1"/>
        <pt x="177" y="99" on="0"/>
        <pt x="108" y="143" on="0"/>
        <pt x="65" y="231" on="0"/>
        <pt x="65" y="293" on="1"/>
        <pt x="65" y="356" on="0"/>
        <pt x="109" y="442" on="0"/>
        <pt x="180" y="482" on="0"/>
        <pt x="219" y="482" on="1"/>
        <pt x="256" y="482" on="0"/>
        <pt x="311" y="448" on="0"/>
        <pt x="326" y="419" on="1"/>
        <pt x="326" y="515" on="1"/>
        <pt x="171" y="515" on="1"/>
        <pt x="171" y="569" on="1"/>
        <pt x="326" y="569" on="1"/>
        <pt x="326" y="639" on="1"/>
        <pt x="387" y="639" on="1"/>
        <pt x="387" y="633" on="1"/>
        <pt x="382" y="629" on="0"/>
        <pt x="379" y="617" on="0"/>
        <pt x="379" y="604" on="1"/>
        <pt x="379" y="569" on="1"/>
      </contour>
      <contour>
        <pt x="275" y="149" on="0"/>
        <pt x="321" y="228" on="0"/>
        <pt x="321" y="292" on="1"/>
        <pt x="321" y="357" on="0"/>
        <pt x="271" y="435" on="0"/>
        <pt x="220" y="435" on="1"/>
        <pt x="172" y="435" on="0"/>
        <pt x="121" y="364" on="0"/>
        <pt x="121" y="302" on="1"/>
        <pt x="121" y="232" on="0"/>
        <pt x="175" y="149" on="0"/>
        <pt x="225" y="149" on="1"/>
      </contour>
      <contour>
        <pt x="92" y="54" on="1"/>
        <pt x="413" y="54" on="1"/>
        <pt x="413" y="0" on="1"/>
        <pt x="92" y="0" on="1"/>
      </contour>
    </TTGlyph>
    <TTGlyph name="dotaccent" xMin="203" yMin="553" xMax="306" yMax="656">
      <contour>
        <pt x="233" y="553" on="0"/>
        <pt x="203" y="583" on="0"/>
        <pt x="203" y="604" on="1"/>
        <pt x="203" y="626" on="0"/>
        <pt x="232" y="656" on="0"/>
        <pt x="254" y="656" on="1"/>
        <pt x="275" y="656" on="0"/>
        <pt x="306" y="625" on="0"/>
        <pt x="306" y="604" on="1"/>
        <pt x="306" y="583" on="0"/>
        <pt x="275" y="553" on="0"/>
        <pt x="254" y="553" on="1"/>
      </contour>
    </TTGlyph>
    <TTGlyph name="dotaccent.case" xMin="249" yMin="689" xMax="352" yMax="791">
      <contour>
        <pt x="280" y="689" on="0"/>
        <pt x="249" y="719" on="0"/>
        <pt x="249" y="740" on="1"/>
        <pt x="249" y="761" on="0"/>
        <pt x="279" y="791" on="0"/>
        <pt x="300" y="791" on="1"/>
        <pt x="321" y="791" on="0"/>
        <pt x="352" y="761" on="0"/>
        <pt x="352" y="740" on="1"/>
        <pt x="352" y="719" on="0"/>
        <pt x="321" y="689" on="0"/>
        <pt x="300" y="689" on="1"/>
      </contour>
    </TTGlyph>
    <TTGlyph name="dotbelowcomb" xMin="-316" yMin="-160" xMax="-213" yMax="-57">
      <contour>
        <pt x="-286" y="-160" on="0"/>
        <pt x="-316" y="-130" on="0"/>
        <pt x="-316" y="-109" on="1"/>
        <pt x="-316" y="-88" on="0"/>
        <pt x="-286" y="-57" on="0"/>
        <pt x="-264" y="-57" on="1"/>
        <pt x="-243" y="-57" on="0"/>
        <pt x="-213" y="-88" on="0"/>
        <pt x="-213" y="-109" on="1"/>
        <pt x="-213" y="-130" on="0"/>
        <pt x="-243" y="-160" on="0"/>
        <pt x="-264" y="-160" on="1"/>
      </contour>
    </TTGlyph>
    <TTGlyph name="dotlessi" xMin="100" yMin="0" xMax="396" yMax="457">
      <contour>
        <pt x="100" y="58" on="1"/>
        <pt x="217" y="58" on="1"/>
        <pt x="217" y="399" on="1"/>
        <pt x="106" y="399" on="1"/>
        <pt x="106" y="457" on="1"/>
        <pt x="289" y="457" on="1"/>
        <pt x="289" y="58" on="1"/>
        <pt x="396" y="58" on="1"/>
        <pt x="396" y="0" on="1"/>
        <pt x="100" y="0" on="1"/>
      </contour>
    </TTGlyph>
    <TTGlyph name="e" xMin="49" yMin="-10" xMax="445" yMax="468">
      <contour>
        <pt x="170" y="-10" on="0"/>
        <pt x="49" y="114" on="0"/>
        <pt x="49" y="227" on="1"/>
        <pt x="49" y="302" on="0"/>
        <pt x="105" y="411" on="0"/>
        <pt x="200" y="468" on="0"/>
        <pt x="259" y="468" on="1"/>
        <pt x="342" y="468" on="0"/>
        <pt x="445" y="358" on="0"/>
        <pt x="445" y="251" on="1"/>
        <pt x="445" y="240" on="0"/>
        <pt x="443" y="218" on="1"/>
        <pt x="118" y="218" on="1"/>
        <pt x="122" y="134" on="0"/>
        <pt x="208" y="48" on="0"/>
        <pt x="274" y="48" on="1"/>
        <pt x="346" y="48" on="0"/>
        <pt x="392" y="99" on="1"/>
        <pt x="432" y="60" on="1"/>
        <pt x="374" y="-10" on="0"/>
        <pt x="272" y="-10" on="1"/>
      </contour>
      <contour>
        <pt x="372" y="274" on="1"/>
        <pt x="372" y="338" on="0"/>
        <pt x="307" y="413" on="0"/>
        <pt x="254" y="413" on="1"/>
        <pt x="204" y="413" on="0"/>
        <pt x="130" y="343" on="0"/>
        <pt x="121" y="274" on="1"/>
      </contour>
    </TTGlyph>
    <TTGlyph name="eacute" xMin="49" yMin="-10" xMax="445" yMax="682">
      <component glyphName="e" x="0" y="0" flags="0x0"/>
      <component glyphName="acutecomb" x="499" y="0" flags="0x0"/>
    </TTGlyph>
    <TTGlyph name="ebreve" xMin="49" yMin="-10" xMax="445" yMax="654">
      <component glyphName="e" x="0" y="0" flags="0x0"/>
      <component glyphName="uni0306" x="502" y="0" flags="0x0"/>
    </TTGlyph>
    <TTGlyph name="ecaron" xMin="49" yMin="-10" xMax="445" yMax="688">
      <component glyphName="e" x="0" y="0" flags="0x0"/>
      <component glyphName="uni030C" x="504" y="0" flags="0x0"/>
    </TTGlyph>
    <TTGlyph name="ecircumflex" xMin="49" yMin="-10" xMax="445" yMax="685">
      <component glyphName="e" x="0" y="0" flags="0x0"/>
      <component glyphName="uni0302" x="510" y="0" flags="0x0"/>
    </TTGlyph>
    <TTGlyph name="edieresis" xMin="49" yMin="-10" xMax="445" yMax="665">
      <component glyphName="e" x="0" y="0" flags="0x0"/>
      <component glyphName="uni0308" x="509" y="0" flags="0x0"/>
    </TTGlyph>
    <TTGlyph name="edotaccent" xMin="49" yMin="-10" xMax="445" yMax="656">
      <component glyphName="e" x="0" y="0" flags="0x0"/>
      <component glyphName="uni0307" x="505" y="0" flags="0x0"/>
    </TTGlyph>
    <TTGlyph name="egrave" xMin="49" yMin="-10" xMax="445" yMax="682">
      <component glyphName="e" x="0" y="0" flags="0x0"/>
      <component glyphName="gravecomb" x="499" y="0" flags="0x0"/>
    </TTGlyph>
    <TTGlyph name="eight" xMin="60" yMin="-10" xMax="441" yMax="631">
      <contour>
        <pt x="193" y="-10" on="0"/>
        <pt x="106" y="34" on="0"/>
        <pt x="60" y="110" on="0"/>
        <pt x="60" y="157" on="1"/>
        <pt x="60" y="211" on="0"/>
        <pt x="128" y="305" on="0"/>
        <pt x="185" y="331" on="1"/>
        <pt x="142" y="353" on="0"/>
        <pt x="90" y="432" on="0"/>
        <pt x="90" y="477" on="1"/>
        <pt x="90" y="544" on="0"/>
        <pt x="176" y="631" on="0"/>
        <pt x="255" y="631" on="1"/>
        <pt x="337" y="631" on="0"/>
        <pt x="420" y="548" on="0"/>
        <pt x="420" y="483" on="1"/>
        <pt x="420" y="438" on="0"/>
        <pt x="366" y="357" on="0"/>
        <pt x="321" y="333" on="1"/>
        <pt x="375" y="308" on="0"/>
        <pt x="441" y="215" on="0"/>
        <pt x="441" y="161" on="1"/>
        <pt x="441" y="113" on="0"/>
        <pt x="394" y="35" on="0"/>
        <pt x="307" y="-10" on="0"/>
        <pt x="250" y="-10" on="1"/>
      </contour>
      <contour>
        <pt x="304" y="379" on="0"/>
        <pt x="352" y="446" on="0"/>
        <pt x="352" y="481" on="1"/>
        <pt x="352" y="519" on="0"/>
        <pt x="300" y="572" on="0"/>
        <pt x="253" y="572" on="1"/>
        <pt x="206" y="572" on="0"/>
        <pt x="157" y="521" on="0"/>
        <pt x="157" y="484" on="1"/>
        <pt x="157" y="442" on="0"/>
        <pt x="211" y="388" on="0"/>
        <pt x="267" y="358" on="1"/>
      </contour>
      <contour>
        <pt x="308" y="53" on="0"/>
        <pt x="370" y="114" on="0"/>
        <pt x="370" y="161" on="1"/>
        <pt x="370" y="207" on="0"/>
        <pt x="298" y="284" on="0"/>
        <pt x="237" y="303" on="1"/>
        <pt x="191" y="284" on="0"/>
        <pt x="132" y="208" on="0"/>
        <pt x="132" y="164" on="1"/>
        <pt x="132" y="117" on="0"/>
        <pt x="197" y="53" on="0"/>
        <pt x="252" y="53" on="1"/>
      </contour>
    </TTGlyph>
    <TTGlyph name="eight.dnom" xMin="127" yMin="-4" xMax="373" yMax="388">
      <component glyphName="uni2088" x="0" y="0" flags="0x0"/>
    </TTGlyph>
    <TTGlyph name="eight.numr" xMin="127" yMin="248" xMax="373" yMax="640">
      <component glyphName="uni2078" x="0" y="0" flags="0x0"/>
    </TTGlyph>
    <TTGlyph name="element" xMin="40" yMin="4" xMax="445" yMax="453">
      <contour>
        <pt x="192" y="413" on="0"/>
        <pt x="88" y="327" on="0"/>
        <pt x="82" y="246" on="1"/>
        <pt x="445" y="246" on="1"/>
        <pt x="445" y="206" on="1"/>
        <pt x="82" y="206" on="1"/>
        <pt x="91" y="44" on="0"/>
        <pt x="284" y="44" on="1"/>
        <pt x="445" y="44" on="1"/>
        <pt x="445" y="4" on="1"/>
        <pt x="270" y="4" on="1"/>
        <pt x="163" y="4" on="0"/>
        <pt x="40" y="122" on="0"/>
        <pt x="40" y="225" on="1"/>
        <pt x="40" y="293" on="0"/>
        <pt x="97" y="396" on="0"/>
        <pt x="200" y="453" on="0"/>
        <pt x="268" y="453" on="1"/>
        <pt x="445" y="453" on="1"/>
        <pt x="445" y="413" on="1"/>
        <pt x="284" y="413" on="1"/>
      </contour>
    </TTGlyph>
    <TTGlyph name="ellipsis" xMin="7" yMin="-11" xMax="470" yMax="104">
      <contour>
        <pt x="40" y="-11" on="0"/>
        <pt x="7" y="22" on="0"/>
        <pt x="7" y="46" on="1"/>
        <pt x="7" y="69" on="0"/>
        <pt x="42" y="104" on="0"/>
        <pt x="66" y="104" on="1"/>
        <pt x="90" y="104" on="0"/>
        <pt x="125" y="70" on="0"/>
        <pt x="125" y="46" on="1"/>
        <pt x="125" y="23" on="0"/>
        <pt x="91" y="-11" on="0"/>
        <pt x="66" y="-11" on="1"/>
      </contour>
      <contour>
        <pt x="213" y="-11" on="0"/>
        <pt x="179" y="22" on="0"/>
        <pt x="179" y="46" on="1"/>
        <pt x="179" y="70" on="0"/>
        <pt x="214" y="104" on="0"/>
        <pt x="238" y="104" on="1"/>
        <pt x="262" y="104" on="0"/>
        <pt x="298" y="70" on="0"/>
        <pt x="298" y="46" on="1"/>
        <pt x="298" y="23" on="0"/>
        <pt x="263" y="-11" on="0"/>
        <pt x="238" y="-11" on="1"/>
      </contour>
      <contour>
        <pt x="386" y="-11" on="0"/>
        <pt x="352" y="22" on="0"/>
        <pt x="352" y="46" on="1"/>
        <pt x="352" y="70" on="0"/>
        <pt x="387" y="104" on="0"/>
        <pt x="411" y="104" on="1"/>
        <pt x="435" y="104" on="0"/>
        <pt x="470" y="70" on="0"/>
        <pt x="470" y="46" on="1"/>
        <pt x="470" y="23" on="0"/>
        <pt x="436" y="-11" on="0"/>
        <pt x="411" y="-11" on="1"/>
      </contour>
    </TTGlyph>
    <TTGlyph name="emacron" xMin="49" yMin="-10" xMax="445" yMax="621">
      <component glyphName="e" x="0" y="0" flags="0x0"/>
      <component glyphName="uni0304" x="510" y="0" flags="0x0"/>
    </TTGlyph>
    <TTGlyph name="emdash" xMin="10" yMin="281" xMax="490" yMax="348">
      <contour>
        <pt x="10" y="348" on="1"/>
        <pt x="490" y="348" on="1"/>
        <pt x="490" y="281" on="1"/>
        <pt x="10" y="281" on="1"/>
      </contour>
    </TTGlyph>
    <TTGlyph name="emptyset" xMin="13" yMin="104" xMax="489" yMax="550">
      <contour>
        <pt x="424" y="461" on="1"/>
        <pt x="471" y="401" on="0"/>
        <pt x="471" y="326" on="1"/>
        <pt x="471" y="267" on="0"/>
        <pt x="411" y="165" on="0"/>
        <pt x="310" y="106" on="0"/>
        <pt x="250" y="106" on="1"/>
        <pt x="209" y="106" on="0"/>
        <pt x="133" y="136" on="0"/>
        <pt x="103" y="163" on="1"/>
        <pt x="39" y="104" on="1"/>
        <pt x="13" y="132" on="1"/>
        <pt x="77" y="191" on="1"/>
        <pt x="31" y="251" on="0"/>
        <pt x="31" y="326" on="1"/>
        <pt x="31" y="385" on="0"/>
        <pt x="90" y="486" on="0"/>
        <pt x="191" y="545" on="0"/>
        <pt x="250" y="545" on="1"/>
        <pt x="291" y="545" on="0"/>
        <pt x="368" y="516" on="0"/>
        <pt x="398" y="489" on="1"/>
        <pt x="464" y="550" on="1"/>
        <pt x="489" y="522" on="1"/>
      </contour>
      <contour>
        <pt x="86" y="273" on="0"/>
        <pt x="117" y="229" on="1"/>
        <pt x="357" y="451" on="1"/>
        <pt x="310" y="490" on="0"/>
        <pt x="250" y="490" on="1"/>
        <pt x="205" y="490" on="0"/>
        <pt x="130" y="446" on="0"/>
        <pt x="86" y="370" on="0"/>
        <pt x="86" y="326" on="1"/>
      </contour>
      <contour>
        <pt x="416" y="380" on="0"/>
        <pt x="383" y="424" on="1"/>
        <pt x="143" y="200" on="1"/>
        <pt x="189" y="160" on="0"/>
        <pt x="250" y="160" on="1"/>
        <pt x="295" y="160" on="0"/>
        <pt x="371" y="205" on="0"/>
        <pt x="416" y="281" on="0"/>
        <pt x="416" y="326" on="1"/>
      </contour>
    </TTGlyph>
    <TTGlyph name="endash" xMin="71" yMin="281" xMax="431" yMax="348">
      <contour>
        <pt x="431" y="348" on="1"/>
        <pt x="431" y="281" on="1"/>
        <pt x="71" y="281" on="1"/>
        <pt x="71" y="348" on="1"/>
      </contour>
    </TTGlyph>
    <TTGlyph name="eng" xMin="68" yMin="-176" xMax="432" yMax="468">
      <contour>
        <pt x="208" y="-176" on="0"/>
        <pt x="165" y="-142" on="1"/>
        <pt x="199" y="-75" on="1"/>
        <pt x="201" y="-76" on="0"/>
        <pt x="213" y="-95" on="0"/>
        <pt x="239" y="-109" on="0"/>
        <pt x="264" y="-109" on="1"/>
        <pt x="361" y="-109" on="0"/>
        <pt x="361" y="45" on="1"/>
        <pt x="361" y="275" on="1"/>
        <pt x="361" y="343" on="0"/>
        <pt x="315" y="405" on="0"/>
        <pt x="277" y="405" on="1"/>
        <pt x="245" y="405" on="0"/>
        <pt x="182" y="369" on="0"/>
        <pt x="142" y="304" on="0"/>
        <pt x="142" y="263" on="1"/>
        <pt x="142" y="0" on="1"/>
        <pt x="68" y="0" on="1"/>
        <pt x="68" y="457" on="1"/>
        <pt x="142" y="457" on="1"/>
        <pt x="142" y="376" on="1"/>
        <pt x="168" y="418" on="0"/>
        <pt x="249" y="468" on="0"/>
        <pt x="291" y="468" on="1"/>
        <pt x="356" y="468" on="0"/>
        <pt x="432" y="376" on="0"/>
        <pt x="432" y="277" on="1"/>
        <pt x="432" y="56" on="1"/>
        <pt x="432" y="-61" on="0"/>
        <pt x="339" y="-176" on="0"/>
        <pt x="262" y="-176" on="1"/>
      </contour>
    </TTGlyph>
    <TTGlyph name="eogonek" xMin="49" yMin="-176" xMax="445" yMax="468">
      <component glyphName="e" x="0" y="0" flags="0x0"/>
      <component glyphName="ogonek" x="0" y="0" flags="0x0"/>
    </TTGlyph>
    <TTGlyph name="equal" xMin="45" yMin="220" xMax="456" yMax="438">
      <contour>
        <pt x="45" y="438" on="1"/>
        <pt x="456" y="438" on="1"/>
        <pt x="456" y="377" on="1"/>
        <pt x="45" y="377" on="1"/>
      </contour>
      <contour>
        <pt x="45" y="281" on="1"/>
        <pt x="456" y="281" on="1"/>
        <pt x="456" y="220" on="1"/>
        <pt x="45" y="220" on="1"/>
      </contour>
    </TTGlyph>
    <TTGlyph name="estimated" xMin="25" yMin="-7" xMax="479" yMax="477">
      <contour>
        <pt x="181" y="-7" on="0"/>
        <pt x="78" y="59" on="0"/>
        <pt x="25" y="170" on="0"/>
        <pt x="25" y="235" on="1"/>
        <pt x="25" y="315" on="0"/>
        <pt x="91" y="424" on="0"/>
        <pt x="195" y="477" on="0"/>
        <pt x="252" y="477" on="1"/>
        <pt x="317" y="477" on="0"/>
        <pt x="420" y="418" on="0"/>
        <pt x="479" y="308" on="0"/>
        <pt x="479" y="235" on="1"/>
        <pt x="125" y="235" on="1"/>
        <pt x="125" y="82" on="1"/>
        <pt x="146" y="60" on="0"/>
        <pt x="215" y="29" on="0"/>
        <pt x="252" y="29" on="1"/>
        <pt x="312" y="29" on="0"/>
        <pt x="390" y="78" on="0"/>
        <pt x="422" y="129" on="1"/>
        <pt x="452" y="112" on="1"/>
        <pt x="416" y="55" on="0"/>
        <pt x="327" y="-7" on="0"/>
        <pt x="252" y="-7" on="1"/>
      </contour>
      <contour>
        <pt x="380" y="390" on="1"/>
        <pt x="360" y="410" on="0"/>
        <pt x="293" y="441" on="0"/>
        <pt x="251" y="441" on="1"/>
        <pt x="177" y="441" on="0"/>
        <pt x="125" y="391" on="1"/>
        <pt x="125" y="271" on="1"/>
        <pt x="380" y="271" on="1"/>
      </contour>
    </TTGlyph>
    <TTGlyph name="eth" xMin="40" yMin="-12" xMax="460" yMax="672">
      <contour>
        <pt x="198" y="-12" on="0"/>
        <pt x="99" y="49" on="0"/>
        <pt x="40" y="157" on="0"/>
        <pt x="40" y="223" on="1"/>
        <pt x="40" y="288" on="0"/>
        <pt x="98" y="400" on="0"/>
        <pt x="191" y="467" on="0"/>
        <pt x="242" y="467" on="1"/>
        <pt x="320" y="467" on="0"/>
        <pt x="369" y="415" on="1"/>
        <pt x="336" y="494" on="0"/>
        <pt x="283" y="552" on="1"/>
        <pt x="155" y="516" on="1"/>
        <pt x="137" y="564" on="1"/>
        <pt x="241" y="592" on="1"/>
        <pt x="193" y="632" on="0"/>
        <pt x="139" y="656" on="1"/>
        <pt x="220" y="672" on="1"/>
        <pt x="268" y="645" on="0"/>
        <pt x="307" y="610" on="1"/>
        <pt x="415" y="639" on="1"/>
        <pt x="432" y="595" on="1"/>
        <pt x="347" y="570" on="1"/>
        <pt x="460" y="442" on="0"/>
        <pt x="460" y="253" on="1"/>
        <pt x="460" y="131" on="0"/>
        <pt x="353" y="-12" on="0"/>
        <pt x="256" y="-12" on="1"/>
      </contour>
      <contour>
        <pt x="311" y="50" on="0"/>
        <pt x="387" y="142" on="0"/>
        <pt x="387" y="232" on="1"/>
        <pt x="387" y="321" on="0"/>
        <pt x="307" y="406" on="0"/>
        <pt x="253" y="406" on="1"/>
        <pt x="219" y="406" on="0"/>
        <pt x="157" y="366" on="0"/>
        <pt x="117" y="287" on="0"/>
        <pt x="117" y="232" on="1"/>
        <pt x="117" y="179" on="0"/>
        <pt x="154" y="96" on="0"/>
        <pt x="218" y="50" on="0"/>
        <pt x="256" y="50" on="1"/>
      </contour>
    </TTGlyph>
    <TTGlyph name="exclam" xMin="180" yMin="-11" xMax="299" yMax="668">
      <contour>
        <pt x="190" y="594" on="1"/>
        <pt x="190" y="629" on="0"/>
        <pt x="217" y="668" on="0"/>
        <pt x="241" y="668" on="1"/>
        <pt x="292" y="668" on="0"/>
        <pt x="292" y="584" on="1"/>
        <pt x="265" y="194" on="1"/>
        <pt x="215" y="194" on="1"/>
      </contour>
      <contour>
        <pt x="215" y="-11" on="0"/>
        <pt x="180" y="23" on="0"/>
        <pt x="180" y="47" on="1"/>
        <pt x="180" y="71" on="0"/>
        <pt x="215" y="107" on="0"/>
        <pt x="239" y="107" on="1"/>
        <pt x="263" y="107" on="0"/>
        <pt x="299" y="71" on="0"/>
        <pt x="299" y="47" on="1"/>
        <pt x="299" y="24" on="0"/>
        <pt x="263" y="-11" on="0"/>
        <pt x="239" y="-11" on="1"/>
      </contour>
    </TTGlyph>
    <TTGlyph name="exclamdown" xMin="180" yMin="-81" xMax="299" yMax="598">
      <contour>
        <pt x="263" y="598" on="0"/>
        <pt x="299" y="563" on="0"/>
        <pt x="299" y="540" on="1"/>
        <pt x="299" y="516" on="0"/>
        <pt x="263" y="480" on="0"/>
        <pt x="239" y="480" on="1"/>
        <pt x="215" y="480" on="0"/>
        <pt x="180" y="516" on="0"/>
        <pt x="180" y="540" on="1"/>
        <pt x="180" y="564" on="0"/>
        <pt x="215" y="598" on="0"/>
        <pt x="239" y="598" on="1"/>
      </contour>
      <contour>
        <pt x="265" y="393" on="1"/>
        <pt x="292" y="3" on="1"/>
        <pt x="292" y="-81" on="0"/>
        <pt x="241" y="-81" on="1"/>
        <pt x="217" y="-81" on="0"/>
        <pt x="190" y="-42" on="0"/>
        <pt x="190" y="-7" on="1"/>
        <pt x="215" y="393" on="1"/>
      </contour>
    </TTGlyph>
    <TTGlyph name="f" xMin="63" yMin="0" xMax="473" yMax="671">
      <contour>
        <pt x="162" y="400" on="1"/>
        <pt x="63" y="400" on="1"/>
        <pt x="63" y="457" on="1"/>
        <pt x="162" y="457" on="1"/>
        <pt x="162" y="495" on="1"/>
        <pt x="162" y="583" on="0"/>
        <pt x="253" y="671" on="0"/>
        <pt x="330" y="671" on="1"/>
        <pt x="374" y="671" on="0"/>
        <pt x="449" y="639" on="0"/>
        <pt x="473" y="608" on="1"/>
        <pt x="435" y="555" on="1"/>
        <pt x="429" y="547" on="1"/>
        <pt x="423" y="551" on="1"/>
        <pt x="423" y="553" on="0"/>
        <pt x="420" y="566" on="0"/>
        <pt x="412" y="580" on="0"/>
        <pt x="404" y="587" on="1"/>
        <pt x="389" y="601" on="0"/>
        <pt x="357" y="613" on="0"/>
        <pt x="332" y="613" on="1"/>
        <pt x="285" y="613" on="0"/>
        <pt x="231" y="557" on="0"/>
        <pt x="231" y="495" on="1"/>
        <pt x="231" y="457" on="1"/>
        <pt x="381" y="457" on="1"/>
        <pt x="381" y="400" on="1"/>
        <pt x="231" y="400" on="1"/>
        <pt x="231" y="0" on="1"/>
        <pt x="162" y="0" on="1"/>
      </contour>
    </TTGlyph>
    <TTGlyph name="fi" xMin="33" yMin="0" xMax="438" yMax="671">
      <contour>
        <pt x="72" y="399" on="1"/>
        <pt x="33" y="399" on="1"/>
        <pt x="33" y="457" on="1"/>
        <pt x="72" y="457" on="1"/>
        <pt x="72" y="495" on="1"/>
        <pt x="72" y="583" on="0"/>
        <pt x="146" y="671" on="0"/>
        <pt x="207" y="671" on="1"/>
        <pt x="276" y="671" on="0"/>
        <pt x="316" y="628" on="1"/>
        <pt x="284" y="579" on="1"/>
        <pt x="278" y="570" on="1"/>
        <pt x="272" y="574" on="1"/>
        <pt x="270" y="585" on="0"/>
        <pt x="262" y="599" on="0"/>
        <pt x="249" y="606" on="1"/>
        <pt x="233" y="614" on="0"/>
        <pt x="213" y="614" on="1"/>
        <pt x="181" y="614" on="0"/>
        <pt x="141" y="550" on="0"/>
        <pt x="141" y="495" on="1"/>
        <pt x="141" y="457" on="1"/>
        <pt x="261" y="457" on="1"/>
        <pt x="261" y="399" on="1"/>
        <pt x="141" y="399" on="1"/>
        <pt x="141" y="0" on="1"/>
        <pt x="72" y="0" on="1"/>
      </contour>
      <contour>
        <pt x="365" y="553" on="0"/>
        <pt x="335" y="583" on="0"/>
        <pt x="335" y="604" on="1"/>
        <pt x="335" y="626" on="0"/>
        <pt x="364" y="656" on="0"/>
        <pt x="386" y="656" on="1"/>
        <pt x="407" y="656" on="0"/>
        <pt x="438" y="625" on="0"/>
        <pt x="438" y="604" on="1"/>
        <pt x="438" y="583" on="0"/>
        <pt x="407" y="553" on="0"/>
        <pt x="386" y="553" on="1"/>
      </contour>
      <contour>
        <pt x="354" y="399" on="1"/>
        <pt x="313" y="399" on="1"/>
        <pt x="313" y="457" on="1"/>
        <pt x="426" y="457" on="1"/>
        <pt x="426" y="0" on="1"/>
        <pt x="354" y="0" on="1"/>
      </contour>
    </TTGlyph>
    <TTGlyph name="figuredash" xMin="20" yMin="281" xMax="480" yMax="348">
      <contour>
        <pt x="20" y="348" on="1"/>
        <pt x="480" y="348" on="1"/>
        <pt x="480" y="281" on="1"/>
        <pt x="20" y="281" on="1"/>
      </contour>
    </TTGlyph>
    <TTGlyph name="five" xMin="64" yMin="-11" xMax="445" yMax="623">
      <contour>
        <pt x="192" y="-11" on="0"/>
        <pt x="95" y="39" on="0"/>
        <pt x="64" y="85" on="1"/>
        <pt x="128" y="133" on="1"/>
        <pt x="132" y="128" on="1"/>
        <pt x="131" y="119" on="0"/>
        <pt x="137" y="104" on="0"/>
        <pt x="148" y="93" on="1"/>
        <pt x="168" y="71" on="0"/>
        <pt x="218" y="50" on="0"/>
        <pt x="253" y="50" on="1"/>
        <pt x="285" y="50" on="0"/>
        <pt x="341" y="87" on="0"/>
        <pt x="374" y="154" on="0"/>
        <pt x="374" y="199" on="1"/>
        <pt x="374" y="267" on="0"/>
        <pt x="301" y="347" on="0"/>
        <pt x="246" y="347" on="1"/>
        <pt x="214" y="347" on="0"/>
        <pt x="152" y="316" on="0"/>
        <pt x="129" y="288" on="1"/>
        <pt x="85" y="306" on="1"/>
        <pt x="106" y="623" on="1"/>
        <pt x="422" y="623" on="1"/>
        <pt x="422" y="560" on="1"/>
        <pt x="165" y="560" on="1"/>
        <pt x="155" y="381" on="1"/>
        <pt x="204" y="405" on="0"/>
        <pt x="257" y="405" on="1"/>
        <pt x="311" y="405" on="0"/>
        <pt x="396" y="354" on="0"/>
        <pt x="445" y="259" on="0"/>
        <pt x="445" y="196" on="1"/>
        <pt x="445" y="133" on="0"/>
        <pt x="394" y="39" on="0"/>
        <pt x="305" y="-11" on="0"/>
        <pt x="249" y="-11" on="1"/>
      </contour>
    </TTGlyph>
    <TTGlyph name="five.dnom" xMin="123" yMin="-5" xMax="386" yMax="381">
      <component glyphName="uni2085" x="0" y="0" flags="0x0"/>
    </TTGlyph>
    <TTGlyph name="five.numr" xMin="123" yMin="247" xMax="386" yMax="633">
      <component glyphName="uni2075" x="0" y="0" flags="0x0"/>
    </TTGlyph>
    <TTGlyph name="fl" xMin="33" yMin="0" xMax="427" yMax="671">
      <contour>
        <pt x="72" y="400" on="1"/>
        <pt x="33" y="400" on="1"/>
        <pt x="33" y="457" on="1"/>
        <pt x="72" y="457" on="1"/>
        <pt x="72" y="495" on="1"/>
        <pt x="72" y="583" on="0"/>
        <pt x="151" y="671" on="0"/>
        <pt x="217" y="671" on="1"/>
        <pt x="251" y="671" on="0"/>
        <pt x="307" y="647" on="0"/>
        <pt x="325" y="624" on="1"/>
        <pt x="286" y="570" on="1"/>
        <pt x="267" y="596" on="0"/>
        <pt x="244" y="613" on="0"/>
        <pt x="222" y="613" on="1"/>
        <pt x="185" y="613" on="0"/>
        <pt x="141" y="557" on="0"/>
        <pt x="141" y="495" on="1"/>
        <pt x="141" y="457" on="1"/>
        <pt x="261" y="457" on="1"/>
        <pt x="261" y="400" on="1"/>
        <pt x="141" y="400" on="1"/>
        <pt x="141" y="0" on="1"/>
        <pt x="72" y="0" on="1"/>
      </contour>
      <contour>
        <pt x="354" y="665" on="1"/>
        <pt x="427" y="665" on="1"/>
        <pt x="427" y="0" on="1"/>
        <pt x="354" y="0" on="1"/>
      </contour>
    </TTGlyph>
    <TTGlyph name="florin" xMin="18" yMin="-175" xMax="480" yMax="673">
      <contour>
        <pt x="51" y="-175" on="0"/>
        <pt x="18" y="-140" on="1"/>
        <pt x="59" y="-76" on="1"/>
        <pt x="62" y="-77" on="0"/>
        <pt x="75" y="-96" on="0"/>
        <pt x="93" y="-108" on="0"/>
        <pt x="109" y="-108" on="1"/>
        <pt x="137" y="-108" on="0"/>
        <pt x="174" y="-39" on="0"/>
        <pt x="179" y="27" on="1"/>
        <pt x="201" y="326" on="1"/>
        <pt x="80" y="326" on="1"/>
        <pt x="80" y="383" on="1"/>
        <pt x="205" y="383" on="1"/>
        <pt x="212" y="475" on="1"/>
        <pt x="220" y="575" on="0"/>
        <pt x="300" y="673" on="0"/>
        <pt x="368" y="673" on="1"/>
        <pt x="436" y="673" on="0"/>
        <pt x="480" y="620" on="1"/>
        <pt x="447" y="554" on="1"/>
        <pt x="439" y="554" on="0"/>
        <pt x="438" y="564" on="1"/>
        <pt x="434" y="587" on="0"/>
        <pt x="393" y="616" on="0"/>
        <pt x="369" y="616" on="1"/>
        <pt x="329" y="616" on="0"/>
        <pt x="287" y="552" on="0"/>
        <pt x="281" y="465" on="1"/>
        <pt x="275" y="383" on="1"/>
        <pt x="398" y="383" on="1"/>
        <pt x="398" y="326" on="1"/>
        <pt x="270" y="326" on="1"/>
        <pt x="246" y="24" on="1"/>
        <pt x="228" y="-175" on="0"/>
        <pt x="100" y="-175" on="1"/>
      </contour>
    </TTGlyph>
    <TTGlyph name="four" xMin="48" yMin="0" xMax="472" yMax="624">
      <contour>
        <pt x="318" y="153" on="1"/>
        <pt x="48" y="153" on="1"/>
        <pt x="48" y="204" on="1"/>
        <pt x="333" y="624" on="1"/>
        <pt x="392" y="624" on="1"/>
        <pt x="392" y="211" on="1"/>
        <pt x="472" y="211" on="1"/>
        <pt x="472" y="152" on="1"/>
        <pt x="392" y="152" on="1"/>
        <pt x="392" y="0" on="1"/>
        <pt x="318" y="0" on="1"/>
      </contour>
      <contour>
        <pt x="318" y="212" on="1"/>
        <pt x="318" y="498" on="1"/>
        <pt x="129" y="212" on="1"/>
      </contour>
    </TTGlyph>
    <TTGlyph name="four.dnom" xMin="91" yMin="1" xMax="406" yMax="381">
      <component glyphName="uni2074" x="0" y="-252" flags="0x4"/>
    </TTGlyph>
    <TTGlyph name="four.numr" xMin="91" yMin="253" xMax="406" yMax="633">
      <component glyphName="uni2074" x="0" y="0" flags="0x0"/>
    </TTGlyph>
    <TTGlyph name="fraction" xMin="76" yMin="-42" xMax="437" yMax="665">
      <contour>
        <pt x="76" y="-16" on="1"/>
        <pt x="389" y="665" on="1"/>
        <pt x="437" y="638" on="1"/>
        <pt x="123" y="-42" on="1"/>
      </contour>
    </TTGlyph>
    <TTGlyph name="franc" xMin="21" yMin="0" xMax="437" yMax="624">
      <contour>
        <pt x="148" y="563" on="1"/>
        <pt x="148" y="367" on="1"/>
        <pt x="381" y="367" on="1"/>
        <pt x="381" y="306" on="1"/>
        <pt x="148" y="306" on="1"/>
        <pt x="148" y="203" on="1"/>
        <pt x="291" y="203" on="1"/>
        <pt x="291" y="146" on="1"/>
        <pt x="148" y="146" on="1"/>
        <pt x="148" y="0" on="1"/>
        <pt x="78" y="0" on="1"/>
        <pt x="78" y="146" on="1"/>
        <pt x="21" y="146" on="1"/>
        <pt x="21" y="203" on="1"/>
        <pt x="78" y="203" on="1"/>
        <pt x="78" y="624" on="1"/>
        <pt x="437" y="624" on="1"/>
        <pt x="437" y="563" on="1"/>
      </contour>
    </TTGlyph>
    <TTGlyph name="g" xMin="38" yMin="-172" xMax="475" yMax="474">
      <contour>
        <pt x="466" y="411" on="0"/>
        <pt x="449" y="411" on="1"/>
        <pt x="401" y="411" on="0"/>
        <pt x="369" y="390" on="1"/>
        <pt x="386" y="356" on="0"/>
        <pt x="386" y="315" on="1"/>
        <pt x="386" y="270" on="0"/>
        <pt x="347" y="197" on="0"/>
        <pt x="274" y="155" on="0"/>
        <pt x="226" y="155" on="1"/>
        <pt x="188" y="155" on="0"/>
        <pt x="155" y="169" on="1"/>
        <pt x="137" y="147" on="0"/>
        <pt x="137" y="127" on="1"/>
        <pt x="137" y="103" on="0"/>
        <pt x="198" y="82" on="0"/>
        <pt x="277" y="82" on="1"/>
        <pt x="374" y="82" on="0"/>
        <pt x="445" y="23" on="0"/>
        <pt x="445" y="-34" on="1"/>
        <pt x="445" y="-93" on="0"/>
        <pt x="349" y="-172" on="0"/>
        <pt x="247" y="-172" on="1"/>
        <pt x="149" y="-172" on="0"/>
        <pt x="38" y="-112" on="0"/>
        <pt x="38" y="-54" on="1"/>
        <pt x="38" y="-18" on="0"/>
        <pt x="78" y="34" on="0"/>
        <pt x="109" y="49" on="1"/>
        <pt x="76" y="71" on="0"/>
        <pt x="76" y="110" on="1"/>
        <pt x="76" y="150" on="0"/>
        <pt x="117" y="194" on="1"/>
        <pt x="92" y="216" on="0"/>
        <pt x="66" y="278" on="0"/>
        <pt x="66" y="315" on="1"/>
        <pt x="66" y="359" on="0"/>
        <pt x="105" y="432" on="0"/>
        <pt x="178" y="474" on="0"/>
        <pt x="226" y="474" on="1"/>
        <pt x="299" y="474" on="0"/>
        <pt x="343" y="427" on="1"/>
        <pt x="367" y="449" on="0"/>
        <pt x="418" y="470" on="0"/>
        <pt x="449" y="470" on="1"/>
        <pt x="466" y="469" on="1"/>
        <pt x="475" y="410" on="1"/>
      </contour>
      <contour>
        <pt x="269" y="215" on="0"/>
        <pt x="326" y="273" on="0"/>
        <pt x="326" y="315" on="1"/>
        <pt x="326" y="357" on="0"/>
        <pt x="269" y="415" on="0"/>
        <pt x="226" y="415" on="1"/>
        <pt x="183" y="415" on="0"/>
        <pt x="126" y="357" on="0"/>
        <pt x="126" y="315" on="1"/>
        <pt x="126" y="273" on="0"/>
        <pt x="183" y="215" on="0"/>
        <pt x="226" y="215" on="1"/>
      </contour>
      <contour>
        <pt x="379" y="-21" on="0"/>
        <pt x="362" y="6" on="0"/>
        <pt x="312" y="19" on="0"/>
        <pt x="262" y="19" on="1"/>
        <pt x="190" y="19" on="0"/>
        <pt x="147" y="32" on="1"/>
        <pt x="123" y="16" on="0"/>
        <pt x="104" y="-18" on="0"/>
        <pt x="104" y="-46" on="1"/>
        <pt x="104" y="-80" on="0"/>
        <pt x="180" y="-118" on="0"/>
        <pt x="248" y="-118" on="1"/>
        <pt x="314" y="-118" on="0"/>
        <pt x="379" y="-79" on="0"/>
        <pt x="379" y="-45" on="1"/>
      </contour>
    </TTGlyph>
    <TTGlyph name="gbreve" xMin="38" yMin="-172" xMax="475" yMax="646">
      <component glyphName="g" x="0" y="0" flags="0x0"/>
      <component glyphName="breve" x="9" y="0" flags="0x0"/>
    </TTGlyph>
    <TTGlyph name="gcaron" xMin="38" yMin="-172" xMax="475" yMax="688">
      <component glyphName="g" x="0" y="0" flags="0x0"/>
      <component glyphName="uni030C" x="470" y="0" flags="0x0"/>
    </TTGlyph>
    <TTGlyph name="gcircumflex" xMin="38" yMin="-172" xMax="475" yMax="685">
      <component glyphName="g" x="0" y="0" flags="0x0"/>
      <component glyphName="uni0302" x="476" y="0" flags="0x0"/>
    </TTGlyph>
    <TTGlyph name="gcommaaccent" xMin="38" yMin="-172" xMax="475" yMax="811">
      <component glyphName="g" x="0" y="0" flags="0x0"/>
      <component glyphName="uni0312" x="490" y="-10" flags="0x4"/>
    </TTGlyph>
    <TTGlyph name="gdotaccent" xMin="38" yMin="-172" xMax="475" yMax="656">
      <component glyphName="g" x="0" y="0" flags="0x0"/>
      <component glyphName="uni0307" x="471" y="0" flags="0x0"/>
    </TTGlyph>
    <TTGlyph name="germandbls" xMin="55" yMin="-10" xMax="464" yMax="669">
      <contour>
        <pt x="223" y="-10" on="0"/>
        <pt x="177" y="21" on="1"/>
        <pt x="212" y="77" on="1"/>
        <pt x="242" y="53" on="0"/>
        <pt x="285" y="53" on="1"/>
        <pt x="313" y="53" on="0"/>
        <pt x="366" y="90" on="0"/>
        <pt x="398" y="154" on="0"/>
        <pt x="398" y="193" on="1"/>
        <pt x="398" y="251" on="0"/>
        <pt x="321" y="323" on="0"/>
        <pt x="244" y="323" on="1"/>
        <pt x="214" y="323" on="1"/>
        <pt x="214" y="380" on="1"/>
        <pt x="250" y="380" on="1"/>
        <pt x="290" y="380" on="0"/>
        <pt x="352" y="439" on="0"/>
        <pt x="352" y="490" on="1"/>
        <pt x="352" y="541" on="0"/>
        <pt x="288" y="611" on="0"/>
        <pt x="241" y="611" on="1"/>
        <pt x="185" y="611" on="0"/>
        <pt x="123" y="510" on="0"/>
        <pt x="123" y="425" on="1"/>
        <pt x="123" y="0" on="1"/>
        <pt x="55" y="0" on="1"/>
        <pt x="55" y="423" on="1"/>
        <pt x="55" y="543" on="0"/>
        <pt x="150" y="669" on="0"/>
        <pt x="231" y="669" on="1"/>
        <pt x="283" y="669" on="0"/>
        <pt x="370" y="620" on="0"/>
        <pt x="420" y="539" on="0"/>
        <pt x="420" y="493" on="1"/>
        <pt x="420" y="450" on="0"/>
        <pt x="378" y="378" on="0"/>
        <pt x="341" y="359" on="1"/>
        <pt x="398" y="341" on="0"/>
        <pt x="464" y="244" on="0"/>
        <pt x="464" y="181" on="1"/>
        <pt x="464" y="128" on="0"/>
        <pt x="419" y="41" on="0"/>
        <pt x="336" y="-10" on="0"/>
        <pt x="281" y="-10" on="1"/>
      </contour>
    </TTGlyph>
    <TTGlyph name="grave" xMin="154" yMin="507" xMax="293" yMax="682">
      <contour>
        <pt x="154" y="642" on="1"/>
        <pt x="209" y="682" on="1"/>
        <pt x="293" y="533" on="1"/>
        <pt x="255" y="507" on="1"/>
      </contour>
    </TTGlyph>
    <TTGlyph name="grave.case" xMin="187" yMin="660" xMax="380" yMax="791">
      <contour>
        <pt x="187" y="721" on="1"/>
        <pt x="227" y="791" on="1"/>
        <pt x="380" y="702" on="1"/>
        <pt x="357" y="660" on="1"/>
      </contour>
    </TTGlyph>
    <TTGlyph name="gravecomb" xMin="-346" yMin="507" xMax="-207" yMax="682">
      <contour>
        <pt x="-346" y="642" on="1"/>
        <pt x="-291" y="682" on="1"/>
        <pt x="-207" y="533" on="1"/>
        <pt x="-245" y="507" on="1"/>
      </contour>
    </TTGlyph>
    <TTGlyph name="gravecomb.case" xMin="-313" yMin="660" xMax="-120" yMax="791">
      <contour>
        <pt x="-313" y="721" on="1"/>
        <pt x="-273" y="791" on="1"/>
        <pt x="-120" y="702" on="1"/>
        <pt x="-143" y="660" on="1"/>
      </contour>
    </TTGlyph>
    <TTGlyph name="greater" xMin="40" yMin="47" xMax="466" yMax="567">
      <contour>
        <pt x="40" y="123" on="1"/>
        <pt x="389" y="319" on="1"/>
        <pt x="42" y="496" on="1"/>
        <pt x="42" y="567" on="1"/>
        <pt x="466" y="344" on="1"/>
        <pt x="466" y="296" on="1"/>
        <pt x="40" y="47" on="1"/>
      </contour>
    </TTGlyph>
    <TTGlyph name="greaterequal" xMin="35" yMin="17" xMax="458" yMax="527">
      <contour>
        <pt x="35" y="173" on="1"/>
        <pt x="382" y="329" on="1"/>
        <pt x="35" y="456" on="1"/>
        <pt x="35" y="527" on="1"/>
        <pt x="458" y="354" on="1"/>
        <pt x="458" y="306" on="1"/>
        <pt x="35" y="107" on="1"/>
      </contour>
      <contour>
        <pt x="36" y="17" on="1"/>
        <pt x="36" y="80" on="1"/>
        <pt x="447" y="80" on="1"/>
        <pt x="447" y="17" on="1"/>
      </contour>
    </TTGlyph>
    <TTGlyph name="guillemotleft" xMin="67" yMin="61" xMax="446" yMax="400">
      <contour>
        <pt x="67" y="230" on="1"/>
        <pt x="67" y="253" on="1"/>
        <pt x="219" y="400" on="1"/>
        <pt x="258" y="359" on="1"/>
        <pt x="137" y="241" on="1"/>
        <pt x="265" y="101" on="1"/>
        <pt x="225" y="61" on="1"/>
      </contour>
      <contour>
        <pt x="249" y="230" on="1"/>
        <pt x="249" y="253" on="1"/>
        <pt x="400" y="400" on="1"/>
        <pt x="439" y="359" on="1"/>
        <pt x="318" y="241" on="1"/>
        <pt x="446" y="101" on="1"/>
        <pt x="406" y="61" on="1"/>
      </contour>
    </TTGlyph>
    <TTGlyph name="guillemotright" xMin="72" yMin="61" xMax="451" yMax="400">
      <contour>
        <pt x="72" y="101" on="1"/>
        <pt x="200" y="241" on="1"/>
        <pt x="79" y="359" on="1"/>
        <pt x="118" y="400" on="1"/>
        <pt x="269" y="253" on="1"/>
        <pt x="269" y="230" on="1"/>
        <pt x="112" y="61" on="1"/>
      </contour>
      <contour>
        <pt x="253" y="101" on="1"/>
        <pt x="381" y="241" on="1"/>
        <pt x="260" y="359" on="1"/>
        <pt x="299" y="400" on="1"/>
        <pt x="451" y="253" on="1"/>
        <pt x="451" y="230" on="1"/>
        <pt x="293" y="61" on="1"/>
      </contour>
    </TTGlyph>
    <TTGlyph name="guilsinglleft" xMin="145" yMin="61" xMax="343" yMax="400">
      <contour>
        <pt x="145" y="230" on="1"/>
        <pt x="145" y="253" on="1"/>
        <pt x="297" y="400" on="1"/>
        <pt x="336" y="359" on="1"/>
        <pt x="215" y="241" on="1"/>
        <pt x="343" y="101" on="1"/>
        <pt x="303" y="61" on="1"/>
      </contour>
    </TTGlyph>
    <TTGlyph name="guilsinglright" xMin="145" yMin="61" xMax="343" yMax="400">
      <contour>
        <pt x="145" y="101" on="1"/>
        <pt x="273" y="241" on="1"/>
        <pt x="152" y="359" on="1"/>
        <pt x="191" y="400" on="1"/>
        <pt x="343" y="253" on="1"/>
        <pt x="343" y="230" on="1"/>
        <pt x="185" y="61" on="1"/>
      </contour>
    </TTGlyph>
    <TTGlyph name="h" xMin="73" yMin="0" xMax="432" yMax="665">
      <contour>
        <pt x="73" y="665" on="1"/>
        <pt x="152" y="665" on="1"/>
        <pt x="152" y="658" on="1"/>
        <pt x="146" y="652" on="0"/>
        <pt x="143" y="638" on="0"/>
        <pt x="143" y="621" on="1"/>
        <pt x="143" y="376" on="1"/>
        <pt x="170" y="418" on="0"/>
        <pt x="251" y="468" on="0"/>
        <pt x="293" y="468" on="1"/>
        <pt x="358" y="468" on="0"/>
        <pt x="432" y="376" on="0"/>
        <pt x="432" y="277" on="1"/>
        <pt x="432" y="0" on="1"/>
        <pt x="362" y="0" on="1"/>
        <pt x="362" y="275" on="1"/>
        <pt x="362" y="343" on="0"/>
        <pt x="316" y="405" on="0"/>
        <pt x="278" y="405" on="1"/>
        <pt x="246" y="405" on="0"/>
        <pt x="184" y="370" on="0"/>
        <pt x="143" y="305" on="0"/>
        <pt x="143" y="263" on="1"/>
        <pt x="143" y="0" on="1"/>
        <pt x="73" y="0" on="1"/>
      </contour>
    </TTGlyph>
    <TTGlyph name="hbar" xMin="0" yMin="0" xMax="432" yMax="665">
      <contour>
        <pt x="358" y="468" on="0"/>
        <pt x="432" y="376" on="0"/>
        <pt x="432" y="277" on="1"/>
        <pt x="432" y="0" on="1"/>
        <pt x="362" y="0" on="1"/>
        <pt x="362" y="275" on="1"/>
        <pt x="362" y="343" on="0"/>
        <pt x="316" y="405" on="0"/>
        <pt x="278" y="405" on="1"/>
        <pt x="246" y="405" on="0"/>
        <pt x="184" y="370" on="0"/>
        <pt x="143" y="305" on="0"/>
        <pt x="143" y="263" on="1"/>
        <pt x="143" y="0" on="1"/>
        <pt x="73" y="0" on="1"/>
        <pt x="73" y="520" on="1"/>
        <pt x="0" y="520" on="1"/>
        <pt x="0" y="577" on="1"/>
        <pt x="73" y="577" on="1"/>
        <pt x="73" y="665" on="1"/>
        <pt x="152" y="665" on="1"/>
        <pt x="152" y="658" on="1"/>
        <pt x="146" y="652" on="0"/>
        <pt x="143" y="638" on="0"/>
        <pt x="143" y="621" on="1"/>
        <pt x="143" y="577" on="1"/>
        <pt x="270" y="577" on="1"/>
        <pt x="270" y="520" on="1"/>
        <pt x="143" y="520" on="1"/>
        <pt x="143" y="376" on="1"/>
        <pt x="170" y="418" on="0"/>
        <pt x="251" y="468" on="0"/>
        <pt x="293" y="468" on="1"/>
      </contour>
    </TTGlyph>
    <TTGlyph name="hcircumflex" xMin="-40" yMin="0" xMax="432" yMax="833">
      <component glyphName="h" x="0" y="0" flags="0x0"/>
      <component glyphName="uni0302.case" x="368" y="42" flags="0x4"/>
    </TTGlyph>
    <TTGlyph name="heart" xMin="12" yMin="0" xMax="488" yMax="591">
      <contour>
        <pt x="422" y="591" on="0"/>
        <pt x="488" y="520" on="0"/>
        <pt x="488" y="467" on="1"/>
        <pt x="488" y="414" on="0"/>
        <pt x="458" y="330" on="0"/>
        <pt x="413" y="268" on="0"/>
        <pt x="377" y="226" on="1"/>
        <pt x="341" y="185" on="0"/>
        <pt x="299" y="126" on="0"/>
        <pt x="270" y="48" on="0"/>
        <pt x="270" y="0" on="1"/>
        <pt x="230" y="0" on="1"/>
        <pt x="230" y="48" on="0"/>
        <pt x="201" y="126" on="0"/>
        <pt x="159" y="185" on="0"/>
        <pt x="123" y="226" on="1"/>
        <pt x="87" y="268" on="0"/>
        <pt x="42" y="330" on="0"/>
        <pt x="12" y="414" on="0"/>
        <pt x="12" y="467" on="1"/>
        <pt x="12" y="520" on="0"/>
        <pt x="78" y="591" on="0"/>
        <pt x="126" y="591" on="1"/>
        <pt x="179" y="591" on="0"/>
        <pt x="245" y="531" on="0"/>
        <pt x="245" y="477" on="1"/>
        <pt x="255" y="477" on="1"/>
        <pt x="255" y="529" on="0"/>
        <pt x="327" y="591" on="0"/>
        <pt x="374" y="591" on="1"/>
      </contour>
    </TTGlyph>
    <TTGlyph name="hookabovecomb" xMin="-347" yMin="523" xMax="-180" yMax="704">
      <contour>
        <pt x="-180" y="611" on="0"/>
        <pt x="-194" y="590" on="0"/>
        <pt x="-209" y="577" on="1"/>
        <pt x="-223" y="565" on="0"/>
        <pt x="-236" y="546" on="0"/>
        <pt x="-236" y="530" on="1"/>
        <pt x="-236" y="523" on="1"/>
        <pt x="-287" y="523" on="1"/>
        <pt x="-287" y="551" on="1"/>
        <pt x="-287" y="571" on="0"/>
        <pt x="-258" y="596" on="1"/>
        <pt x="-246" y="607" on="0"/>
        <pt x="-235" y="621" on="0"/>
        <pt x="-235" y="628" on="1"/>
        <pt x="-235" y="641" on="0"/>
        <pt x="-253" y="656" on="0"/>
        <pt x="-266" y="656" on="1"/>
        <pt x="-300" y="656" on="0"/>
        <pt x="-310" y="624" on="1"/>
        <pt x="-347" y="662" on="1"/>
        <pt x="-329" y="684" on="0"/>
        <pt x="-288" y="704" on="0"/>
        <pt x="-261" y="704" on="1"/>
        <pt x="-227" y="704" on="0"/>
        <pt x="-180" y="664" on="0"/>
        <pt x="-180" y="630" on="1"/>
      </contour>
    </TTGlyph>
    <TTGlyph name="house" xMin="28" yMin="0" xMax="472" yMax="463">
      <contour>
        <pt x="472" y="0" on="1"/>
        <pt x="28" y="0" on="1"/>
        <pt x="28" y="328" on="1"/>
        <pt x="250" y="463" on="1"/>
        <pt x="472" y="328" on="1"/>
      </contour>
      <contour>
        <pt x="68" y="40" on="1"/>
        <pt x="432" y="40" on="1"/>
        <pt x="432" y="304" on="1"/>
        <pt x="250" y="413" on="1"/>
        <pt x="68" y="304" on="1"/>
      </contour>
    </TTGlyph>
    <TTGlyph name="hungarumlaut" xMin="126" yMin="522" xMax="432" yMax="699">
      <contour>
        <pt x="126" y="552" on="1"/>
        <pt x="214" y="699" on="1"/>
        <pt x="277" y="657" on="1"/>
        <pt x="176" y="522" on="1"/>
      </contour>
      <contour>
        <pt x="281" y="552" on="1"/>
        <pt x="369" y="699" on="1"/>
        <pt x="432" y="657" on="1"/>
        <pt x="331" y="522" on="1"/>
      </contour>
    </TTGlyph>
    <TTGlyph name="hungarumlaut.case" xMin="112" yMin="645" xMax="467" yMax="810">
      <contour>
        <pt x="112" y="686" on="1"/>
        <pt x="243" y="810" on="1"/>
        <pt x="290" y="746" on="1"/>
        <pt x="144" y="645" on="1"/>
      </contour>
      <contour>
        <pt x="290" y="686" on="1"/>
        <pt x="421" y="810" on="1"/>
        <pt x="467" y="746" on="1"/>
        <pt x="322" y="645" on="1"/>
      </contour>
    </TTGlyph>
    <TTGlyph name="hyphen" xMin="71" yMin="281" xMax="431" yMax="348">
      <contour>
        <pt x="71" y="348" on="1"/>
        <pt x="431" y="348" on="1"/>
        <pt x="431" y="281" on="1"/>
        <pt x="71" y="281" on="1"/>
      </contour>
    </TTGlyph>
    <TTGlyph name="i" xMin="100" yMin="0" xMax="396" yMax="656">
      <component glyphName="dotlessi" x="0" y="0" flags="0x0"/>
      <component glyphName="uni0307" x="495" y="0" flags="0x0"/>
    </TTGlyph>
    <TTGlyph name="i.loclTRK" xMin="100" yMin="0" xMax="396" yMax="656">
      <component glyphName="dotlessi" x="0" y="0" flags="0x0"/>
      <component glyphName="uni0307" x="495" y="0" flags="0x0"/>
    </TTGlyph>
    <TTGlyph name="iacute" xMin="100" yMin="0" xMax="396" yMax="697">
      <component glyphName="dotlessi" x="0" y="0" flags="0x0"/>
      <component glyphName="acute" x="-8" y="0" flags="0x0"/>
    </TTGlyph>
    <TTGlyph name="ibreve" xMin="100" yMin="0" xMax="396" yMax="654">
      <component glyphName="dotlessi" x="0" y="0" flags="0x0"/>
      <component glyphName="uni0306" x="492" y="0" flags="0x0"/>
    </TTGlyph>
    <TTGlyph name="icircumflex" xMin="100" yMin="0" xMax="396" yMax="685">
      <component glyphName="dotlessi" x="0" y="0" flags="0x0"/>
      <component glyphName="circumflex" x="-20" y="0" flags="0x0"/>
    </TTGlyph>
    <TTGlyph name="idieresis" xMin="100" yMin="0" xMax="396" yMax="665">
      <component glyphName="dotlessi" x="0" y="0" flags="0x0"/>
      <component glyphName="dieresis" x="-8" y="0" flags="0x0"/>
    </TTGlyph>
    <TTGlyph name="igrave" xMin="100" yMin="0" xMax="396" yMax="699">
      <component glyphName="dotlessi" x="0" y="0" flags="0x0"/>
      <component glyphName="uni02CB" x="-50" y="0" flags="0x0"/>
    </TTGlyph>
    <TTGlyph name="imacron" xMin="100" yMin="0" xMax="396" yMax="621">
      <component glyphName="dotlessi" x="0" y="0" flags="0x0"/>
      <component glyphName="uni0304" x="500" y="0" flags="0x0"/>
    </TTGlyph>
    <TTGlyph name="infinity" xMin="10" yMin="174" xMax="492" yMax="431">
      <contour>
        <pt x="492" y="248" on="0"/>
        <pt x="423" y="174" on="0"/>
        <pt x="370" y="174" on="1"/>
        <pt x="297" y="174" on="0"/>
        <pt x="250" y="253" on="1"/>
        <pt x="199" y="174" on="0"/>
        <pt x="132" y="174" on="1"/>
        <pt x="79" y="174" on="0"/>
        <pt x="10" y="247" on="0"/>
        <pt x="10" y="302" on="1"/>
        <pt x="10" y="358" on="0"/>
        <pt x="80" y="431" on="0"/>
        <pt x="132" y="431" on="1"/>
        <pt x="169" y="431" on="0"/>
        <pt x="227" y="394" on="0"/>
        <pt x="252" y="352" on="1"/>
        <pt x="276" y="392" on="0"/>
        <pt x="334" y="431" on="0"/>
        <pt x="371" y="431" on="1"/>
        <pt x="424" y="431" on="0"/>
        <pt x="492" y="360" on="0"/>
        <pt x="492" y="302" on="1"/>
      </contour>
      <contour>
        <pt x="198" y="341" on="0"/>
        <pt x="159" y="373" on="0"/>
        <pt x="134" y="373" on="1"/>
        <pt x="105" y="373" on="0"/>
        <pt x="70" y="334" on="0"/>
        <pt x="70" y="303" on="1"/>
        <pt x="70" y="272" on="0"/>
        <pt x="105" y="233" on="0"/>
        <pt x="134" y="233" on="1"/>
        <pt x="161" y="233" on="0"/>
        <pt x="201" y="268" on="0"/>
        <pt x="218" y="303" on="1"/>
      </contour>
      <contour>
        <pt x="432" y="333" on="0"/>
        <pt x="397" y="372" on="0"/>
        <pt x="369" y="372" on="1"/>
        <pt x="343" y="372" on="0"/>
        <pt x="303" y="338" on="0"/>
        <pt x="284" y="302" on="1"/>
        <pt x="303" y="266" on="0"/>
        <pt x="344" y="232" on="0"/>
        <pt x="368" y="232" on="1"/>
        <pt x="397" y="232" on="0"/>
        <pt x="432" y="271" on="0"/>
        <pt x="432" y="302" on="1"/>
      </contour>
    </TTGlyph>
    <TTGlyph name="integral" xMin="73" yMin="-240" xMax="436" yMax="760">
      <contour>
        <pt x="106" y="-240" on="0"/>
        <pt x="73" y="-227" on="1"/>
        <pt x="73" y="-165" on="1"/>
        <pt x="102" y="-178" on="0"/>
        <pt x="135" y="-178" on="1"/>
        <pt x="175" y="-178" on="0"/>
        <pt x="220" y="-118" on="0"/>
        <pt x="220" y="-55" on="1"/>
        <pt x="220" y="574" on="1"/>
        <pt x="220" y="760" on="0"/>
        <pt x="371" y="760" on="1"/>
        <pt x="405" y="760" on="0"/>
        <pt x="436" y="748" on="1"/>
        <pt x="436" y="687" on="1"/>
        <pt x="408" y="698" on="0"/>
        <pt x="377" y="698" on="1"/>
        <pt x="333" y="698" on="0"/>
        <pt x="292" y="641" on="0"/>
        <pt x="292" y="566" on="1"/>
        <pt x="292" y="-62" on="1"/>
        <pt x="292" y="-151" on="0"/>
        <pt x="213" y="-240" on="0"/>
        <pt x="144" y="-240" on="1"/>
      </contour>
    </TTGlyph>
    <TTGlyph name="invsmileface" xMin="40" yMin="99" xMax="457" yMax="517">
      <contour>
        <pt x="191" y="99" on="0"/>
        <pt x="96" y="155" on="0"/>
        <pt x="40" y="251" on="0"/>
        <pt x="40" y="308" on="1"/>
        <pt x="40" y="365" on="0"/>
        <pt x="96" y="461" on="0"/>
        <pt x="191" y="517" on="0"/>
        <pt x="248" y="517" on="1"/>
        <pt x="305" y="517" on="0"/>
        <pt x="401" y="461" on="0"/>
        <pt x="457" y="365" on="0"/>
        <pt x="457" y="308" on="1"/>
        <pt x="457" y="251" on="0"/>
        <pt x="401" y="155" on="0"/>
        <pt x="305" y="99" on="0"/>
        <pt x="248" y="99" on="1"/>
      </contour>
      <contour>
        <pt x="192" y="318" on="0"/>
        <pt x="211" y="337" on="0"/>
        <pt x="211" y="349" on="1"/>
        <pt x="211" y="361" on="0"/>
        <pt x="192" y="380" on="0"/>
        <pt x="180" y="380" on="1"/>
        <pt x="168" y="380" on="0"/>
        <pt x="149" y="361" on="0"/>
        <pt x="149" y="349" on="1"/>
        <pt x="149" y="337" on="0"/>
        <pt x="168" y="318" on="0"/>
        <pt x="180" y="318" on="1"/>
      </contour>
      <contour>
        <pt x="330" y="318" on="0"/>
        <pt x="349" y="337" on="0"/>
        <pt x="349" y="349" on="1"/>
        <pt x="349" y="361" on="0"/>
        <pt x="330" y="380" on="0"/>
        <pt x="318" y="380" on="1"/>
        <pt x="306" y="380" on="0"/>
        <pt x="287" y="361" on="0"/>
        <pt x="287" y="349" on="1"/>
        <pt x="287" y="337" on="0"/>
        <pt x="306" y="318" on="0"/>
        <pt x="318" y="318" on="1"/>
      </contour>
      <contour>
        <pt x="279" y="189" on="0"/>
        <pt x="335" y="220" on="0"/>
        <pt x="355" y="246" on="1"/>
        <pt x="335" y="277" on="1"/>
        <pt x="295" y="226" on="0"/>
        <pt x="249" y="226" on="1"/>
        <pt x="224" y="226" on="0"/>
        <pt x="181" y="254" on="0"/>
        <pt x="167" y="277" on="1"/>
        <pt x="141" y="244" on="1"/>
        <pt x="187" y="189" on="0"/>
        <pt x="249" y="189" on="1"/>
      </contour>
    </TTGlyph>
    <TTGlyph name="iogonek" xMin="100" yMin="-227" xMax="396" yMax="656">
      <contour>
        <pt x="228" y="553" on="0"/>
        <pt x="198" y="583" on="0"/>
        <pt x="198" y="604" on="1"/>
        <pt x="198" y="626" on="0"/>
        <pt x="227" y="656" on="0"/>
        <pt x="249" y="656" on="1"/>
        <pt x="270" y="656" on="0"/>
        <pt x="301" y="625" on="0"/>
        <pt x="301" y="604" on="1"/>
        <pt x="301" y="583" on="0"/>
        <pt x="270" y="553" on="0"/>
        <pt x="249" y="553" on="1"/>
      </contour>
      <contour>
        <pt x="358" y="-30" on="0"/>
        <pt x="314" y="-96" on="0"/>
        <pt x="314" y="-123" on="1"/>
        <pt x="314" y="-145" on="0"/>
        <pt x="345" y="-175" on="0"/>
        <pt x="376" y="-179" on="1"/>
        <pt x="360" y="-227" on="1"/>
        <pt x="309" y="-220" on="0"/>
        <pt x="248" y="-174" on="0"/>
        <pt x="248" y="-137" on="1"/>
        <pt x="248" y="-102" on="0"/>
        <pt x="296" y="-32" on="0"/>
        <pt x="342" y="0" on="1"/>
        <pt x="100" y="0" on="1"/>
        <pt x="100" y="58" on="1"/>
        <pt x="217" y="58" on="1"/>
        <pt x="217" y="399" on="1"/>
        <pt x="106" y="399" on="1"/>
        <pt x="106" y="457" on="1"/>
        <pt x="289" y="457" on="1"/>
        <pt x="289" y="58" on="1"/>
        <pt x="396" y="58" on="1"/>
        <pt x="396" y="0" on="1"/>
      </contour>
    </TTGlyph>
    <TTGlyph name="itilde" xMin="100" yMin="0" xMax="396" yMax="669">
      <component glyphName="dotlessi" x="0" y="0" flags="0x0"/>
      <component glyphName="tildecomb.i" x="490" y="0" flags="0x0"/>
    </TTGlyph>
    <TTGlyph name="j" xMin="48" yMin="-174" xMax="379" yMax="656">
      <component glyphName="uni0237" x="0" y="0" flags="0x0"/>
      <component glyphName="uni0307" x="573" y="0" flags="0x0"/>
    </TTGlyph>
    <TTGlyph name="jcircumflex" xMin="48" yMin="-174" xMax="479" yMax="685">
      <component glyphName="uni0237" x="0" y="0" flags="0x0"/>
      <component glyphName="uni0302" x="578" y="0" flags="0x0"/>
    </TTGlyph>
    <TTGlyph name="k" xMin="66" yMin="-4" xMax="479" yMax="665">
      <contour>
        <pt x="199" y="229" on="1"/>
        <pt x="139" y="173" on="1"/>
        <pt x="139" y="0" on="1"/>
        <pt x="66" y="0" on="1"/>
        <pt x="66" y="665" on="1"/>
        <pt x="148" y="665" on="1"/>
        <pt x="148" y="658" on="1"/>
        <pt x="142" y="652" on="0"/>
        <pt x="139" y="638" on="0"/>
        <pt x="139" y="621" on="1"/>
        <pt x="139" y="247" on="1"/>
        <pt x="368" y="459" on="1"/>
        <pt x="393" y="454" on="0"/>
        <pt x="421" y="454" on="1"/>
        <pt x="447" y="454" on="1"/>
        <pt x="255" y="273" on="1"/>
        <pt x="479" y="0" on="1"/>
        <pt x="386" y="-4" on="1"/>
      </contour>
    </TTGlyph>
    <TTGlyph name="kcommaaccent" xMin="66" yMin="-275" xMax="479" yMax="665">
      <component glyphName="k" x="0" y="0" flags="0x0"/>
      <component glyphName="uni0326" x="514" y="0" flags="0x0"/>
    </TTGlyph>
    <TTGlyph name="kgreenlandic" xMin="66" yMin="-4" xMax="479" yMax="462">
      <contour>
        <pt x="199" y="229" on="1"/>
        <pt x="139" y="173" on="1"/>
        <pt x="139" y="0" on="1"/>
        <pt x="66" y="0" on="1"/>
        <pt x="66" y="457" on="1"/>
        <pt x="148" y="457" on="1"/>
        <pt x="148" y="453" on="0"/>
        <pt x="139" y="435" on="0"/>
        <pt x="139" y="431" on="1"/>
        <pt x="139" y="247" on="1"/>
        <pt x="369" y="462" on="1"/>
        <pt x="394" y="457" on="0"/>
        <pt x="422" y="457" on="1"/>
        <pt x="448" y="457" on="1"/>
        <pt x="255" y="273" on="1"/>
        <pt x="479" y="0" on="1"/>
        <pt x="386" y="-4" on="1"/>
      </contour>
    </TTGlyph>
    <TTGlyph name="l" xMin="79" yMin="0" xMax="421" yMax="665">
      <contour>
        <pt x="79" y="58" on="1"/>
        <pt x="214" y="58" on="1"/>
        <pt x="214" y="607" on="1"/>
        <pt x="85" y="607" on="1"/>
        <pt x="85" y="665" on="1"/>
        <pt x="287" y="665" on="1"/>
        <pt x="287" y="58" on="1"/>
        <pt x="421" y="58" on="1"/>
        <pt x="421" y="0" on="1"/>
        <pt x="79" y="0" on="1"/>
      </contour>
    </TTGlyph>
    <TTGlyph name="lacute" xMin="79" yMin="0" xMax="421" yMax="833">
      <component glyphName="l" x="0" y="0" flags="0x0"/>
      <component glyphName="acutecomb.case" x="481" y="42" flags="0x4"/>
    </TTGlyph>
    <TTGlyph name="lcaron" xMin="79" yMin="0" xMax="457" yMax="671">
      <component glyphName="l" x="0" y="0" flags="0x0"/>
      <component glyphName="uni02BC" x="164" y="0" flags="0x0"/>
    </TTGlyph>
    <TTGlyph name="lcommaaccent" xMin="79" yMin="-275" xMax="421" yMax="665">
      <component glyphName="l" x="0" y="0" flags="0x0"/>
      <component glyphName="uni0326" x="514" y="0" flags="0x0"/>
    </TTGlyph>
    <TTGlyph name="ldot" xMin="69" yMin="0" xMax="448" yMax="665">
      <contour>
        <pt x="69" y="58" on="1"/>
        <pt x="184" y="58" on="1"/>
        <pt x="184" y="607" on="1"/>
        <pt x="75" y="607" on="1"/>
        <pt x="75" y="665" on="1"/>
        <pt x="257" y="665" on="1"/>
        <pt x="257" y="58" on="1"/>
        <pt x="411" y="58" on="1"/>
        <pt x="411" y="0" on="1"/>
        <pt x="69" y="0" on="1"/>
      </contour>
      <contour>
        <pt x="363" y="274" on="0"/>
        <pt x="329" y="307" on="0"/>
        <pt x="329" y="331" on="1"/>
        <pt x="329" y="355" on="0"/>
        <pt x="364" y="388" on="0"/>
        <pt x="388" y="388" on="1"/>
        <pt x="411" y="388" on="0"/>
        <pt x="448" y="354" on="0"/>
        <pt x="448" y="331" on="1"/>
        <pt x="448" y="308" on="0"/>
        <pt x="413" y="274" on="0"/>
        <pt x="388" y="274" on="1"/>
      </contour>
    </TTGlyph>
    <TTGlyph name="less" xMin="35" yMin="47" xMax="461" yMax="567">
      <contour>
        <pt x="35" y="296" on="1"/>
        <pt x="35" y="344" on="1"/>
        <pt x="458" y="567" on="1"/>
        <pt x="458" y="496" on="1"/>
        <pt x="111" y="319" on="1"/>
        <pt x="461" y="123" on="1"/>
        <pt x="461" y="47" on="1"/>
      </contour>
    </TTGlyph>
    <TTGlyph name="lessequal" xMin="35" yMin="17" xMax="458" yMax="527">
      <contour>
        <pt x="35" y="306" on="1"/>
        <pt x="35" y="354" on="1"/>
        <pt x="458" y="527" on="1"/>
        <pt x="458" y="456" on="1"/>
        <pt x="111" y="329" on="1"/>
        <pt x="458" y="173" on="1"/>
        <pt x="458" y="107" on="1"/>
      </contour>
      <contour>
        <pt x="46" y="80" on="1"/>
        <pt x="457" y="80" on="1"/>
        <pt x="457" y="17" on="1"/>
        <pt x="46" y="17" on="1"/>
      </contour>
    </TTGlyph>
    <TTGlyph name="lira" xMin="39" yMin="-15" xMax="470" yMax="623">
      <component glyphName="sterling" x="0" y="0" flags="0x0"/>
    </TTGlyph>
    <TTGlyph name="logicalnot" xMin="91" yMin="157" xMax="414" yMax="347">
      <contour>
        <pt x="350" y="284" on="1"/>
        <pt x="91" y="284" on="1"/>
        <pt x="91" y="347" on="1"/>
        <pt x="414" y="347" on="1"/>
        <pt x="414" y="157" on="1"/>
        <pt x="350" y="157" on="1"/>
      </contour>
    </TTGlyph>
    <TTGlyph name="lozenge" xMin="47" yMin="0" xMax="472" yMax="641">
      <contour>
        <pt x="47" y="320" on="1"/>
        <pt x="243" y="641" on="1"/>
        <pt x="276" y="641" on="1"/>
        <pt x="472" y="320" on="1"/>
        <pt x="276" y="0" on="1"/>
        <pt x="243" y="0" on="1"/>
      </contour>
      <contour>
        <pt x="401" y="320" on="1"/>
        <pt x="260" y="554" on="1"/>
        <pt x="118" y="320" on="1"/>
        <pt x="260" y="88" on="1"/>
      </contour>
    </TTGlyph>
    <TTGlyph name="lslash" xMin="79" yMin="0" xMax="421" yMax="665">
      <contour>
        <pt x="79" y="58" on="1"/>
        <pt x="214" y="58" on="1"/>
        <pt x="214" y="279" on="1"/>
        <pt x="135" y="252" on="1"/>
        <pt x="135" y="318" on="1"/>
        <pt x="214" y="345" on="1"/>
        <pt x="214" y="607" on="1"/>
        <pt x="85" y="607" on="1"/>
        <pt x="85" y="665" on="1"/>
        <pt x="287" y="665" on="1"/>
        <pt x="287" y="370" on="1"/>
        <pt x="378" y="403" on="1"/>
        <pt x="378" y="334" on="1"/>
        <pt x="287" y="303" on="1"/>
        <pt x="287" y="58" on="1"/>
        <pt x="421" y="58" on="1"/>
        <pt x="421" y="0" on="1"/>
        <pt x="79" y="0" on="1"/>
      </contour>
    </TTGlyph>
    <TTGlyph name="m" xMin="38" yMin="0" xMax="471" yMax="468">
      <contour>
        <pt x="38" y="457" on="1"/>
        <pt x="104" y="457" on="1"/>
        <pt x="104" y="412" on="1"/>
        <pt x="120" y="437" on="0"/>
        <pt x="170" y="468" on="0"/>
        <pt x="197" y="468" on="1"/>
        <pt x="227" y="468" on="0"/>
        <pt x="272" y="430" on="0"/>
        <pt x="278" y="401" on="1"/>
        <pt x="291" y="431" on="0"/>
        <pt x="347" y="468" on="0"/>
        <pt x="381" y="468" on="1"/>
        <pt x="426" y="468" on="0"/>
        <pt x="471" y="403" on="0"/>
        <pt x="469" y="351" on="1"/>
        <pt x="469" y="0" on="1"/>
        <pt x="403" y="0" on="1"/>
        <pt x="403" y="324" on="1"/>
        <pt x="403" y="381" on="0"/>
        <pt x="381" y="415" on="0"/>
        <pt x="360" y="415" on="1"/>
        <pt x="342" y="415" on="0"/>
        <pt x="308" y="381" on="0"/>
        <pt x="287" y="328" on="0"/>
        <pt x="287" y="302" on="1"/>
        <pt x="287" y="0" on="1"/>
        <pt x="220" y="0" on="1"/>
        <pt x="220" y="318" on="1"/>
        <pt x="220" y="374" on="0"/>
        <pt x="199" y="413" on="0"/>
        <pt x="170" y="413" on="1"/>
        <pt x="155" y="413" on="0"/>
        <pt x="124" y="386" on="0"/>
        <pt x="104" y="337" on="0"/>
        <pt x="104" y="305" on="1"/>
        <pt x="104" y="0" on="1"/>
        <pt x="38" y="0" on="1"/>
      </contour>
    </TTGlyph>
    <TTGlyph name="macron" xMin="123" yMin="565" xMax="377" yMax="621">
      <contour>
        <pt x="123" y="621" on="1"/>
        <pt x="377" y="621" on="1"/>
        <pt x="377" y="565" on="1"/>
        <pt x="123" y="565" on="1"/>
      </contour>
    </TTGlyph>
    <TTGlyph name="minus" xMin="45" yMin="282" xMax="456" yMax="343">
      <contour>
        <pt x="45" y="343" on="1"/>
        <pt x="456" y="343" on="1"/>
        <pt x="456" y="282" on="1"/>
        <pt x="45" y="282" on="1"/>
      </contour>
    </TTGlyph>
    <TTGlyph name="minute" xMin="199" yMin="514" xMax="292" yMax="694">
      <contour>
        <pt x="199" y="514" on="1"/>
        <pt x="221" y="694" on="1"/>
        <pt x="292" y="694" on="1"/>
        <pt x="243" y="514" on="1"/>
      </contour>
    </TTGlyph>
    <TTGlyph name="multiply" xMin="85" yMin="145" xMax="430" yMax="503">
      <contour>
        <pt x="254" y="278" on="1"/>
        <pt x="129" y="149" on="1"/>
        <pt x="85" y="193" on="1"/>
        <pt x="211" y="324" on="1"/>
        <pt x="85" y="457" on="1"/>
        <pt x="132" y="503" on="1"/>
        <pt x="256" y="372" on="1"/>
        <pt x="382" y="503" on="1"/>
        <pt x="430" y="459" on="1"/>
        <pt x="300" y="325" on="1"/>
        <pt x="427" y="191" on="1"/>
        <pt x="381" y="145" on="1"/>
      </contour>
    </TTGlyph>
    <TTGlyph name="n" xMin="72" yMin="0" xMax="431" yMax="468">
      <contour>
        <pt x="72" y="457" on="1"/>
        <pt x="142" y="457" on="1"/>
        <pt x="142" y="376" on="1"/>
        <pt x="169" y="418" on="0"/>
        <pt x="251" y="468" on="0"/>
        <pt x="297" y="468" on="1"/>
        <pt x="358" y="468" on="0"/>
        <pt x="431" y="375" on="0"/>
        <pt x="431" y="277" on="1"/>
        <pt x="431" y="0" on="1"/>
        <pt x="361" y="0" on="1"/>
        <pt x="361" y="275" on="1"/>
        <pt x="361" y="343" on="0"/>
        <pt x="315" y="405" on="0"/>
        <pt x="277" y="405" on="1"/>
        <pt x="246" y="405" on="0"/>
        <pt x="183" y="369" on="0"/>
        <pt x="142" y="304" on="0"/>
        <pt x="142" y="263" on="1"/>
        <pt x="142" y="0" on="1"/>
        <pt x="72" y="0" on="1"/>
      </contour>
    </TTGlyph>
    <TTGlyph name="nacute" xMin="72" yMin="0" xMax="431" yMax="682">
      <component glyphName="n" x="0" y="0" flags="0x0"/>
      <component glyphName="acutecomb" x="504" y="0" flags="0x0"/>
    </TTGlyph>
    <TTGlyph name="ncaron" xMin="72" yMin="0" xMax="431" yMax="688">
      <component glyphName="n" x="0" y="0" flags="0x0"/>
      <component glyphName="uni030C" x="509" y="0" flags="0x0"/>
    </TTGlyph>
    <TTGlyph name="ncommaaccent" xMin="72" yMin="-275" xMax="431" yMax="468">
      <component glyphName="n" x="0" y="0" flags="0x0"/>
      <component glyphName="uni0326" x="524" y="0" flags="0x0"/>
    </TTGlyph>
    <TTGlyph name="nine" xMin="68" yMin="-10" xMax="439" yMax="627">
      <contour>
        <pt x="305" y="627" on="0"/>
        <pt x="392" y="560" on="0"/>
        <pt x="439" y="440" on="0"/>
        <pt x="439" y="363" on="1"/>
        <pt x="439" y="179" on="0"/>
        <pt x="329" y="-8" on="0"/>
        <pt x="228" y="-10" on="1"/>
        <pt x="138" y="-10" on="0"/>
        <pt x="79" y="47" on="1"/>
        <pt x="129" y="104" on="1"/>
        <pt x="134" y="99" on="1"/>
        <pt x="135" y="89" on="0"/>
        <pt x="143" y="75" on="0"/>
        <pt x="155" y="67" on="1"/>
        <pt x="182" y="50" on="0"/>
        <pt x="222" y="50" on="1"/>
        <pt x="290" y="50" on="0"/>
        <pt x="364" y="182" on="0"/>
        <pt x="371" y="281" on="1"/>
        <pt x="346" y="259" on="0"/>
        <pt x="287" y="236" on="0"/>
        <pt x="249" y="236" on="1"/>
        <pt x="198" y="236" on="0"/>
        <pt x="115" y="284" on="0"/>
        <pt x="68" y="369" on="0"/>
        <pt x="68" y="424" on="1"/>
        <pt x="68" y="481" on="0"/>
        <pt x="116" y="574" on="0"/>
        <pt x="198" y="627" on="0"/>
        <pt x="247" y="627" on="1"/>
      </contour>
      <contour>
        <pt x="292" y="297" on="0"/>
        <pt x="349" y="321" on="0"/>
        <pt x="372" y="349" on="1"/>
        <pt x="368" y="459" on="0"/>
        <pt x="309" y="566" on="0"/>
        <pt x="250" y="566" on="1"/>
        <pt x="198" y="566" on="0"/>
        <pt x="136" y="490" on="0"/>
        <pt x="136" y="425" on="1"/>
        <pt x="136" y="367" on="0"/>
        <pt x="202" y="297" on="0"/>
        <pt x="250" y="297" on="1"/>
      </contour>
    </TTGlyph>
    <TTGlyph name="nine.dnom" xMin="146" yMin="-5" xMax="382" yMax="388">
      <component glyphName="uni2089" x="0" y="0" flags="0x0"/>
    </TTGlyph>
    <TTGlyph name="nine.numr" xMin="146" yMin="247" xMax="382" yMax="640">
      <component glyphName="uni2079" x="0" y="0" flags="0x0"/>
    </TTGlyph>
</ttFont>
